<?xml version="1.0" encoding="UTF-8"?>
<svg version="1.1" xmlns="http://www.w3.org/2000/svg" width="512" height="512">
<path d="M0 0 C0.79841309 0.22042969 1.59682617 0.44085938 2.41943359 0.66796875 C25.58400493 7.2652247 44.51441228 18.49870033 62 35 C62.73734375 35.67289063 63.4746875 36.34578125 64.234375 37.0390625 C79.08007522 51.09509781 89.37733696 69.40294048 95.9375 88.625 C96.34307129 89.80280029 96.34307129 89.80280029 96.75683594 91.00439453 C101.35263918 105.37720124 102.44149475 119.66436949 102.34057617 134.63696289 C102.33972737 136.43255092 102.34020995 138.22813999 102.34190369 140.02372742 C102.34275522 144.84084303 102.32526792 149.65772896 102.30418181 154.47479177 C102.28527261 159.53025564 102.28365346 164.5857263 102.28010559 169.64122009 C102.27082659 179.18884884 102.24626964 188.73637303 102.21605712 198.28395599 C102.18238315 209.16441863 102.1659946 220.04488658 102.15097082 230.92538846 C102.11971583 253.28364999 102.06703703 275.64181911 102 298 C102.60473145 297.97905273 103.20946289 297.95810547 103.83251953 297.93652344 C106.59650771 297.85291055 109.36022913 297.80119946 112.125 297.75 C113.07632812 297.71648437 114.02765625 297.68296875 115.0078125 297.6484375 C121.04699449 297.56455997 124.38886929 298.00509603 129 302 C133.28962281 306.67205072 132.37774973 312.67763176 132.29296875 318.64453125 C132.28872391 319.7694548 132.28447906 320.89437836 132.28010559 322.0533905 C132.2633369 325.64000562 132.22568688 329.22605521 132.1875 332.8125 C132.17245087 335.24673667 132.15876287 337.68098216 132.14648438 340.11523438 C132.11343925 346.07701529 132.06325728 352.03846723 132 358 C132.62560822 357.99111755 133.25121643 357.98223511 133.89578247 357.9730835 C140.4170822 357.88447305 146.93821041 357.8242087 153.45996094 357.78027344 C155.89264881 357.76017929 158.32528851 357.73289912 160.7578125 357.69824219 C164.25793355 357.6496294 167.75741502 357.62700861 171.2578125 357.609375 C172.34240753 357.58872986 173.42700256 357.56808472 174.54446411 357.54681396 C180.69243777 357.54499401 184.34357492 357.8466884 189 362 C193.05630398 367.22259857 192.77397544 372.65340142 192 379 C189.8213951 383.599277 187.52871436 385.79331939 183 388 C179.61591488 388.37719816 179.61591488 388.37719816 175.65481663 388.38031673 C174.92146755 388.38497665 174.18811848 388.38963657 173.43254671 388.3944377 C170.96775388 388.40641736 168.50350927 388.39698104 166.03871155 388.38768005 C164.25675525 388.39185167 162.47480161 388.39732824 160.69285291 388.40399987 C155.79020075 388.41849571 150.88771611 388.41419685 145.98505461 388.40683305 C140.70002691 388.40211391 135.41503612 388.41460009 130.13002014 388.42485046 C119.77403145 388.44206834 109.41810335 388.4428723 99.06210405 388.43763756 C90.64693576 388.43360026 82.2317854 388.43503418 73.81661797 388.44038582 C72.02179856 388.44150845 72.02179856 388.44150845 70.19072018 388.44265376 C67.76013823 388.4441852 65.32955629 388.44572355 62.89897435 388.44726873 C40.09278153 388.46100453 17.28662299 388.45554845 -5.51956905 388.44408352 C-26.3956458 388.43414952 -47.27163394 388.44709281 -68.14769702 388.47101771 C-89.57066862 388.49538489 -110.9935989 388.50502248 -132.41658407 388.49836498 C-144.44901802 388.49486753 -156.4813838 388.49713952 -168.5138073 388.51461601 C-178.75654688 388.52930821 -188.99917029 388.53001252 -199.24190753 388.5125451 C-204.4699713 388.50400821 -209.69782727 388.50195099 -214.92588043 388.51719666 C-219.70947476 388.53097378 -224.49268189 388.52637092 -229.27625341 388.50695742 C-231.00903792 388.50317558 -232.74185294 388.50618177 -234.47461044 388.51656907 C-236.82653522 388.52966823 -239.17710956 388.51822032 -241.52897549 388.50057125 C-243.48996265 388.50041025 -243.48996265 388.50041025 -245.49056572 388.50024599 C-250.55936809 387.77772269 -253.72851802 385.63706665 -256.84765625 381.62109375 C-258.93568681 376.87170897 -258.61920957 372.07751849 -258 367 C-255.83157184 362.42220722 -253.60299107 360.0392537 -249 358 C-245.11648852 357.58454501 -241.25712131 357.65159443 -237.35546875 357.70703125 C-236.2305452 357.71127609 -235.10562164 357.71552094 -233.9466095 357.71989441 C-230.35999438 357.7366631 -226.77394479 357.77431312 -223.1875 357.8125 C-220.75326333 357.82754913 -218.31901784 357.84123713 -215.88476562 357.85351562 C-209.92298471 357.88656075 -203.96153277 357.93674272 -198 358 C-198.00888245 357.37439178 -198.01776489 356.74878357 -198.0269165 356.10421753 C-198.11552695 349.5829178 -198.1757913 343.06178959 -198.21972656 336.54003906 C-198.23982071 334.10735119 -198.26710088 331.67471149 -198.30175781 329.2421875 C-198.3503706 325.74206645 -198.37299139 322.24258498 -198.390625 318.7421875 C-198.41127014 317.65759247 -198.43191528 316.57299744 -198.45318604 315.45553589 C-198.45495131 309.49226192 -198.26202545 305.5703538 -194 301 C-189.2062136 296.99962533 -184.1022599 297.65758016 -178.1875 297.8125 C-177.20845703 297.82603516 -176.22941406 297.83957031 -175.22070312 297.85351562 C-172.81323375 297.88874688 -170.40690436 297.93800735 -168 298 C-168.00276538 297.0776912 -168.00553076 296.1553824 -168.00837994 295.20512486 C-168.07515794 272.7005207 -168.12436207 250.1959295 -168.15543652 227.69124699 C-168.17086563 216.80788196 -168.19187901 205.92458262 -168.22631836 195.04125977 C-168.25634237 185.54867345 -168.27560371 176.05613474 -168.28226548 166.56350225 C-168.28615583 161.54329781 -168.29521503 156.52322948 -168.31719017 151.50306892 C-168.33776137 146.76462705 -168.34379273 142.02637559 -168.33932304 137.2878933 C-168.34013912 135.56152431 -168.34598058 133.83514802 -168.35761642 132.10881805 C-168.45323194 117.17297984 -166.82853602 102.83292009 -161.9375 88.625 C-161.64149902 87.75560791 -161.34549805 86.88621582 -161.04052734 85.99047852 C-154.32591625 67.09344897 -143.70782777 51.52548768 -130 37 C-129.32710937 36.26265625 -128.65421875 35.5253125 -127.9609375 34.765625 C-111.26945108 17.13641462 -89.13582926 6.38744994 -66 0 C-65.3188916 -0.19207031 -64.6377832 -0.38414063 -63.93603516 -0.58203125 C-44.71755842 -5.71348695 -19.10354581 -5.38713665 0 0 Z " fill="#F23030" transform="translate(289,124)"/>
<path d="M0 0 C0 29.7 0 59.4 0 90 C2.31 90.33 4.62 90.66 7 91 C10.75199751 93.04723597 13.48872263 95.99518149 15 100 C15.26069641 103.06015015 15.26069641 103.06015015 15.2746582 106.69287109 C15.27976913 107.35681381 15.28488007 108.02075653 15.29014587 108.70481873 C15.3040184 110.89445065 15.3030867 113.08376691 15.30078125 115.2734375 C15.30466993 116.80034501 15.30900496 118.32725145 15.31376648 119.85415649 C15.32122398 123.05352281 15.32094118 126.25277878 15.31567383 129.45214844 C15.30988464 133.54327906 15.3267988 137.63395615 15.3500185 141.72501183 C15.36478361 144.87867861 15.3656237 148.03223693 15.36250877 151.18593216 C15.36302075 152.69375124 15.3682353 154.20157659 15.37832069 155.70936203 C15.39072002 157.82265012 15.38387321 159.93506471 15.37231445 162.04833984 C15.37294388 163.24872894 15.3735733 164.44911804 15.3742218 165.68588257 C14.82519271 170.54809763 13.14447615 173.82373285 9.75 177.3125 C7 179 7 179 0 180 C0 189.9 0 199.8 0 210 C2.31 210.33 4.62 210.66 7 211 C10.77734031 213.06106398 13.38875866 216.01624275 15 220 C15.78671167 225.61936904 15.22202478 230.22251498 12 235 C7.86727316 239.24752481 6.41169827 239.0840431 0 240 C0 260.13 0 280.26 0 301 C-44.55 301 -89.1 301 -135 301 C-135.1209091 256.04420439 -135.1209091 256.04420439 -135.14648438 237.13476562 C-135.16425132 224.10356077 -135.18508237 211.07241432 -135.22631836 198.04125977 C-135.25634237 188.54867345 -135.27560371 179.05613474 -135.28226548 169.56350225 C-135.28615583 164.54329781 -135.29521503 159.52322948 -135.31719017 154.50306892 C-135.33776137 149.76462705 -135.34379273 145.02637559 -135.33932304 140.2878933 C-135.34013912 138.56152431 -135.34598058 136.83514802 -135.35761642 135.10881805 C-135.45323194 120.17297984 -133.82853602 105.83292009 -128.9375 91.625 C-128.64149902 90.75560791 -128.34549805 89.88621582 -128.04052734 88.99047852 C-121.32591625 70.09344897 -110.70782777 54.52548768 -97 40 C-96.32710937 39.26265625 -95.65421875 38.5253125 -94.9609375 37.765625 C-70.21808753 11.63272728 -35.19493491 0 0 0 Z " fill="#FF6A4C" transform="translate(256,121)"/>
<path d="M0 0 C1.09307447 -0.00843994 2.18614894 -0.01687988 3.31234688 -0.02557558 C4.50766582 -0.01956553 5.70298476 -0.01355549 6.93452549 -0.00736332 C8.20863256 -0.01274886 9.48273962 -0.01813439 10.79545599 -0.02368313 C14.32993991 -0.03815363 17.86419097 -0.03388811 21.39868772 -0.02651632 C25.21131518 -0.02179089 29.0238918 -0.03428894 32.83650303 -0.04453373 C40.30488203 -0.06173931 47.77317696 -0.06255811 55.24157064 -0.05732083 C61.31120322 -0.0532812 67.38081093 -0.05472021 73.45044231 -0.06006908 C74.74569669 -0.06119172 74.74569669 -0.06119172 76.06711783 -0.06233703 C77.82125978 -0.06386849 79.57540172 -0.06540684 81.32954366 -0.066952 C97.78352618 -0.08068337 114.23746117 -0.07523485 130.69144262 -0.06376678 C145.74765874 -0.05383346 160.80375199 -0.06677565 175.85994916 -0.09070098 C191.31645885 -0.11507755 206.77291127 -0.12470342 222.2294398 -0.11804825 C230.90840259 -0.11455285 239.58727086 -0.11680921 248.26621914 -0.13429928 C255.65434542 -0.14900324 263.04231062 -0.14968042 270.43043368 -0.13222837 C274.20033371 -0.12370105 277.96994577 -0.12161071 281.73983097 -0.13687992 C285.82555305 -0.15322359 289.91057696 -0.13861432 293.99629307 -0.12088871 C295.7859254 -0.13529622 295.7859254 -0.13529622 297.61171192 -0.14999479 C303.88674728 -0.09378778 307.78153149 0.1166718 312.5289011 4.38031673 C316.81852391 9.05236746 315.90665083 15.05794849 315.82186985 21.02484798 C315.81762501 22.14977154 315.81338017 23.27469509 315.80900669 24.43370724 C315.792238 28.02032235 315.75458798 31.60637195 315.7164011 35.19281673 C315.70135197 37.6270534 315.68766397 40.06129889 315.67538548 42.49555111 C315.64234035 48.45733202 315.59215838 54.41878397 315.5289011 60.38031673 C316.15450932 60.37143429 316.78011753 60.36255184 317.42468357 60.35340023 C323.9459833 60.26478979 330.46711151 60.20452544 336.98886204 60.16059017 C339.42154991 60.14049603 341.85418961 60.11321585 344.2867136 60.07855892 C347.78683465 60.02994613 351.28631612 60.00732535 354.7867136 59.98969173 C355.87130863 59.96904659 356.95590366 59.94840145 358.07336521 59.9271307 C364.22133887 59.92531075 367.87247602 60.22700514 372.5289011 64.38031673 C376.58520508 69.60291531 376.30287654 75.03371816 375.5289011 81.38031673 C373.3502962 85.97959374 371.05761546 88.17363612 366.5289011 90.38031673 C363.14481598 90.75751489 363.14481598 90.75751489 359.18371773 90.76063347 C358.08369412 90.76762335 358.08369412 90.76762335 356.96144781 90.77475443 C354.49665498 90.78673409 352.03241037 90.77729777 349.56761265 90.76799679 C347.78565635 90.77216841 346.00370271 90.77764498 344.22175401 90.7843166 C339.31910185 90.79881245 334.41661721 90.79451358 329.51395571 90.78714979 C324.22892801 90.78243065 318.94393722 90.79491682 313.65892124 90.8051672 C303.30293255 90.82238507 292.94700445 90.82318903 282.59100515 90.81795429 C274.17583686 90.81391699 265.7606865 90.81535091 257.34551907 90.82070255 C255.55069966 90.82182519 255.55069966 90.82182519 253.71962128 90.8229705 C251.28903933 90.82450193 248.85845739 90.82604028 246.42787545 90.82758547 C223.62168263 90.84132127 200.81552409 90.83586518 178.00933205 90.82440025 C157.1332553 90.81446625 136.25726716 90.82740954 115.38120408 90.85133445 C93.95823248 90.87570163 72.5353022 90.88533921 51.11231703 90.87868172 C39.07988308 90.87518426 27.0475173 90.87745626 15.0150938 90.89493275 C4.77235422 90.90962495 -5.47026919 90.91032925 -15.71300643 90.89286184 C-20.9410702 90.88432495 -26.16892617 90.88226773 -31.39697933 90.89751339 C-36.18057366 90.91129052 -40.96378079 90.90668765 -45.74735231 90.88727415 C-47.48013682 90.88349232 -49.21295184 90.8864985 -50.94570934 90.8968858 C-53.29763412 90.90998497 -55.64820846 90.89853705 -58.00007439 90.88088799 C-59.96106155 90.88072698 -59.96106155 90.88072698 -61.96166462 90.88056272 C-67.03046699 90.15803942 -70.19961692 88.01738338 -73.31875515 84.00141048 C-75.40678571 79.25202571 -75.09030847 74.45783522 -74.4710989 69.38031673 C-72.30267074 64.80252396 -70.07408997 62.41957044 -65.4710989 60.38031673 C-61.58758742 59.96486174 -57.72822021 60.03191116 -53.82656765 60.08734798 C-52.7016441 60.09159283 -51.57672054 60.09583767 -50.4177084 60.10021114 C-46.83109328 60.11697983 -43.24504369 60.15462985 -39.6585989 60.19281673 C-37.22436223 60.20786586 -34.79011674 60.22155387 -32.35586452 60.23383236 C-26.39408361 60.26687748 -20.43263167 60.31705945 -14.4710989 60.38031673 C-14.47998135 59.75470852 -14.48886379 59.1291003 -14.4980154 58.48453426 C-14.58662585 51.96323454 -14.6468902 45.44210632 -14.69082546 38.9203558 C-14.71091961 36.48766792 -14.73819978 34.05502822 -14.77285671 31.62250423 C-14.8214695 28.12238318 -14.84409029 24.62290172 -14.8617239 21.12250423 C-14.88236904 20.0379092 -14.90301418 18.95331417 -14.92428493 17.83585262 C-14.92605021 11.87257866 -14.73312435 7.95067053 -10.4710989 3.38031673 C-6.85704783 0.82089423 -4.41133295 0.00481613 0 0 Z " fill="#443D66" transform="translate(105.47109889984131,421.61968326568604)"/>
<path d="M0 0 C0.73334907 -0.00465992 1.46669815 -0.00931984 2.22226992 -0.01412097 C4.68706274 -0.02610062 7.15130736 -0.01666431 9.61610508 -0.00736332 C11.39806138 -0.01153494 13.18001502 -0.01701151 14.96196371 -0.02368313 C19.86461587 -0.03817898 24.76710052 -0.03388011 29.66976202 -0.02651632 C34.95478971 -0.02179718 40.23978051 -0.03428335 45.52479649 -0.04453373 C55.88078518 -0.06175161 66.23671328 -0.06255556 76.59271257 -0.05732083 C85.00788087 -0.05328352 93.42303123 -0.05471744 101.83819866 -0.06006908 C103.63301806 -0.06119172 103.63301806 -0.06119172 105.46409645 -0.06233703 C107.89467839 -0.06386847 110.32526034 -0.06540681 112.75584228 -0.066952 C135.56203509 -0.0806878 158.36819363 -0.07523171 181.17438567 -0.06376678 C202.05046243 -0.05383278 222.92645057 -0.06677607 243.80251365 -0.09070098 C265.22548524 -0.11506816 286.64841552 -0.12470574 308.0714007 -0.11804825 C320.10383465 -0.11455079 332.13620043 -0.11682279 344.16862392 -0.13429928 C354.41136351 -0.14899148 364.65398692 -0.14969578 374.89672416 -0.13222837 C380.12478793 -0.12369148 385.3526439 -0.12163426 390.58069706 -0.13687992 C395.36429138 -0.15065705 400.14749851 -0.14605418 404.93107004 -0.12664068 C406.66385455 -0.12285885 408.39666956 -0.12586503 410.12942707 -0.13625234 C412.48135184 -0.1493515 414.83192619 -0.13790359 417.18379211 -0.12025452 C419.14477928 -0.12009351 419.14477928 -0.12009351 421.14538234 -0.11992925 C426.21418471 0.60259405 429.38333465 2.74325009 432.50247288 6.75922298 C434.59050344 11.50860776 434.2740262 16.30279825 433.65481663 21.38031673 C431.47621173 25.97959374 429.18353099 28.17363612 424.65481663 30.38031673 C421.27073151 30.75751489 421.27073151 30.75751489 417.30963326 30.76063347 C416.57628418 30.76529339 415.84293511 30.76995331 415.08736333 30.77475443 C412.62257051 30.78673409 410.1583259 30.77729777 407.69352818 30.76799679 C405.91157188 30.77216841 404.12961823 30.77764498 402.34766954 30.7843166 C397.44501738 30.79881245 392.54253273 30.79451358 387.63987124 30.78714979 C382.35484354 30.78243065 377.06985274 30.79491682 371.78483677 30.8051672 C361.42884808 30.82238507 351.07291998 30.82318903 340.71692068 30.81795429 C332.30175238 30.81391699 323.88660203 30.81535091 315.47143459 30.82070255 C313.67661519 30.82182519 313.67661519 30.82182519 311.84553681 30.8229705 C309.41495486 30.82450193 306.98437292 30.82604028 304.55379098 30.82758547 C281.74759816 30.84132127 258.94143962 30.83586518 236.13524758 30.82440025 C215.25917083 30.81446625 194.38318269 30.82740954 173.5071196 30.85133445 C152.08414801 30.87570163 130.66121773 30.88533921 109.23823255 30.87868172 C97.2057986 30.87518426 85.17343283 30.87745626 73.14100933 30.89493275 C62.89826974 30.90962495 52.65564633 30.91032925 42.4129091 30.89286184 C37.18484533 30.88432495 31.95698936 30.88226773 26.7289362 30.89751339 C21.94534187 30.91129052 17.16213474 30.90668765 12.37856322 30.88727415 C10.64577871 30.88349232 8.91296369 30.8864985 7.18020619 30.8968858 C4.82828141 30.90998497 2.47770706 30.89853705 0.12584114 30.88088799 C-1.83514602 30.88072698 -1.83514602 30.88072698 -3.83574909 30.88056272 C-8.90455146 30.15803942 -12.0737014 28.01738338 -15.19283962 24.00141048 C-17.28087019 19.25202571 -16.96439294 14.45783522 -16.34518337 9.38031673 C-12.7927469 1.88072862 -8.01085691 0.00630695 0 0 Z " fill="#322C59" transform="translate(47.34518337249756,481.61968326568604)"/>
<path d="M0 0 C1.31948135 -0.00412399 2.63896271 -0.00824799 3.99842834 -0.01249695 C5.45372215 -0.00188075 6.90901388 0.00902366 8.36430359 0.02018738 C9.9019672 0.02103391 11.43963202 0.020558 12.97729492 0.01885986 C17.14639383 0.01799949 21.31523354 0.03563204 25.48427224 0.05658174 C29.84312897 0.07534148 34.2019917 0.07709842 38.56088257 0.08065796 C46.81269371 0.08998049 55.06438555 0.11459709 63.31614417 0.14470643 C72.71146961 0.17824396 82.10680076 0.19473482 91.50217116 0.20979273 C110.82698352 0.24114648 130.15163235 0.29616115 149.47636414 0.36076355 C149.47636414 20.16076355 149.47636414 39.96076355 149.47636414 60.36076355 C95.02636414 60.36076355 40.57636414 60.36076355 -15.52363586 60.36076355 C-15.52363586 9.36076355 -15.52363586 9.36076355 -11.52363586 3.36076355 C-7.70060517 0.33721222 -4.81137234 -0.01161232 0 0 Z " fill="#5A5A8C" transform="translate(106.52363586425781,421.6392364501953)"/>
<path d="M0 0 C1.32947915 -0.00384491 1.32947915 -0.00384491 2.68581647 -0.0077675 C5.65549077 -0.01270862 8.6246566 0.00379309 11.59428406 0.02018738 C13.7230732 0.02103358 15.85186322 0.02055865 17.98065186 0.01885986 C23.7612397 0.01799821 29.54164125 0.0356516 35.32218575 0.05658174 C41.36267928 0.07532016 47.40317696 0.07709674 53.44369507 0.08065796 C64.88292724 0.08998674 76.32207351 0.11461187 87.76126784 0.14470643 C100.78409855 0.17822445 113.80693334 0.19472992 126.82979643 0.20979273 C153.61942424 0.24116064 180.40896974 0.29454084 207.1985321 0.36076355 C207.1985321 10.26076355 207.1985321 20.16076355 207.1985321 30.36076355 C179.139282 30.45332158 151.08006862 30.52472262 123.02069664 30.56801224 C109.99251995 30.58864576 96.9644398 30.6167816 83.93632507 30.66252136 C72.58227653 30.70236476 61.2282979 30.72819061 49.87418139 30.73711753 C43.86111017 30.74233646 37.84823896 30.75461958 31.83523178 30.78368378 C26.17670993 30.81081322 20.51847069 30.81921344 14.85988998 30.81319427 C12.78219569 30.81429561 10.70449204 30.82226402 8.62685394 30.83758545 C5.79097287 30.85747442 2.95616009 30.8527065 0.12025452 30.84178162 C-0.70271327 30.85343298 -1.52568105 30.86508435 -2.37358725 30.87708879 C-7.64263119 30.82218834 -10.60980448 29.8326095 -14.8014679 26.36076355 C-18.85777188 21.13816498 -18.57544333 15.70736213 -17.8014679 9.36076355 C-13.89381283 1.11126952 -8.38777955 -0.08874989 0 0 Z " fill="#443C65" transform="translate(48.80146789550781,481.6392364501953)"/>
<path d="M0 0 C3.5677811 2.35149209 5.84221079 4.99692157 7.75 8.8125 C7.85725116 10.96577324 7.89889871 13.12241243 7.91113281 15.27832031 C7.91609772 15.94197098 7.92106262 16.60562164 7.92617798 17.28938293 C7.94080823 19.48980745 7.94760416 21.69015979 7.953125 23.890625 C7.95887721 25.42038983 7.96463493 26.95015464 7.97039795 28.47991943 C7.98091139 31.69120622 7.98675132 34.90246795 7.99023438 38.11376953 C7.99570977 42.2206213 8.0197156 46.32713997 8.04820633 50.43388748 C8.06687178 53.5961197 8.07204045 56.75827247 8.07357025 59.92055511 C8.07659018 61.4339657 8.08459643 62.94737511 8.09775543 64.46073151 C8.11489294 66.5837753 8.11291711 68.70601584 8.10644531 70.82910156 C8.11009094 72.03552307 8.11373657 73.24194458 8.11749268 74.48492432 C7.56562963 79.48193835 5.92690029 82.72386723 2.25 86.125 C-2.00730406 88.99868024 -6.22410482 89.59053004 -11.25 88.8125 C-15.60990147 87.08250351 -18.41627578 85.21751304 -20.83300781 81.14477539 C-23.34315654 75.02891684 -22.70121666 68.21577802 -22.68359375 61.71875 C-22.68816114 60.24336508 -22.69346836 58.76798229 -22.69947815 57.29260254 C-22.70838398 54.20946577 -22.70601461 51.12658839 -22.69604492 48.04345703 C-22.68454863 44.10592689 -22.70478864 40.16929271 -22.73396206 36.23188019 C-22.75236623 33.18795147 -22.75202347 30.14423593 -22.74632454 27.1002655 C-22.74617189 25.649091 -22.75216942 24.19790153 -22.76461601 22.7467804 C-22.86794177 8.72901679 -22.86794177 8.72901679 -18.25 2.8125 C-13.03108336 -2.1454708 -6.565322 -2.39886766 0 0 Z " fill="#FEBD3F" transform="translate(263.25,212.1875)"/>
<path d="M0 0 C1.07314453 -0.07347656 1.07314453 -0.07347656 2.16796875 -0.1484375 C11.07812014 1.61516706 17.53827821 9.64910851 23.625 15.8125 C24.57436791 16.75115892 25.52423485 17.68931339 26.47460938 18.62695312 C27.37630859 19.53251953 28.27800781 20.43808594 29.20703125 21.37109375 C30.02018799 22.18763428 30.83334473 23.0041748 31.67114258 23.84545898 C35.42238936 28.27672884 37.43526181 32.38173337 37.15234375 38.2890625 C36.39753062 42.92205345 34.79567221 46.81303251 31.046875 49.765625 C26.41778513 52.35354138 22.03902452 53.39185958 16.8125 52.375 C9.28992464 49.03464689 3.67984867 42.6888933 -2 36.9375 C-2.94936791 35.99884108 -3.89923485 35.06068661 -4.84960938 34.12304688 C-5.75130859 33.21748047 -6.65300781 32.31191406 -7.58203125 31.37890625 C-8.80176636 30.15409546 -8.80176636 30.15409546 -10.04614258 28.90454102 C-14.17416086 24.02819882 -15.71473262 19.81319167 -15.47265625 13.55078125 C-14.86780686 8.93569753 -13.05112932 6.17385713 -9.6875 3.0625 C-6.47459507 0.89378917 -3.80941715 0.17530061 0 0 Z " fill="#FFDE3F" transform="translate(86.1875,70.625)"/>
<path d="M0 0 C3.9323173 2.65202795 6.18648186 5.30944559 7.6875 9.8125 C7.92578125 11.828125 7.92578125 11.828125 8 14.0625 C8.05607422 15.15304688 8.05607422 15.15304688 8.11328125 16.265625 C6.74523979 24.44877207 -0.00026201 29.99530202 -5.62915039 35.57519531 C-7.12347251 37.06098124 -8.5981232 38.56453401 -10.07226562 40.0703125 C-11.0327224 41.0323812 -11.99427545 41.99335697 -12.95703125 42.953125 C-13.81659424 43.81454102 -14.67615723 44.67595703 -15.56176758 45.56347656 C-19.62512032 48.88571011 -23.48287717 50.57963891 -28.75 51.25 C-33.27343315 50.69449067 -36.68661638 49.62039686 -40.3125 46.8125 C-43.09407173 43.22061046 -44.1744468 39.7788724 -44.8125 35.3125 C-43.480634 25.98943798 -37.39280242 20.29012062 -30.94091797 13.97436523 C-29.43532623 12.49786824 -27.94943968 11.00343511 -26.46484375 9.50585938 C-18.48233717 1.57499992 -11.47011048 -4.1119264 0 0 Z " fill="#FFBD3F" transform="translate(433.3125,72.1875)"/>
<path d="M0 0 C0.93312515 -0.00524185 1.86625031 -0.0104837 2.82765198 -0.0158844 C4.79695645 -0.02229471 6.76629927 -0.02098044 8.7355957 -0.01245117 C11.74044332 -0.00394436 14.74338705 -0.03271116 17.74804688 -0.06445312 C19.66536402 -0.06606544 21.58268451 -0.06548704 23.5 -0.0625 C24.39391953 -0.07373398 25.28783905 -0.08496796 26.20884705 -0.09654236 C31.73747313 -0.03511428 34.94074595 0.72999525 39.31640625 4.43359375 C43.37271023 9.65619232 43.09038169 15.08699517 42.31640625 21.43359375 C40.14401386 26.01975546 37.88301652 28.31315321 33.31640625 30.43359375 C30.08796867 30.88069623 26.88825927 30.87785426 23.6328125 30.8671875 C22.69968735 30.87242935 21.76656219 30.8776712 20.80516052 30.8830719 C18.83585605 30.88948221 16.86651323 30.88816794 14.8972168 30.87963867 C11.89236918 30.87113186 8.88942545 30.89989866 5.88476562 30.93164062 C3.96744848 30.93325294 2.05012799 30.93267454 0.1328125 30.9296875 C-0.76110703 30.94092148 -1.65502655 30.95215546 -2.57603455 30.96372986 C-8.10466063 30.90230178 -11.30793345 30.13719225 -15.68359375 26.43359375 C-19.73989773 21.21099518 -19.45756919 15.78019233 -18.68359375 9.43359375 C-14.59930724 0.81121111 -8.70911081 -0.02853617 0 0 Z " fill="#FFBD3F" transform="translate(469.68359375,240.56640625)"/>
<path d="M0 0 C0.93312515 -0.00524185 1.86625031 -0.0104837 2.82765198 -0.0158844 C4.79695645 -0.02229471 6.76629927 -0.02098044 8.7355957 -0.01245117 C11.74044332 -0.00394436 14.74338705 -0.03271116 17.74804688 -0.06445312 C19.66536402 -0.06606544 21.58268451 -0.06548704 23.5 -0.0625 C24.39391953 -0.07373398 25.28783905 -0.08496796 26.20884705 -0.09654236 C31.73747313 -0.03511428 34.94074595 0.72999525 39.31640625 4.43359375 C43.37271023 9.65619232 43.09038169 15.08699517 42.31640625 21.43359375 C40.14401386 26.01975546 37.88301652 28.31315321 33.31640625 30.43359375 C30.08796867 30.88069623 26.88825927 30.87785426 23.6328125 30.8671875 C22.69968735 30.87242935 21.76656219 30.8776712 20.80516052 30.8830719 C18.83585605 30.88948221 16.86651323 30.88816794 14.8972168 30.87963867 C11.89236918 30.87113186 8.88942545 30.89989866 5.88476562 30.93164062 C3.96744848 30.93325294 2.05012799 30.93267454 0.1328125 30.9296875 C-0.76110703 30.94092148 -1.65502655 30.95215546 -2.57603455 30.96372986 C-8.10466063 30.90230178 -11.30793345 30.13719225 -15.68359375 26.43359375 C-19.73989773 21.21099518 -19.45756919 15.78019233 -18.68359375 9.43359375 C-14.59930724 0.81121111 -8.70911081 -0.02853617 0 0 Z " fill="#FFDF3F" transform="translate(18.68359375,240.56640625)"/>
<path d="M0 0 C4.58616171 2.17239239 6.87955946 4.43338973 9 9 C9.44710248 12.22843758 9.44426051 15.42814698 9.43359375 18.68359375 C9.4388356 19.6167189 9.44407745 20.54984406 9.44947815 21.51124573 C9.45588846 23.4805502 9.45457419 25.44989302 9.44604492 27.41918945 C9.43753811 30.42403707 9.46630491 33.4269808 9.49804688 36.43164062 C9.49965919 38.34895777 9.49908079 40.26627826 9.49609375 42.18359375 C9.51294472 43.52447304 9.51294472 43.52447304 9.53013611 44.8924408 C9.46870803 50.42106688 8.7035985 53.6243397 5 58 C-0.22259857 62.05630398 -5.65340142 61.77397544 -12 61 C-16.58616171 58.82760761 -18.87955946 56.56661027 -21 52 C-21.44710248 48.77156242 -21.44426051 45.57185302 -21.43359375 42.31640625 C-21.4388356 41.3832811 -21.44407745 40.45015594 -21.44947815 39.48875427 C-21.45588846 37.5194498 -21.45457419 35.55010698 -21.44604492 33.58081055 C-21.43753811 30.57596293 -21.46630491 27.5730192 -21.49804688 24.56835938 C-21.49965919 22.65104223 -21.49908079 20.73372174 -21.49609375 18.81640625 C-21.50732773 17.92248672 -21.51856171 17.0285672 -21.53013611 16.1075592 C-21.46870803 10.57893312 -20.7035985 7.3756603 -17 3 C-11.77740143 -1.05630398 -6.34659858 -0.77397544 0 0 Z " fill="#FFBE3F" transform="translate(262,0)"/>
<path d="M0 0 C0 29.7 0 59.4 0 90 C-5.67712142 89.0538131 -7.76786885 88.57379964 -12 85 C-16.1594305 78.17540502 -15.45465377 70.67043812 -15.43359375 62.90625 C-15.43816114 61.43086508 -15.44346836 59.95548229 -15.44947815 58.48010254 C-15.45838398 55.39696577 -15.45601461 52.31408839 -15.44604492 49.23095703 C-15.43454863 45.29342689 -15.45478864 41.35679271 -15.48396206 37.41938019 C-15.50236623 34.37545147 -15.50202347 31.33173593 -15.49632454 28.2877655 C-15.49617189 26.836591 -15.50216942 25.38540153 -15.51461601 23.9342804 C-15.6181243 9.89175323 -15.6181243 9.89175323 -11 4 C-7.6289837 1.05036074 -4.51478905 0 0 0 Z " fill="#FFDE40" transform="translate(256,211)"/>
<path d="M0 0 C0 20.13 0 40.26 0 61 C-6.21029673 61 -7.44462468 60.74553082 -12 57 C-15.71345946 52.40670415 -15.45207945 47.95815951 -15.43359375 42.31640625 C-15.4388356 41.3832811 -15.44407745 40.45015594 -15.44947815 39.48875427 C-15.45588846 37.5194498 -15.45457419 35.55010698 -15.44604492 33.58081055 C-15.43753811 30.57596293 -15.46630491 27.5730192 -15.49804688 24.56835938 C-15.49965919 22.65104223 -15.49908079 20.73372174 -15.49609375 18.81640625 C-15.50732773 17.92248672 -15.51856171 17.0285672 -15.53013611 16.1075592 C-15.4686984 10.57806648 -14.70213717 7.37742611 -11 3 C-6.88150105 -0.25144654 -5.67158558 0 0 0 Z " fill="#FFDF3F" transform="translate(256,0)"/>
<path d="M0 0 C3.5677811 2.35149209 5.84221079 4.99692157 7.75 8.8125 C8.34106487 14.49581608 8.02243416 18.96027003 4.75 23.8125 C0.41625948 27.82120998 -3.08000911 29.25155428 -9.0546875 29.15234375 C-13.14536157 28.51908993 -16.2222816 26.57572806 -19.25 23.8125 C-22.03537223 19.11218437 -22.92790686 15.23575487 -22.25 9.8125 C-20.52041524 4.92230498 -17.82308574 1.77747514 -13.17578125 -0.53125 C-8.56339171 -2.10301763 -4.58443247 -1.67508109 0 0 Z " fill="#FEBC3F" transform="translate(263.25,332.1875)"/>
<path d="M0 0 C0 9.9 0 19.8 0 30 C-5.67712142 29.0538131 -7.76786885 28.57379964 -12 25 C-14.68705259 20.25287376 -15.67801883 16.42415066 -15 11 C-13.4875308 6.72367341 -11.37995235 3.93219133 -7.5 1.5625 C-4 0 -4 0 0 0 Z " fill="#FFDC40" transform="translate(256,331)"/>
</svg>
