<?xml version="1.0" encoding="UTF-8"?>
<svg version="1.1" xmlns="http://www.w3.org/2000/svg" width="512" height="512">
<path d="M0 0 C2.19086786 1.68556061 4.31798342 3.42064423 6.43359375 5.19921875 C7.26375 5.83988281 8.09390625 6.48054688 8.94921875 7.140625 C21.56751854 17.59635454 30.13195752 35.54421575 31.66845703 51.66308594 C32.47407459 63.71368841 31.5475835 74.13350234 26.43359375 85.19921875 C26.13839844 85.84745605 25.84320313 86.49569336 25.5390625 87.16357422 C17.77403714 103.78408374 6.77026311 118.78505444 -5.27734375 132.54296875 C-7.94112547 135.63404651 -10.28682467 138.81914952 -12.56640625 142.19921875 C-11.91414063 142.55113281 -11.261875 142.90304687 -10.58984375 143.265625 C-3.34623397 147.35751666 2.58504352 151.2726985 4.99609375 159.57421875 C5.95999203 165.47809574 4.50642665 170.25266268 1.08984375 175.109375 C-7.19156101 184.34476511 -20.1544317 188.56185068 -32.22705078 189.37939453 C-50.6459271 190.23373643 -67.99973824 189.28929085 -82.50390625 176.63671875 C-86.57408297 171.8265099 -88.7097347 167.63705479 -88.56640625 161.19921875 C-87.5989797 154.64363096 -83.81291332 151.01504326 -78.86328125 146.8984375 C-76.17504058 144.90968803 -73.6534107 143.46568211 -70.56640625 142.19921875 C-74.03293906 137.42102487 -77.66230169 132.94059955 -81.56640625 128.51171875 C-100.34801827 106.73655242 -116.51526751 81.182079 -114.79394531 51.70849609 C-113.46391071 37.04101152 -106.90711603 24.32762418 -97.56640625 13.19921875 C-96.84453125 12.20921875 -96.12265625 11.21921875 -95.37890625 10.19921875 C-72.6398122 -16.55265661 -27.9151699 -19.58735666 0 0 Z " fill="#F35666" transform="translate(142.56640625,316.80078125)"/>
<path d="M0 0 C1.10167401 -0.00467997 2.20334802 -0.00935994 3.33840609 -0.01418173 C7.00099793 -0.02607307 10.66321156 -0.01669748 14.32580566 -0.00723267 C16.96293213 -0.01130078 19.6000332 -0.01653603 22.2371521 -0.02316284 C28.63689905 -0.03645424 35.03654005 -0.03364409 41.43629104 -0.02492492 C46.63576391 -0.01813534 51.83520719 -0.01723713 57.03468323 -0.02049637 C57.77612348 -0.02095607 58.51756374 -0.02141577 59.28147188 -0.0218894 C60.78783382 -0.0228486 62.29419575 -0.02382124 63.80055767 -0.02480717 C77.89958471 -0.03334635 91.99855306 -0.02354761 106.09757048 -0.00740607 C118.1980922 0.00601802 130.29852765 0.003649 142.39904785 -0.01016235 C156.46182884 -0.02620595 170.52455864 -0.03254588 184.58734751 -0.02332556 C186.08556015 -0.02236992 187.58377281 -0.02142681 189.08198547 -0.02049637 C190.1876573 -0.01980213 190.1876573 -0.01980213 191.31566593 -0.01909386 C196.51365368 -0.01650196 201.71160896 -0.02087881 206.90959167 -0.02793503 C213.89625149 -0.03721142 220.88274497 -0.03063761 227.86938858 -0.01325226 C230.43855136 -0.00927261 233.00772783 -0.01044652 235.57688522 -0.01704025 C239.07211594 -0.02518667 242.56681525 -0.01501791 246.06201172 0 C247.08854402 -0.00669217 248.11507632 -0.01338433 249.17271566 -0.02027929 C250.10545514 -0.01245605 251.03819461 -0.0046328 251.99919891 0.00342751 C252.80621734 0.00391456 253.61323577 0.00440162 254.4447093 0.00490344 C257.05013103 0.47631424 257.93415498 1.29662808 259.52307129 3.38095093 C259.96057129 5.88095093 259.96057129 5.88095093 259.52307129 8.38095093 C256.68231986 11.05035946 254.74809275 11.75583279 250.88897514 11.75453854 C249.49117941 11.76502315 249.49117941 11.76502315 248.06514537 11.77571958 C246.53452943 11.7643555 246.53452943 11.7643555 244.97299194 11.75276184 C243.34298616 11.75849869 243.34298616 11.75849869 241.68005097 11.76435143 C238.02586987 11.77366326 234.37206501 11.7616277 230.71789551 11.74984741 C228.10302065 11.75231443 225.48814678 11.75615183 222.87327576 11.76126099 C217.23498764 11.77042223 211.5967809 11.76908487 205.95849228 11.76107597 C197.79557184 11.74984617 189.63276735 11.75888445 181.46985699 11.77363778 C168.21188094 11.7974193 154.95391919 11.81077629 141.69592285 11.81478882 C140.5055093 11.81515612 140.5055093 11.81515612 139.29104699 11.81553084 C130.44323759 11.81807504 121.5954293 11.8186445 112.74761963 11.81759644 C109.54256185 11.81726343 106.33750407 11.81697803 103.13244629 11.81674194 C102.3416234 11.81667916 101.5508005 11.81661637 100.73601328 11.81655168 C87.53500236 11.81594621 74.33405736 11.8308559 61.13307393 11.857575 C52.99475873 11.87336053 44.85665667 11.87565867 36.71833928 11.86044098 C30.47554486 11.84983358 24.23293597 11.85969431 17.99015999 11.8769989 C15.4336166 11.88072363 12.8770526 11.87762146 10.32052803 11.86712837 C6.82506048 11.85373955 3.33048454 11.86498409 -0.16494751 11.88215637 C-1.17197381 11.8723496 -2.17900011 11.86254282 -3.21654236 11.85243887 C-13.31374392 11.95471514 -21.15655244 15.16378624 -28.49645996 22.08798218 C-36.22023035 31.03049345 -37.26874362 41.03160397 -36.47692871 52.38095093 C-34.83294781 60.14012194 -30.42939582 66.23972295 -24.47692871 71.38095093 C-18.17359541 75.29368671 -12.48415648 77.46216996 -5.05895996 77.69735718 C-3.80534668 77.73925171 -2.5517334 77.78114624 -1.26013184 77.8243103 C0.0502002 77.86362671 1.36053223 77.90294312 2.71057129 77.94345093 C4.04587107 77.98666085 5.38115781 78.03027593 6.71643066 78.0743103 C9.98520426 78.18051594 13.25405462 78.2825609 16.52307129 78.38095093 C16.66100098 77.59921509 16.79893066 76.81747925 16.94104004 76.01205444 C18.10526008 70.74913526 22.23119838 66.92753434 26.60119629 63.97860718 C33.22070903 60.63313401 40.15372632 59.95808066 47.23400879 62.26376343 C52.76518533 64.77189453 57.45106532 68.03044606 60.52307129 73.38095093 C60.88269639 75.04214287 61.21885879 76.70872378 61.52307129 78.38095093 C62.73252254 78.37910734 63.94197378 78.37726376 65.18807507 78.3753643 C93.9375152 78.3319913 122.68695476 78.29904126 151.43642006 78.27882027 C154.97970816 78.27631904 158.52299619 78.27373038 162.06628418 78.27108765 C162.77164985 78.27056303 163.47701551 78.2700384 164.20375589 78.26949789 C175.60517024 78.2608098 187.0065643 78.24504866 198.40796664 78.22664534 C210.11834665 78.20790178 221.82871608 78.19682481 233.53911048 78.19277394 C240.1118095 78.19017105 246.68446257 78.18407106 253.25714684 78.16949081 C259.44995803 78.1558652 265.64270457 78.15173835 271.83552933 78.15473557 C274.10216562 78.15418763 276.36880419 78.15024 278.63542747 78.14253998 C299.09340298 78.07647998 317.85164754 78.3080885 333.52307129 93.38095093 C344.28741793 105.02831038 348.27196096 117.6882533 347.83557129 133.31063843 C347.13536156 145.69851552 341.13608636 157.57218551 332.52307129 166.38095093 C323.36635359 173.92974223 312.45465161 179.53711158 300.44104004 179.47518921 C299.21296631 179.47254059 297.98489258 179.46989197 296.71960449 179.46716309 C296.06642242 179.46411289 295.41324036 179.4610627 294.74026489 179.45792007 C291.26937548 179.44653684 287.79861416 179.46707883 284.32775879 179.48251343 C279.91638178 179.50081881 275.50570725 179.50942049 271.09436035 179.4805603 C267.5230672 179.45803354 263.95329418 179.46942615 260.3821106 179.50356674 C259.02337084 179.51033653 257.66450912 179.5046536 256.30587769 179.48620987 C249.05894855 179.03818016 249.05894855 179.03818016 242.84002686 181.93063354 C241.56928437 184.02103531 241.56928437 184.02103531 240.52307129 187.38095093 C235.40249357 193.28180715 229.29847214 195.95469599 221.64807129 196.81845093 C213.9588998 196.42645395 208.1079033 193.47222884 202.96057129 187.81845093 C200.80244706 185.24346568 199.59164454 183.58667068 198.52307129 180.38095093 C191.28123768 180.31099915 184.03947862 180.25791296 176.79737377 180.22551441 C173.43343741 180.20995346 170.06973461 180.18889409 166.70593262 180.15463257 C162.82590727 180.1179811 158.94620776 180.10116285 155.06604004 180.08798218 C153.87600876 180.07249832 152.68597748 180.05701447 151.45988464 180.0410614 C140.21263438 180.03882652 130.22976817 181.84533024 121.52307129 189.38095093 C114.28915603 197.16888596 111.06863057 205.98294245 111.25744629 216.57235718 C112.23569161 226.91586282 116.64284839 234.68950193 124.52307129 241.38095093 C131.33774461 245.71121187 137.15115038 247.50182831 145.18737793 247.51898193 C145.85611498 247.52180321 146.52485203 247.52462449 147.21385384 247.52753127 C149.45365685 247.53586083 151.69341032 247.53721414 153.93322754 247.53866577 C155.53994383 247.54333542 157.14665881 247.54847924 158.75337219 247.55406189 C162.21442541 247.56533742 165.67547005 247.57377445 169.13653564 247.58018112 C174.6177896 247.5908765 180.09898215 247.61112756 185.5802002 247.63330078 C201.167411 247.69516654 216.7546187 247.7491589 232.34191895 247.78231812 C240.95008963 247.80071074 249.55815782 247.8297076 258.16625309 247.87032282 C262.71727612 247.8913208 267.26817037 247.90683977 271.81924438 247.9091301 C276.10718425 247.91129045 280.39485634 247.92729995 284.68271446 247.95351982 C286.24829312 247.96066265 287.8139044 247.96283842 289.37949562 247.95941734 C307.06880414 247.92696502 321.15632218 251.47411328 334.23400879 263.90829468 C344.06658135 274.52948654 348.14013649 286.9201411 347.92785645 301.20785522 C347.3492009 315.96022692 341.34307204 328.36866407 330.52307129 338.38095093 C318.12867222 348.09949772 304.65815459 350.53578169 289.32476807 350.52139282 C288.32436816 350.52436394 287.32396824 350.52733507 286.29325318 350.53039622 C282.95546261 350.53903838 279.61770808 350.54058761 276.27990723 350.54208374 C273.88130619 350.54671479 271.48270589 350.55173984 269.08410645 350.55712891 C262.58038808 350.57022023 256.07667659 350.57672752 249.5729475 350.58113956 C245.51109627 350.58390794 241.4492474 350.58814609 237.38739777 350.59264374 C226.13570684 350.60482446 214.88401778 350.61512952 203.6323204 350.61851883 C202.91351047 350.6187384 202.19470054 350.61895796 201.45410849 350.61918418 C200.73362782 350.61940246 200.01314715 350.61962074 199.27083373 350.61984563 C197.8109676 350.62028909 196.35110148 350.62073565 194.89123535 350.6211853 C193.80503023 350.62151745 193.80503023 350.62151745 192.69688156 350.6218563 C180.94391878 350.62581067 169.19101775 350.64328945 157.43807885 350.66654482 C145.36475131 350.69024128 133.29145482 350.70271972 121.21810365 350.70388675 C114.44179298 350.70480391 107.66556304 350.71056752 100.8892746 350.72870636 C94.52317209 350.74512469 88.15722325 350.747373 81.79110718 350.73856735 C79.45134318 350.73779384 77.11157111 350.74218073 74.7718277 350.7520256 C71.58551279 350.76464996 68.39975021 350.75892033 65.21343994 350.7484436 C64.28115688 350.75650001 63.34887382 350.76455641 62.38833976 350.77285695 C56.19020902 350.72497217 56.19020902 350.72497217 52.94086075 349.04938889 C51.52307129 347.38095093 51.52307129 347.38095093 51.14807129 344.31845093 C51.52307129 341.38095093 51.52307129 341.38095093 53.52307129 339.38095093 C55.3489942 339.12959391 55.3489942 339.12959391 57.61154842 339.12761784 C58.47262894 339.12200244 59.33370945 339.11638704 60.22088331 339.11060148 C61.17250949 339.11458258 62.12413566 339.11856367 63.104599 339.12266541 C64.11126761 339.1189897 65.11793622 339.115314 66.15510994 339.11152691 C69.55051938 339.10149466 72.94576672 339.10570815 76.34118652 339.10971069 C78.7669543 339.10532646 81.19272057 339.10002542 83.6184845 339.09387207 C88.85462936 339.08234425 94.09074641 339.07671818 99.32690239 339.07599068 C106.90954499 339.07466586 114.49211364 339.05956004 122.07473017 339.04049551 C134.39205542 339.00962568 146.70938256 338.98547641 159.0267334 338.96762085 C159.76438944 338.96654817 160.50204549 338.96547549 161.26205475 338.9643703 C169.48168802 338.95256421 177.70132205 338.94235848 185.92095947 338.93392944 C188.89599611 338.93085591 191.87103274 338.92776705 194.84606934 338.9246521 C195.58009936 338.92388676 196.31412938 338.92312142 197.07040273 338.92233289 C209.33005456 338.90922999 221.58965321 338.8845568 233.84926564 338.8509087 C241.40699479 338.83066076 248.96461 338.8203235 256.52236647 338.8228979 C262.3242672 338.82405981 268.1260521 338.80985075 273.92791557 338.79008865 C276.3018123 338.78450105 278.67572743 338.78399291 281.0496254 338.78902626 C284.29951472 338.79519267 287.54884957 338.78289006 290.7986908 338.76622009 C291.73024048 338.77243191 292.66179016 338.77864372 293.62156862 338.78504378 C305.36385354 338.67588266 316.04438551 335.32254359 324.78479004 327.30673218 C333.71884446 317.84423091 336.03232473 308.1797745 335.80041504 295.50204468 C335.28992388 284.42616426 329.58437256 276.06428601 321.77307129 268.63095093 C314.63004879 262.61432813 306.0248491 260.26247842 296.85203552 260.24291992 C296.18259291 260.24009864 295.51315029 260.23727736 294.82342154 260.23437059 C292.58128456 260.22604105 290.33919707 260.22468773 288.0970459 260.22323608 C286.48870709 260.21856648 284.88036959 260.21342267 283.27203369 260.20783997 C279.80770428 260.19656481 276.34338345 260.18812764 272.87904167 260.18172073 C267.39386177 260.17102702 261.90874325 260.15077682 256.42359924 260.12860107 C240.82535629 260.06672835 225.22711658 260.01272793 209.62878418 259.97958374 C201.01439711 259.96119918 192.40011261 259.93221309 183.78580099 259.89157903 C179.23089739 259.87056915 174.67612273 259.85506036 170.12116814 259.85277176 C165.83076889 259.85061361 161.54063784 259.83462609 157.25032043 259.80838203 C155.68270919 259.80123118 154.11506531 259.79906743 152.54744148 259.80248451 C136.39084618 259.83205562 123.8331631 257.08232714 111.85510254 245.87704468 C103.13427616 236.54269282 99.09615182 224.64112371 99.31213379 211.96298218 C100.10503638 202.25726711 102.89372878 194.29089886 108.52307129 186.38095093 C109.63682129 184.80313843 109.63682129 184.80313843 110.77307129 183.19345093 C119.25141123 174.52242145 129.32933622 169.27598161 141.55505371 168.92684937 C144.16528227 168.92747501 146.76925542 168.94871433 149.37854004 168.99032593 C150.77528566 168.99780613 152.17204192 169.00349062 153.56880188 169.00747681 C157.20710322 169.02259372 160.84474394 169.06175016 164.48278809 169.10629272 C168.21031768 169.14755086 171.93795626 169.16555231 175.66564941 169.18563843 C182.95175464 169.22826219 190.23731966 169.2963383 197.52307129 169.38095093 C197.64732483 168.76307709 197.77157837 168.14520325 197.89959717 167.50860596 C198.15455963 166.29275314 198.15455963 166.29275314 198.41467285 165.05233765 C198.58017639 164.24883881 198.74567993 163.44533997 198.91619873 162.61749268 C200.47833321 156.86047016 205.66294445 152.67495221 210.39807129 149.38095093 C218.47457232 146.7964706 225.76661054 146.70550384 233.52307129 150.38095093 C239.75357179 154.35558056 243.43356843 159.28763859 245.52307129 166.38095093 C245.52307129 167.37095093 245.52307129 168.36095093 245.52307129 169.38095093 C252.70916516 169.28794243 259.89494523 169.18054979 267.08068848 169.06356812 C269.52074417 169.02549266 271.9608519 168.9906041 274.40100098 168.95907593 C277.92625419 168.91295651 281.45115567 168.85504294 284.97619629 168.79501343 C286.05169739 168.78346222 287.12719849 168.77191101 288.23529053 168.76000977 C302.64180587 168.48481221 314.94337205 166.36903207 325.77307129 156.25985718 C333.50726782 147.95595421 336.03830775 138.55804715 335.94250488 127.40219116 C335.52883348 116.03423412 330.89828101 107.3187762 322.64416504 99.63095093 C313.42047844 92.17746681 303.37886973 90.23505321 291.84843445 90.22273254 C290.86819331 90.21779457 289.88795217 90.21285659 288.87800676 90.20776898 C285.59066994 90.19240071 282.30335265 90.18403513 279.01599121 90.17562866 C276.66060209 90.16604962 274.30521469 90.15603952 271.9498291 90.14562988 C265.55157989 90.11857766 259.1533233 90.09756977 252.75504851 90.0776279 C246.74705203 90.05845121 240.73907616 90.03383617 234.73109797 90.00970567 C222.83209717 89.96206124 210.93308465 89.91878853 199.03405762 89.87826538 C187.47610564 89.83889442 175.91816406 89.79746437 164.36022949 89.75326538 C163.64765117 89.75054111 162.93507284 89.74781684 162.20090123 89.74501001 C158.62606125 89.73133027 155.05122141 89.71761005 151.47638166 89.7038697 C121.8253001 89.5899544 92.1741954 89.48320696 62.52307129 89.38095093 C62.37990479 90.32188599 62.23673828 91.26282104 62.0892334 92.23226929 C61.05110544 98.00576487 57.97400671 102.46975219 53.35900879 106.06845093 C46.68699146 109.89345109 40.07113774 110.42339489 32.52307129 109.38095093 C25.66794788 107.30898437 20.92362329 102.8731838 17.21057129 96.81845093 C15.52307129 93.38095093 15.52307129 93.38095093 15.52307129 89.38095093 C14.39832397 89.41237183 14.39832397 89.41237183 13.25085449 89.44442749 C-21.2067682 90.28117603 -21.2067682 90.28117603 -35.47692871 77.38095093 C-45.49937047 66.68661363 -48.95697581 55.56141796 -48.72692871 41.06845093 C-47.92513241 29.2419555 -42.13767462 18.40439666 -33.47692871 10.38095093 C-23.189743 2.3851477 -12.85729553 -0.08530217 0 0 Z " fill="#2D2E6D" transform="translate(112.4769287109375,135.61904907226563)"/>
<path d="M0 0 C10.57479842 8.57955344 19.19994528 21.27458272 21 35 C23.14611816 57.89751588 12.87701013 75.63391304 -1 93 C-1.9940979 94.19244522 -2.99277841 95.38111906 -4 96.5625 C-6.16813654 98.90891244 -6.16813654 98.90891244 -7 102 C-6.14728516 102.16822266 -6.14728516 102.16822266 -5.27734375 102.33984375 C1.22879298 104.22584222 6.9244278 108.819668 10.1875 114.72265625 C12.19452888 120.34812663 11.98677779 125.86198146 9.5 131.25 C-1.84820167 143.73302183 -15.51731725 147.997368 -32.05859375 148.9609375 C-47.29408196 149.11193342 -63.25994382 146.97896986 -75.2265625 136.76953125 C-79.30669197 132.69838885 -81.73928203 128.65932333 -82.3125 122.8125 C-81.75906356 116.06057549 -79.1050574 111.71916143 -74.125 107.1875 C-70.91657643 104.55587168 -67.81202977 102.62011265 -64 101 C-66.92635802 96.46575296 -69.9006946 92.06004167 -73.3125 87.875 C-84.63772553 73.4610766 -93.5090377 56.76732802 -92 38 C-88.89170705 21.03760131 -81.36592405 7.60471491 -67.125 -2.375 C-46.26006897 -15.56547364 -19.97751573 -14.22267581 0 0 Z " fill="#F4CE01" transform="translate(463,17)"/>
<path d="M0 0 C2.19086786 1.68556061 4.31798342 3.42064423 6.43359375 5.19921875 C7.26375 5.83988281 8.09390625 6.48054688 8.94921875 7.140625 C21.56751854 17.59635454 30.13195752 35.54421575 31.66845703 51.66308594 C32.47407459 63.71368841 31.5475835 74.13350234 26.43359375 85.19921875 C26.13839844 85.84745605 25.84320313 86.49569336 25.5390625 87.16357422 C17.77403714 103.78408374 6.77026311 118.78505444 -5.27734375 132.54296875 C-7.94112547 135.63404651 -10.28682467 138.81914952 -12.56640625 142.19921875 C-11.91414063 142.55113281 -11.261875 142.90304687 -10.58984375 143.265625 C-3.34623397 147.35751666 2.58504352 151.2726985 4.99609375 159.57421875 C5.95999203 165.47809574 4.50642665 170.25266268 1.08984375 175.109375 C-7.19156101 184.34476511 -20.1544317 188.56185068 -32.22705078 189.37939453 C-50.6459271 190.23373643 -67.99973824 189.28929085 -82.50390625 176.63671875 C-86.57408297 171.8265099 -88.7097347 167.63705479 -88.56640625 161.19921875 C-87.5989797 154.64363096 -83.81291332 151.01504326 -78.86328125 146.8984375 C-76.17504058 144.90968803 -73.6534107 143.46568211 -70.56640625 142.19921875 C-74.03293906 137.42102487 -77.66230169 132.94059955 -81.56640625 128.51171875 C-100.34801827 106.73655242 -116.51526751 81.182079 -114.79394531 51.70849609 C-113.46391071 37.04101152 -106.90711603 24.32762418 -97.56640625 13.19921875 C-96.84453125 12.20921875 -96.12265625 11.21921875 -95.37890625 10.19921875 C-72.6398122 -16.55265661 -27.9151699 -19.58735666 0 0 Z M-89.81640625 19.57421875 C-101.00719369 33.48367206 -106.47166851 49.40749 -104.56640625 67.19921875 C-99.83615631 89.22238241 -84.8688375 108.43667285 -70.56640625 125.19921875 C-69.67915327 126.25997005 -68.79246354 127.32119264 -67.90625 128.3828125 C-59.82495495 137.99833838 -51.23984194 147.11828398 -42.56640625 156.19921875 C-35.82612958 152.96409433 -31.30050498 146.99570286 -26.4921875 141.3984375 C-25.14162104 139.85610703 -23.76109385 138.33974375 -22.359375 136.84375 C-15.38269328 129.39369084 -9.20254831 121.46298608 -3.11523438 113.27880859 C-1.69784234 111.37569615 -0.26598086 109.48438827 1.16796875 107.59375 C12.9481319 91.84188618 22.97932033 74.44325068 21.43359375 54.19921875 C21.37429687 53.235 21.315 52.27078125 21.25390625 51.27734375 C19.61671994 36.50273558 10.59154916 22.41763435 -0.34765625 12.73828125 C-27.94911163 -9.12497683 -65.85015921 -6.88202798 -89.81640625 19.57421875 Z " fill="#302E6D" transform="translate(142.56640625,316.80078125)"/>
<path d="M0 0 C10.57479842 8.57955344 19.19994528 21.27458272 21 35 C23.14611816 57.89751588 12.87701013 75.63391304 -1 93 C-1.9940979 94.19244522 -2.99277841 95.38111906 -4 96.5625 C-6.16813654 98.90891244 -6.16813654 98.90891244 -7 102 C-6.14728516 102.16822266 -6.14728516 102.16822266 -5.27734375 102.33984375 C1.22879298 104.22584222 6.9244278 108.819668 10.1875 114.72265625 C12.19452888 120.34812663 11.98677779 125.86198146 9.5 131.25 C-1.84820167 143.73302183 -15.51731725 147.997368 -32.05859375 148.9609375 C-47.29408196 149.11193342 -63.25994382 146.97896986 -75.2265625 136.76953125 C-79.30669197 132.69838885 -81.73928203 128.65932333 -82.3125 122.8125 C-81.75906356 116.06057549 -79.1050574 111.71916143 -74.125 107.1875 C-70.91657643 104.55587168 -67.81202977 102.62011265 -64 101 C-66.92635802 96.46575296 -69.9006946 92.06004167 -73.3125 87.875 C-84.63772553 73.4610766 -93.5090377 56.76732802 -92 38 C-88.89170705 21.03760131 -81.36592405 7.60471491 -67.125 -2.375 C-46.26006897 -15.56547364 -19.97751573 -14.22267581 0 0 Z M-70.3359375 13.87890625 C-79.9136146 26.08707213 -82.59119318 37.84546289 -81 53 C-79.91910785 57.11241756 -78.18671417 60.37325455 -76 64 C-75.14535156 65.62421875 -75.14535156 65.62421875 -74.2734375 67.28125 C-69.48267904 76.31236621 -63.5596304 84.18742999 -57 92 C-56.46117187 92.64179199 -55.92234375 93.28358398 -55.3671875 93.94482422 C-49.19867439 101.24841547 -42.95380456 108.42434795 -36 115 C-31.68151019 113.37666407 -28.96725228 110.0755897 -25.9375 106.75 C-25.08031372 105.81607422 -25.08031372 105.81607422 -24.20581055 104.86328125 C-18.44466707 98.51012455 -13.14453698 91.85683173 -8 85 C-7.34040283 84.13375 -7.34040283 84.13375 -6.66748047 83.25 C4.18782589 68.94127695 12.7800452 54.60789514 11 36 C7.82255353 23.48113364 0.50210895 13.46816636 -10 6 C-30.02185801 -5.43116461 -54.04009137 -3.45956511 -70.3359375 13.87890625 Z " fill="#30306C" transform="translate(463,17)"/>
<path d="M0 0 C7.10212841 4.9872724 12.28457822 10.32624763 14 19 C15.09466751 29.22466032 13.86990936 37.06246367 7.6875 45.3125 C4.58654887 48.41345113 1.89942507 50.01483815 -2 52 C-2.87205078 52.53947266 -2.87205078 52.53947266 -3.76171875 53.08984375 C-9.6996289 55.50438662 -19.26861823 54.91596999 -25.375 53 C-32.48779943 49.69208236 -38.16542289 43.98118203 -41.34375 36.859375 C-44.24641149 28.63516745 -44.15829216 20.56137051 -40.4375 12.625 C-36.34961911 5.30883934 -31.28559663 0.8533988 -23.51953125 -2.30859375 C-15.85386184 -4.41219605 -7.01123027 -3.85556271 0 0 Z " fill="#32326C" transform="translate(442,35)"/>
<path d="M0 0 C6.35569971 3.74174693 11.07282696 9.07549161 13.73046875 15.96875 C15.56820679 23.07849906 15.02659728 29.71630015 11.67578125 36.25390625 C7.12921877 43.59835334 2.46188727 47.46444568 -5.64453125 50.38671875 C-6.63453125 50.88171875 -6.63453125 50.88171875 -7.64453125 51.38671875 C-15.90977445 52.33979972 -22.08211648 50.58770247 -28.84375 45.84375 C-34.81858999 41.01749293 -39.01092693 34.82666439 -39.91796875 27.0390625 C-40.24412361 18.32069231 -37.85449448 12.29072809 -32.33203125 5.57421875 C-22.3613243 -2.54147296 -12.24416276 -5.54783209 0 0 Z " fill="#FAFAFD" transform="translate(113.64453125,351.61328125)"/>
<path d="M0 0 C8.3368272 6.00546667 14.34804128 13.13885848 16.375 23.375 C17.56618154 35.78314104 15.93560584 45.73481585 7.92578125 55.6328125 C1.82342535 62.4883559 -5.72955629 67.12024701 -15.0234375 67.828125 C-23.16173391 68.14752306 -30.66419079 68.04930639 -37.625 63.375 C-38.31722656 62.92769531 -39.00945312 62.48039062 -39.72265625 62.01953125 C-48.07809301 56.19415198 -53.50200548 49.49460719 -55.625 39.375 C-57.19554463 26.89920749 -55.66149685 17.26268922 -47.8671875 7.078125 C-35.36894654 -6.83205113 -15.82310118 -9.75396648 0 0 Z M-40.625 14.375 C-45.70905587 21.74760523 -47.47448436 27.33405929 -46.625 36.375 C-44.66841831 43.74164793 -39.96458558 50.61489594 -33.5 54.7265625 C-26.60564311 58.24978165 -19.89981095 59.8151622 -12.25 57.7265625 C-4.12653552 54.42640505 2.09272315 49.22315438 5.68359375 41.171875 C8.02284584 35.09246279 8.52790106 28.9474423 6.50390625 22.67578125 C2.96036432 15.08911606 -1.67607634 9.43922915 -9.375 5.9375 C-21.14799683 1.83478898 -32.61766185 4.53741313 -40.625 14.375 Z " fill="#32306E" transform="translate(120.625,344.625)"/>
<path d="M0 0 C0.66 0.33 1.32 0.66 2 1 C1.5153125 1.53625 1.030625 2.0725 0.53125 2.625 C-11.91369339 17.17601073 -18.72169517 34.46734824 -17.29296875 53.67578125 C-13.60825788 82.90782085 12.5192808 111.33710126 32.00585938 131.62792969 C35.40733023 135.20116756 38.20682511 138.94913877 41 143 C38.525 145.475 38.525 145.475 36 148 C29.24472458 144.96822062 24.67508154 138.72331306 19.93359375 133.2109375 C17.75404019 130.7187611 15.5022672 128.30161332 13.25 125.875 C7.46930025 119.52498891 2.1760059 112.8483977 -3 106 C-3.43344727 105.42878418 -3.86689453 104.85756836 -4.31347656 104.26904297 C-18.31682311 85.67400015 -29.97953916 65.98640502 -28 42 C-24.9807625 26.00666765 -15.70380656 11.96972645 -3 2 C-2.01 1.34 -1.02 0.68 0 0 Z " fill="#F37784" transform="translate(66,325)"/>
<path d="M0 0 C-1.52757525 3.26794706 -3.4154737 6.14196766 -5.4375 9.125 C-10.04144227 16.30370417 -12.22837134 23.51208474 -13 32 C-13.144375 33.299375 -13.28875 34.59875 -13.4375 35.9375 C-13.04177963 59.24542955 8.81840087 82.0323422 23.703125 97.8046875 C26.96399893 101.40598233 26.96399893 101.40598233 27.125 104.0625 C25.51093535 106.842278 23.34943654 108.83128935 21 111 C11.37107224 106.92368047 4.27794008 96.02506946 -2 88 C-2.76497803 87.03368652 -2.76497803 87.03368652 -3.54541016 86.04785156 C-10.38773953 77.38988204 -16.945751 68.84856519 -22 59 C-22.43054688 58.24460938 -22.86109375 57.48921875 -23.3046875 56.7109375 C-27.77157549 47.7463554 -27.47618397 35.98311733 -25.1171875 26.421875 C-21.13707455 16.14211307 -13.60744486 6.28885524 -3.88671875 0.80859375 C-2 0 -2 0 0 0 Z " fill="#F6D733" transform="translate(408,21)"/>
<path d="M0 0 C2.63434151 1.72971857 4.39900328 3.77733421 6.4453125 6.171875 C11.30107267 11.78587617 11.30107267 11.78587617 17.0703125 16.359375 C22.33564116 16.18674127 24.58554372 14.43276694 28.1328125 10.671875 C28.98746094 9.77339844 29.84210938 8.87492187 30.72265625 7.94921875 C33.26407567 5.14562295 35.72579782 2.3290936 38.0703125 -0.640625 C45.00263681 1.04431494 50.50898842 3.71488689 55.0703125 9.359375 C55.97429442 13.12596631 55.50450322 14.55020138 53.6953125 17.921875 C42.21075245 28.58610933 26.01402325 28.99599189 11.23242188 28.49560547 C1.67990823 27.89371945 -8.47614043 24.49481156 -15.5546875 17.921875 C-17.36387822 14.55020138 -17.83366942 13.12596631 -16.9296875 9.359375 C-13.37129495 5.15563166 -5.99547955 -1.99040212 0 0 Z " fill="#E1E1E4" transform="translate(81.9296875,467.640625)"/>
<path d="M0 0 C1.92529297 1.48461914 1.92529297 1.48461914 3.7421875 3.53515625 C4.41636719 4.26154297 5.09054687 4.98792969 5.78515625 5.73632812 C7.17684942 7.28539968 8.56230259 8.84010038 9.94140625 10.40039062 C14.01017166 14.96886196 14.01017166 14.96886196 19.7890625 16.1875 C22.85286499 15.05441489 24.3612946 14.33263181 26.5 11.9375 C27.36625 11.00744141 27.36625 11.00744141 28.25 10.05859375 C29.45303835 8.64341247 30.61823873 7.19546165 31.75 5.72265625 C33.40390843 3.62204488 34.96891082 1.73963244 37 0 C42.6782882 -0.63092091 46.56068065 2.33244561 51.08203125 5.4296875 C53.57013912 7.46679415 54.86853687 9.16740018 55.375 12.375 C54.84072536 16.11492248 53.75344626 17.37767023 51 20 C37.03389601 28.90668519 20.32823496 29.67757628 4.296875 27.49609375 C-3.11441733 25.83330381 -12.56207013 22.56041807 -17 16 C-17.75 12.6875 -17.75 12.6875 -17 9 C-12.54372431 3.78699825 -7.12708304 -0.74115254 0 0 Z " fill="#E1E1E4" transform="translate(409,127)"/>
<path d="M0 0 C4.33023036 4.01338424 8.91818893 8.38926176 9.8984375 14.453125 C10.01545433 20.9592605 8.63573005 26.05759551 4.13671875 30.9140625 C-0.88164348 35.34889424 -5.50786199 36.91837699 -12.09765625 36.75390625 C-17.5956178 35.86358526 -21.7579063 32.38561697 -25.375 28.3125 C-28.99380762 23.15844066 -29.23456536 17.53835423 -28.4375 11.375 C-26.43285029 5.9699398 -22.8257931 2.02677223 -17.81640625 -0.77734375 C-11.84073013 -2.90660765 -5.69646256 -2.69287321 0 0 Z " fill="#F9F9FC" transform="translate(437.4375,43.625)"/>
<path d="M0 0 C3.46492578 2.49796975 5.21781359 4.94127403 6.6875 8.9375 C7.54493959 14.93957711 6.09074775 18.15455721 2.6875 22.9375 C-1.21110362 26.59982461 -5.60692384 26.44318313 -10.71875 26.28515625 C-14.34046604 25.79971539 -15.96800261 24.72159065 -18.3125 21.9375 C-21.16525218 17.51081558 -21.95529658 14.17170071 -21.3125 8.9375 C-19.93036403 5.33354329 -18.03539624 2.57777953 -15.125 0 C-9.94104781 -1.95838194 -5.23364675 -1.67871688 0 0 Z " fill="#5E94F1" transform="translate(341.3125,295.0625)"/>
<path d="M0 0 C4.28635138 2.26924485 7.60201503 4.7574112 10 9 C10.82107271 14.0018409 10.54786497 17.84105487 8.375 22.4375 C4.73335668 26.36664148 1.32997533 28.12217703 -4 28.4375 C-8.24630623 28.25887909 -10.76068611 26.7873166 -14 24 C-17.33262847 20.22302107 -17.62651513 16.38237568 -17.48828125 11.5078125 C-16.66908407 7.30041579 -14.27790303 4.64638043 -11 2 C-7.20486089 -0.21755187 -4.41040277 -0.45624856 0 0 Z " fill="#5E94F1" transform="translate(155,207)"/>
<path d="M0 0 C2.73516295 1.1491459 4.11948325 2.43584269 5.91064453 4.80273438 C6.51870393 8.37508334 6.24896499 10.17222806 4.53564453 13.36523438 C-3.50680727 20.83322533 -13.44001057 23.18156483 -24.08935547 22.80273438 C-19.57867049 17.42950462 -14.87439913 12.31298301 -9.96435547 7.30273438 C-9.26181641 6.5628125 -8.55927734 5.82289063 -7.83544922 5.06054688 C-7.15353516 4.36703125 -6.47162109 3.67351562 -5.76904297 2.95898438 C-5.15786621 2.32798828 -4.54668945 1.69699219 -3.91699219 1.046875 C-2.08935547 -0.19726562 -2.08935547 -0.19726562 0 0 Z " fill="#F8F8FB" transform="translate(131.08935546875,472.197265625)"/>
<path d="M0 0 C3.08748884 1.37915402 4.68593561 3.51566259 6.875 6.07421875 C10.47540906 10.20494657 14.18520339 13.94616974 18.43359375 17.4140625 C20.28840115 19.0975251 21.68279824 20.90720219 23.125 22.94921875 C13.55856353 23.92097866 3.9420939 21.37360229 -3.625 15.26171875 C-6.17571497 12.64015059 -6.77112791 11.7282594 -7.25 8.13671875 C-6.875 4.94921875 -6.875 4.94921875 -4.625 2.01171875 C-1.875 -0.05078125 -1.875 -0.05078125 0 0 Z " fill="#F8F8FB" transform="translate(71.875,472.05078125)"/>
<path d="M0 0 C3.83979037 1.42656696 5.99368332 2.30415349 8 6 C8.57746228 9.21728983 8.2026898 10.6314731 6.625 13.5 C0.3166563 19.50794639 -8.74762795 23.07934393 -17.4375 23.125 C-18.613125 23.08375 -19.78875 23.0425 -21 23 C-19.48623919 19.43235715 -17.39486871 17.16293713 -14.6484375 14.453125 C-13.79765625 13.60878906 -12.946875 12.76445312 -12.0703125 11.89453125 C-11.18085938 11.02183594 -10.29140625 10.14914063 -9.375 9.25 C-8.4778125 8.36183594 -7.580625 7.47367188 -6.65625 6.55859375 C-4.44192996 4.36783031 -2.22307565 2.18187237 0 0 Z " fill="#F9F9FC" transform="translate(456,131)"/>
<path d="M0 0 C3.17680813 1.42985194 5.10873875 3.88085764 7.33984375 6.46875 C8.30677188 7.56021047 9.27554878 8.65003568 10.24609375 9.73828125 C10.72949219 10.28178223 11.21289062 10.8252832 11.7109375 11.38525391 C14.53748353 14.49043303 17.56041927 17.39866579 20.5703125 20.32421875 C22.15234375 21.96875 22.15234375 21.96875 22.15234375 22.96875 C12.32219194 23.94741556 3.79121747 21.02235813 -4.09765625 15.09375 C-6.58872007 12.7186916 -6.84594646 11.9768715 -7.59765625 8.40625 C-6.71785496 4.37382741 -4.78158367 -0.08087245 0 0 Z " fill="#F9F9FC" transform="translate(398.84765625,131.03125)"/>
</svg>
