<?xml version="1.0" encoding="UTF-8"?>
<svg version="1.1" xmlns="http://www.w3.org/2000/svg" width="512" height="512">
<path d="M0 0 C2.1198433 0.0056486 4.23967858 0.00846379 6.35952759 0.0110817 C26.90876038 0.04796487 47.20245193 0.45946186 67.58584595 3.31805801 C68.90952917 3.49711854 70.23326122 3.67581845 71.55703735 3.85419083 C122.10618129 10.7519002 161.99715664 22.87437544 199.58584595 58.31805801 C200.36959595 59.04766739 201.15334595 59.77727676 201.96084595 60.52899551 C246.50993772 103.3279444 256.86424001 168.62751994 258.693573 227.80281448 C258.74880884 231.37715725 258.77612174 234.95034434 258.78897095 238.52508926 C258.79598526 239.83704773 258.80299957 241.1490062 258.81022644 242.50072098 C258.82961945 246.71067164 258.83466028 250.92056719 258.83584595 255.13055801 C258.8362878 255.84770981 258.83672966 256.5648616 258.83718491 257.30374527 C258.84412648 278.78346315 258.57147759 300.00284254 255.58584595 321.31805801 C255.40671487 322.64710302 255.2280175 323.97620653 255.04971313 325.3053627 C250.9857077 355.22728298 246.12543491 385.54904319 231.58584595 412.31805801 C231.04186157 413.34415176 230.4978772 414.37024551 229.93740845 415.42743301 C222.46200588 428.91962301 212.63390769 440.87577656 201.93496704 451.92206192 C200.71835257 453.18094747 199.52005797 454.45747556 198.3241272 455.73602676 C155.64998043 500.30329649 90.15425688 510.60022749 31.10108948 512.42578506 C27.52674671 512.4810209 23.95355962 512.5083338 20.3788147 512.52118301 C19.06685623 512.52819733 17.75489777 512.53521164 16.40318298 512.54243851 C12.19323232 512.56183151 7.98333677 512.56687235 3.77334595 512.56805801 C3.05619415 512.56849987 2.33904236 512.56894173 1.60015869 512.56939697 C-19.88157172 512.5763392 -41.09596572 512.29262146 -62.41415405 509.31805801 C-63.70869507 509.14645157 -65.00323608 508.97484512 -66.33700562 508.79803848 C-123.55513301 501.15002596 -173.89688934 484.10638108 -210.45516968 436.68744278 C-244.94494478 390.8799212 -253.42992924 330.99491276 -253.61727905 274.73602676 C-253.62010643 274.05974039 -253.62293381 273.38345402 -253.62584686 272.68667412 C-253.64072652 269.09008418 -253.65002013 265.49353301 -253.65438843 261.89691544 C-253.65872089 259.0032288 -253.67242259 256.10984913 -253.69540405 253.21625137 C-253.89940006 226.96088532 -252.39703755 201.01326641 -248.10165405 175.06805801 C-247.8921814 173.77069717 -247.68270874 172.47333633 -247.46688843 171.13666153 C-240.11690294 126.37718679 -226.73378692 92.53311535 -195.41415405 59.31805801 C-194.68454468 58.53430801 -193.9549353 57.75055801 -193.20321655 56.94305801 C-170.22376058 33.02392169 -140.64811341 18.17551202 -108.53915405 11.25555801 C-107.77734833 11.08852371 -107.0155426 10.92148941 -106.23065186 10.74939346 C-94.6253594 8.21783618 -82.98357064 6.13098144 -71.22665405 4.44305801 C-70.55853699 4.34564316 -69.89041992 4.2482283 -69.20205688 4.14786148 C-46.21087322 0.84801317 -23.20467134 -0.06283861 0 0 Z " fill="#FEE4E4" transform="translate(253.41415405273438,-0.3180580139160156)"/>
<path d="M0 0 C4.20314686 3.46090226 8.10836027 7.19618289 12 11 C12.86238281 11.80050781 13.72476563 12.60101563 14.61328125 13.42578125 C35.24725874 33.03287339 49.03976254 61.85923742 50.12890625 90.375 C50.4684212 112.10395677 45.31166747 130.17161318 35 149 C34.33605225 150.21695557 34.33605225 150.21695557 33.65869141 151.45849609 C26.72437774 164.0756574 19.19180275 176.16560781 11 188 C10.51563477 188.70576172 10.03126953 189.41152344 9.53222656 190.13867188 C-0.77043439 205.12811447 -11.83442499 219.5111476 -23.6953125 233.30078125 C-25.85217587 235.82687039 -27.94023967 238.39445064 -30 241 C-29.39865234 241.06469482 -28.79730469 241.12938965 -28.17773438 241.19604492 C-1.34172 244.1499335 28.91401885 247.76325244 52 263 C52.94875 263.61875 53.8975 264.2375 54.875 264.875 C58.85488093 268.85488093 62.21056729 273.23138538 62.6875 279 C62.22410845 285.0716175 58.28231681 288.98969115 53.90234375 292.84765625 C46.96686632 298.11584027 39.16194492 301.18432338 31 304 C30.25991699 304.25668457 29.51983398 304.51336914 28.75732422 304.77783203 C9.47068675 311.32288761 -10.74611258 314.31335153 -31 316 C-32.53466919 316.12918823 -32.53466919 316.12918823 -34.1003418 316.26098633 C-80.38896711 319.76372118 -150.02984417 322.26562324 -188.15234375 290.78515625 C-191.95199138 287.11403793 -193.75226993 283.76507673 -194.5 278.4375 C-193.55212777 271.92087842 -189.38911282 267.87699743 -184.51171875 263.79296875 C-165.54944162 250.25691089 -140.59922005 246.17325944 -118 243.25 C-116.33843036 243.02817591 -114.6769711 242.80552341 -113.015625 242.58203125 C-109.01161798 242.04517944 -105.00630872 241.51938381 -101 241 C-101.80759766 240.06994141 -102.61519531 239.13988281 -103.44726562 238.18164062 C-110.0126222 230.61108281 -116.38145174 222.92698839 -122.48242188 214.97705078 C-123.53508503 213.6056759 -124.59132926 212.2370453 -125.65039062 210.87060547 C-155.61988172 172.13058149 -184.88455626 132.06365402 -181 81 C-179.87494482 73.39313146 -177.66830172 66.19475226 -175 59 C-174.73268066 58.26652344 -174.46536133 57.53304687 -174.18994141 56.77734375 C-162.52463465 25.66985907 -138.32615103 0.75897661 -108.5234375 -13.47265625 C-71.47331763 -29.53318493 -31.96664693 -24.90563079 0 0 Z " fill="#F2484A" transform="translate(322,109)"/>
<path d="M0 0 C2.18672899 1.96276813 3.70232445 3.62867944 5.4375 5.9375 C6.4705668 7.21239112 7.50721308 8.48438764 8.546875 9.75390625 C9.09794922 10.43598145 9.64902344 11.11805664 10.21679688 11.82080078 C13.44227645 15.76256292 16.78367153 19.58687477 20.1875 23.375 C20.8280835 24.13031006 21.46866699 24.88562012 22.12866211 25.66381836 C25.63603558 29.56400915 25.63603558 29.56400915 30.35229492 31.57080078 C33.77568995 31.69320228 36.22447167 31.40173166 39.27734375 29.8203125 C39.82519531 29.26085937 40.37304688 28.70140625 40.9375 28.125 C41.58460938 27.48691406 42.23171875 26.84882813 42.8984375 26.19140625 C43.93871094 25.10666016 43.93871094 25.10666016 45 24 C45.81726563 23.20464844 46.63453125 22.40929687 47.4765625 21.58984375 C53.4929901 15.70974003 59.44377337 9.70675245 64.23046875 2.765625 C67 0 67 0 70.53125 -0.4375 C71.8409375 -0.293125 73.150625 -0.14875 74.5 0 C75.21067627 0.07178467 75.92135254 0.14356934 76.65356445 0.2175293 C78.77504788 0.44315832 80.88585305 0.71438762 83 1 C84.05574219 1.13019531 85.11148438 1.26039063 86.19921875 1.39453125 C89.48241578 1.85374966 92.73567526 2.42146769 96 3 C97.55594814 3.24635562 99.11194111 3.49242826 100.66796875 3.73828125 C117.93554435 6.60274298 136.22240813 11.24678937 151 21 C151.94875 21.61875 152.8975 22.2375 153.875 22.875 C157.85488093 26.85488093 161.21056729 31.23138538 161.6875 37 C161.22410845 43.0716175 157.28231681 46.98969115 152.90234375 50.84765625 C145.96686632 56.11584027 138.16194492 59.18432338 130 62 C129.25991699 62.25668457 128.51983398 62.51336914 127.75732422 62.77783203 C108.47068675 69.32288761 88.25388742 72.31335153 68 74 C66.97688721 74.08612549 65.95377441 74.17225098 64.8996582 74.26098633 C18.61103289 77.76372118 -51.02984417 80.26562324 -89.15234375 48.78515625 C-92.95199138 45.11403793 -94.75226993 41.76507673 -95.5 36.4375 C-94.55212777 29.92087842 -90.38911282 25.87699743 -85.51171875 21.79296875 C-76.06254056 15.04775446 -65.03854204 11.25466291 -54 8 C-52.87335938 7.65195312 -51.74671875 7.30390625 -50.5859375 6.9453125 C-41.17655748 4.30084622 -31.61196021 3.0004814 -21.9375 1.75 C-20.91064087 1.61644608 -20.91064087 1.61644608 -19.86303711 1.48019409 C-5.63519621 -0.34774154 -5.63519621 -0.34774154 0 0 Z " fill="#3F3F5B" transform="translate(223,351)"/>
<path d="M0 0 C0.61875 0.35707031 1.2375 0.71414062 1.875 1.08203125 C3.30163264 1.97724323 4.65654532 2.98421719 6 4 C6.804375 4.53625 7.60875 5.0725 8.4375 5.625 C16.68310764 13.26727049 22.70350668 23.80368191 23.4453125 35.08203125 C23.76247287 44.20505587 23.90403026 52.99868748 19 61 C18.55269531 61.77214844 18.10539062 62.54429687 17.64453125 63.33984375 C16.20266937 65.66305821 14.66213052 67.82988338 13 70 C12.54496094 70.60585937 12.08992188 71.21171875 11.62109375 71.8359375 C5.6010507 78.7833501 -5.81871301 84.90175993 -15 86 C-28.71264306 86.97604577 -40.05311399 84.68979611 -51 76 C-53.75 73.5 -53.75 73.5 -56 71 C-56.845625 70.071875 -57.69125 69.14375 -58.5625 68.1875 C-61.36181191 64.77198736 -63.1987393 61.01114074 -65 57 C-65.391875 56.13375 -65.78375 55.2675 -66.1875 54.375 C-69.93900149 43.40907256 -68.68794905 30.61523404 -63.67578125 20.265625 C-58.32085137 10.98936851 -52.17557971 4.57433714 -43 -1 C-42.29746094 -1.43828125 -41.59492188 -1.8765625 -40.87109375 -2.328125 C-28.86617404 -8.42722553 -11.27429787 -6.64650331 0 0 Z " fill="#FEF2F2" transform="translate(278,163)"/>
</svg>
