<?xml version="1.0" encoding="UTF-8"?>
<svg version="1.1" xmlns="http://www.w3.org/2000/svg" width="512" height="512">
<path d="M0 0 C1.61261808 -0.0059959 3.22523331 -0.01280386 4.83784485 -0.02035522 C9.18684821 -0.03790571 13.53577271 -0.0427057 17.88480806 -0.0439868 C20.60681114 -0.04541419 23.32879453 -0.04969467 26.05079269 -0.05498123 C35.56007905 -0.07343903 45.0693096 -0.08165642 54.57861328 -0.08007812 C63.42367311 -0.07887504 72.26848961 -0.10002098 81.11348784 -0.13156545 C88.72823624 -0.15774887 96.34290518 -0.16844469 103.95769823 -0.16716731 C108.49684575 -0.16665866 113.03577628 -0.17228888 117.57487869 -0.19352341 C121.84158133 -0.21294302 126.10786056 -0.21300506 130.37457848 -0.19849014 C131.93499435 -0.19640617 133.49543702 -0.20107831 135.05580711 -0.21321106 C144.82264678 -0.28420502 152.77510443 0.10914543 160.49755859 6.60302734 C161.24005859 7.48990234 161.98255859 8.37677734 162.74755859 9.29052734 C163.18970703 9.81646484 163.63185547 10.34240234 164.08740234 10.88427734 C168.65658046 16.71163494 170.02490614 22.35365586 169.68505859 29.66552734 C168.60128056 38.55743349 164.81431343 44.99379127 158.10302734 50.81787109 C150.13015395 55.80256972 142.56449031 55.71895972 133.41210938 55.67529297 C131.96904065 55.67940377 130.52597525 55.68486765 129.08291626 55.6915741 C125.98801559 55.70325551 122.89329305 55.70579908 119.79837418 55.70121765 C114.89697511 55.69437864 109.99580818 55.71032654 105.0944519 55.72961426 C94.68716657 55.76739566 84.27990198 55.7802553 73.87255859 55.79052734 C62.64163127 55.80161762 51.41081186 55.81707828 40.17995822 55.86123991 C35.31545209 55.87951825 30.45121375 55.88351656 25.5866816 55.87630463 C22.55096571 55.87477467 19.51538184 55.88561736 16.479702 55.899683 C15.08097585 55.90366001 13.68222408 55.90260485 12.2835083 55.89591026 C0.45513645 55.84368208 -9.36658556 56.92009237 -18.25244141 65.29052734 C-25.78513716 74.04474133 -25.68917614 85.79342404 -25.63339233 96.75073242 C-25.63685525 98.18782054 -25.64162406 99.624906 -25.64757407 101.06198597 C-25.66002669 104.98371742 -25.65394006 108.90522814 -25.64461541 112.82696009 C-25.63780158 117.06697698 -25.64831768 121.30695707 -25.65655518 125.54696655 C-25.66986988 133.84238307 -25.66702487 142.13771799 -25.65831725 150.43313766 C-25.6515322 157.17716244 -25.65062754 163.92116442 -25.6538887 170.66519165 C-25.6543484 171.62635102 -25.6548081 172.58751039 -25.65528173 173.5777958 C-25.65624094 175.53059189 -25.65721358 177.48338797 -25.6581995 179.43618405 C-25.66674677 197.73210668 -25.65692968 216.02798416 -25.6407984 234.32389939 C-25.62739583 250.01038912 -25.62972411 265.69681225 -25.64355469 281.38330078 C-25.65962222 299.61536473 -25.66592286 317.84738915 -25.6567179 336.07945919 C-25.65576229 338.02492713 -25.65481917 339.97039508 -25.6538887 341.91586304 C-25.65342588 342.87298071 -25.65296305 343.83009839 -25.6524862 344.81621963 C-25.64989983 351.54933392 -25.65425968 358.28242305 -25.66132736 365.01553345 C-25.6697556 373.22496914 -25.66743442 381.43431882 -25.65148513 389.64374471 C-25.64362022 393.82943278 -25.64048034 398.01497762 -25.65043259 402.20066452 C-25.65941703 406.03744466 -25.65438543 409.87394973 -25.63849993 413.71070516 C-25.63359787 415.74502784 -25.64331496 417.77936984 -25.65367162 419.81367207 C-25.58319985 430.86954704 -24.40335781 441.17649292 -16.25244141 449.29052734 C-7.05826869 456.89414698 3.81716163 456.57972773 15.1965332 456.5300293 C16.63974608 456.53114407 18.08295849 456.53320483 19.52616882 456.53613281 C22.61829608 456.54083201 25.71034723 456.53975912 28.80247307 456.53435707 C33.699715 456.52670717 38.5968124 456.53744746 43.49403381 456.55155945 C57.4144043 456.58918616 71.3347078 456.60749345 85.25512695 456.59594727 C92.95545869 456.58971792 100.65555532 456.60137343 108.3558293 456.63239259 C113.21630122 456.65097218 118.07610319 456.64780124 122.93656337 456.62822497 C125.96908697 456.62130854 129.00125286 456.63536729 132.03370857 456.65517426 C133.43082402 456.66019066 134.8280011 456.65681705 136.22506714 456.64404106 C145.80061831 456.56275438 153.67574712 457.5264242 160.88348293 464.29686451 C167.63691036 471.53606536 169.94686858 478.4122263 169.74755859 488.29052734 C168.4443047 496.49404517 164.94249799 503.06647292 158.31005859 508.10302734 C153.2368487 511.68483577 147.99506182 512.54070726 141.88311768 512.55795288 C141.21690517 512.56248399 140.55069267 512.56701511 139.86429191 512.57168353 C137.64464506 512.58428514 135.42524494 512.58270987 133.20556641 512.58105469 C131.60828844 512.58704313 130.01101336 512.5938494 128.41374207 512.60140991 C124.08036682 512.61905816 119.74707062 512.62376517 115.41366291 512.62504148 C112.69881946 512.62646582 109.98399591 512.63074107 107.26915741 512.63603592 C97.77545403 512.65454165 88.28180675 512.66270701 78.78808594 512.66113281 C69.97795847 512.65993554 61.16807762 512.6809547 52.35801244 512.71262014 C44.76785243 512.73891554 37.17777221 512.74949439 29.58756709 512.74822199 C25.06650167 512.74771566 20.54565485 512.75321265 16.02463531 512.77457809 C11.7596133 512.79418183 7.49501311 512.79393669 3.22997475 512.77954483 C1.67979364 512.77748178 0.1295846 512.7820045 -1.42054939 512.79426575 C-15.40385615 512.8975432 -30.38397424 511.39492304 -42.81494141 504.47802734 C-43.79430664 503.95982422 -43.79430664 503.95982422 -44.79345703 503.43115234 C-50.05765768 500.57119856 -54.80490667 497.31747026 -59.25244141 493.29052734 C-59.92404297 492.71044922 -60.59564453 492.13037109 -61.28759766 491.53271484 C-72.61021298 481.10456432 -80.73791163 464.71297422 -81.38124257 449.1808421 C-81.38392543 447.41505196 -81.38392543 447.41505196 -81.38666248 445.61358929 C-81.38901471 444.9524595 -81.39136694 444.29132971 -81.39379045 443.61016569 C-81.40045622 441.39111012 -81.40002296 439.17211343 -81.39961243 436.95304871 C-81.40291258 435.34733867 -81.40663847 433.74162946 -81.41075391 432.1359213 C-81.42076515 427.72009125 -81.42448931 423.30427479 -81.42714322 418.88843501 C-81.43104898 414.12674866 -81.44062727 409.36507304 -81.44935608 404.60339355 C-81.46911494 393.10066572 -81.47918691 381.59793702 -81.48808387 370.09519646 C-81.49246855 364.67546133 -81.49783497 359.25572717 -81.50307274 353.83599281 C-81.52008601 335.81354952 -81.53457879 317.79110682 -81.54182148 299.76865673 C-81.54373132 295.09210904 -81.54565165 290.41556135 -81.54760742 285.73901367 C-81.54809116 284.57670777 -81.5485749 283.41440187 -81.5490733 282.21687458 C-81.55736835 263.40067923 -81.58269597 244.58454757 -81.6151881 225.76838001 C-81.6482912 206.44041108 -81.66627326 187.11247447 -81.66946572 167.78447706 C-81.67162803 156.93660713 -81.68033556 146.08883002 -81.7059269 135.24098778 C-81.72767847 125.99949264 -81.73566249 116.75811286 -81.72596011 107.51659503 C-81.72142805 102.80574305 -81.72323761 98.09512884 -81.74272156 93.38430977 C-81.76044503 89.06156597 -81.75928179 84.73923178 -81.74382427 80.41648308 C-81.74146201 78.86251732 -81.74569896 77.30852249 -81.75765292 75.7546009 C-81.90231168 55.68778342 -76.7726596 37.11582722 -62.44384766 22.42333984 C-61.72068359 21.71951172 -60.99751953 21.01568359 -60.25244141 20.29052734 C-59.36878906 19.35853516 -59.36878906 19.35853516 -58.46728516 18.40771484 C-43.09370269 3.33822522 -20.46170124 -0.01530252 0 0 Z " fill="#F64650" transform="translate(81.25244140625,-0.29052734375)"/>
<path d="M0 0 C7.25029315 5.19665832 13.37454118 11.62802771 19.66273785 17.91391373 C20.98545061 19.22899527 22.30856124 20.54367675 23.63203716 21.85799026 C27.2090556 25.41315826 30.77956746 28.97478999 34.34822345 32.53835011 C36.58121077 34.76768416 38.81548838 36.99571686 41.05019855 39.22332382 C48.8549757 47.0036442 56.65404915 54.78963514 64.44838238 62.58041763 C71.70067116 69.82906895 78.96599581 77.06447305 86.23735684 84.29398751 C92.49272638 90.51462263 98.73839868 96.74488499 104.97677356 102.98256278 C108.69719764 106.70219547 112.42145662 110.41777742 116.15572453 114.12351608 C119.6675768 117.60913245 123.16717333 121.10661048 126.65791607 124.61336327 C127.93666055 125.89391749 129.21964274 127.17025697 130.50726032 128.44188881 C140.49978902 138.31793317 147.63591617 146.8539603 147.7538023 161.56137466 C147.73641472 181.06637902 134.38569809 191.20229089 121.46107769 204.17197037 C120.17532905 205.4656397 118.88975563 206.75948321 117.60434246 208.05348587 C113.41956904 212.26422004 109.22957601 216.46973901 105.03895855 220.67465591 C103.58888992 222.13009216 102.13882624 223.58553335 100.68876743 225.04097939 C94.6574498 231.09387445 88.62471296 237.14534911 82.58825302 243.19311619 C73.96873638 251.82889399 65.35784614 260.47307402 56.7586661 269.12910396 C50.69072635 275.23577862 44.61319926 281.33280601 38.52850431 287.42278546 C34.902549 291.05238497 31.28085502 294.68600521 27.66937733 298.33001518 C24.27474387 301.75479689 20.86833892 305.16742156 17.45272923 308.57127953 C16.20602221 309.81776648 14.96354033 311.06849691 13.72578716 312.32387543 C4.66188386 321.50972071 -3.7484734 328.88747919 -17.2461977 329.31137466 C-25.5692123 329.21214349 -32.78279043 325.91230354 -38.5586977 319.99887466 C-43.47772558 312.97621107 -44.32355664 306.40139645 -43.5586977 297.99887466 C-40.86683514 286.17738185 -32.94768924 278.06764998 -24.52793598 269.78866959 C-23.37301403 268.64053787 -23.37301403 268.64053787 -22.19476032 267.46921158 C-20.53827582 265.82360849 -18.87951382 264.1802953 -17.21867466 262.5390873 C-14.59147916 259.942246 -11.97118228 257.33861908 -9.3526125 254.73308182 C-2.85618329 248.27124108 3.64907051 241.81831225 10.15925884 235.37033463 C15.67843914 229.90372473 21.19188388 224.43147574 26.69661617 218.95031548 C28.43451207 217.22300021 30.17531747 215.49860723 31.91905117 213.77718544 C34.34843817 211.37886633 36.76859504 208.97158479 39.18690777 206.56210709 C39.91102352 205.85191925 40.63513927 205.14173141 41.38119793 204.41002274 C42.03717464 203.75281235 42.69315136 203.09560196 43.36900616 202.4184761 C44.22784562 201.56768116 44.22784562 201.56768116 45.10403538 200.69969845 C46.66800832 198.71053508 47.29131138 197.53389263 47.4413023 194.99887466 C46.75396242 192.59195124 46.75396242 192.59195124 44.4413023 190.99887466 C41.20288291 190.3849731 37.98870082 190.46623994 34.70155621 190.50008011 C33.18414632 190.49200328 33.18414632 190.49200328 31.6360817 190.48376328 C28.22976652 190.47043742 24.8241649 190.48566982 21.4178648 190.50058365 C18.98209583 190.49676254 16.54632911 190.49114529 14.11056805 190.48386002 C8.85584492 190.47188234 3.60126538 190.47194418 -1.65345478 190.4824543 C-9.26290287 190.49739011 -16.87216438 190.48748099 -24.48160183 190.47093511 C-36.84275468 190.44445553 -49.20386571 190.43361569 -61.56504536 190.43466568 C-62.30512652 190.434724 -63.04520767 190.43478233 -63.80771554 190.43484242 C-66.80575854 190.43510822 -69.80380154 190.43542549 -72.80184454 190.43580567 C-81.03769069 190.43677035 -89.27353557 190.43544649 -97.50938129 190.43271255 C-98.61451273 190.43235272 -98.61451273 190.43235272 -99.74197006 190.43198561 C-112.0468437 190.42757185 -124.35167863 190.41130702 -136.65652943 190.38749176 C-144.24121441 190.37344967 -151.82575184 190.3705155 -159.41044182 190.38211466 C-165.23214025 190.39033448 -171.05374581 190.38355173 -176.87543392 190.37142563 C-179.25740135 190.36902407 -181.63938045 190.37173857 -184.02133465 190.38003349 C-187.2820989 190.39070647 -190.5423347 190.3828632 -193.80308247 190.37068558 C-194.73784098 190.37826163 -195.67259949 190.38583769 -196.63568401 190.39364332 C-206.83465078 190.31331109 -216.08685306 188.2581723 -223.5586977 180.99887466 C-229.20457345 174.81230258 -232.11157085 168.68985693 -231.79697895 160.09653091 C-230.83628722 151.6392939 -227.04754135 145.47881464 -220.5586977 139.99887466 C-211.9058514 134.91608383 -204.26265313 133.85065443 -194.42849445 133.84065628 C-193.39925069 133.8357183 -192.37000692 133.83078033 -191.30957395 133.82569271 C-187.85640263 133.81031913 -184.40324991 133.80195742 -180.95005512 133.7935524 C-178.47644099 133.78397377 -176.00282849 133.7739637 -173.52921772 133.76355362 C-168.20144092 133.74210414 -162.87366666 133.72366018 -157.54587078 133.70794868 C-149.8427924 133.68522736 -142.13974129 133.65708768 -134.43668608 133.62762941 C-121.93871307 133.57998122 -109.4407289 133.53670953 -96.9427309 133.49618912 C-84.80274811 133.45682007 -72.66277523 133.41539047 -60.52280903 133.37118912 C-59.77438676 133.36846485 -59.02596448 133.36574057 -58.25486275 133.36293375 C-54.50021391 133.34925404 -50.74556522 133.33553381 -46.99091661 133.32179344 C-15.84686411 133.20787224 15.29720919 133.10112616 46.4413023 132.99887466 C47.58047677 128.84485264 47.58047677 128.84485264 46.27756882 124.93455696 C45.68554389 124.33138208 45.09351896 123.72820721 44.48355389 123.1067543 C43.83161619 122.42664165 43.1796785 121.74652901 42.50798512 121.04580688 C41.82597979 120.37031925 41.14397446 119.69483162 40.4413023 118.99887466 C39.83191248 118.37183765 39.22252266 117.74480064 38.59466648 117.09876251 C36.67235242 115.13480408 34.72276379 113.20168214 32.76527691 111.27280045 C32.03262112 110.5464238 31.29996532 109.82004715 30.54510784 109.07165909 C28.96767789 107.50798687 27.3891747 105.94539672 25.80969334 104.38379669 C23.30460184 101.90556153 20.80409496 99.42278755 18.30496502 96.93854141 C11.20384395 89.87995729 4.10011325 82.82407355 -3.01987934 75.7845192 C-7.38736204 71.46572048 -11.74487982 67.13708007 -16.09617138 62.80197144 C-17.74822054 61.1597765 -19.40390785 59.52123266 -21.06338406 57.88654327 C-23.38903207 55.59487762 -25.70173938 53.29083436 -28.01206684 50.98373795 C-28.690154 50.32160294 -29.36824116 49.65946793 -30.06687641 48.97726822 C-38.03295876 40.96054266 -43.42479494 32.09009005 -43.9336977 20.62387466 C-43.76290681 12.32343748 -40.36085627 5.80103323 -34.5586977 -0.00112534 C-24.09159625 -7.35638581 -10.70768105 -6.87736357 0 0 Z " fill="#F64650" transform="translate(364.5586977005005,94.00112533569336)"/>
<path d="M0 0 C1.61261808 -0.0059959 3.22523331 -0.01280386 4.83784485 -0.02035522 C9.18684821 -0.03790571 13.53577271 -0.0427057 17.88480806 -0.0439868 C20.60681114 -0.04541419 23.32879453 -0.04969467 26.05079269 -0.05498123 C35.56007905 -0.07343903 45.0693096 -0.08165642 54.57861328 -0.08007812 C63.42367311 -0.07887504 72.26848961 -0.10002098 81.11348784 -0.13156545 C88.72823624 -0.15774887 96.34290518 -0.16844469 103.95769823 -0.16716731 C108.49684575 -0.16665866 113.03577628 -0.17228888 117.57487869 -0.19352341 C121.84158133 -0.21294302 126.10786056 -0.21300506 130.37457848 -0.19849014 C131.93499435 -0.19640617 133.49543702 -0.20107831 135.05580711 -0.21321106 C144.82264678 -0.28420502 152.77510443 0.10914543 160.49755859 6.60302734 C161.24005859 7.48990234 161.98255859 8.37677734 162.74755859 9.29052734 C163.18970703 9.81646484 163.63185547 10.34240234 164.08740234 10.88427734 C168.65658046 16.71163494 170.02490614 22.35365586 169.68505859 29.66552734 C168.60128056 38.55743349 164.81431343 44.99379127 158.10302734 50.81787109 C150.13015395 55.80256972 142.56449031 55.71895972 133.41210938 55.67529297 C131.96904065 55.67940377 130.52597525 55.68486765 129.08291626 55.6915741 C125.98801559 55.70325551 122.89329305 55.70579908 119.79837418 55.70121765 C114.89697511 55.69437864 109.99580818 55.71032654 105.0944519 55.72961426 C94.68716657 55.76739566 84.27990198 55.7802553 73.87255859 55.79052734 C62.64163127 55.80161762 51.41081186 55.81707828 40.17995822 55.86123991 C35.31545209 55.87951825 30.45121375 55.88351656 25.5866816 55.87630463 C22.55096571 55.87477467 19.51538184 55.88561736 16.479702 55.899683 C15.08097585 55.90366001 13.68222408 55.90260485 12.2835083 55.89591026 C0.45513645 55.84368208 -9.36658556 56.92009237 -18.25244141 65.29052734 C-26.40634132 74.7666813 -25.69742023 87.73382005 -25.68481445 99.51196289 C-25.69384609 101.22785644 -25.70417672 102.94374356 -25.71569824 104.65962219 C-25.74312985 109.28693976 -25.75253384 113.91413444 -25.75855231 118.54152274 C-25.76797221 123.38888087 -25.79417839 128.2361485 -25.81855774 133.08345032 C-25.86212729 142.24871826 -25.89073278 151.41396854 -25.91388112 160.57930833 C-25.9409841 171.01956226 -25.98489238 181.45972473 -26.03016984 191.89991319 C-26.12287941 213.36341483 -26.1924047 234.82690773 -26.25244141 256.29052734 C-44.40244141 256.29052734 -62.55244141 256.29052734 -81.25244141 256.29052734 C-81.34290369 231.14201241 -81.41651756 205.99363019 -81.45969009 180.84499359 C-81.48027295 169.16678522 -81.50831145 157.48868549 -81.55419922 145.81054688 C-81.59419826 135.62615364 -81.61990527 125.44183913 -81.62879539 115.25736952 C-81.63398806 109.86995155 -81.64610281 104.48275869 -81.67536163 99.09541321 C-81.7027376 94.01303647 -81.71084205 88.93097519 -81.70487213 83.84853172 C-81.70596253 81.99434374 -81.71378311 80.14014396 -81.72926331 78.28602028 C-81.89642866 57.21026971 -77.61258076 37.97706617 -62.44384766 22.42333984 C-61.72068359 21.71951172 -60.99751953 21.01568359 -60.25244141 20.29052734 C-59.36878906 19.35853516 -59.36878906 19.35853516 -58.46728516 18.40771484 C-43.09370269 3.33822522 -20.46170124 -0.01530252 0 0 Z " fill="#F66069" transform="translate(81.25244140625,-0.29052734375)"/>
<path d="M0 0 C7.25029315 5.19665832 13.37454118 11.62802771 19.66273785 17.91391373 C20.98545061 19.22899527 22.30856124 20.54367675 23.63203716 21.85799026 C27.2090556 25.41315826 30.77956746 28.97478999 34.34822345 32.53835011 C36.58121077 34.76768416 38.81548838 36.99571686 41.05019855 39.22332382 C48.8549757 47.0036442 56.65404915 54.78963514 64.44838238 62.58041763 C71.70067116 69.82906895 78.96599581 77.06447305 86.23735684 84.29398751 C92.49272638 90.51462263 98.73839868 96.74488499 104.97677356 102.98256278 C108.69719764 106.70219547 112.42145662 110.41777742 116.15572453 114.12351608 C119.6675768 117.60913245 123.16717333 121.10661048 126.65791607 124.61336327 C127.93666055 125.89391749 129.21964274 127.17025697 130.50726032 128.44188881 C138.14610348 135.99168488 143.98012807 142.61535198 147.4413023 152.99887466 C147.4413023 155.96887466 147.4413023 158.93887466 147.4413023 161.99887466 C22.3713023 161.99887466 -102.6986977 161.99887466 -231.5586977 161.99887466 C-230.32404096 152.12162077 -228.49574546 146.84505361 -220.7774477 140.53793716 C-212.42133253 134.74161784 -204.33067267 133.85072358 -194.42849445 133.84065628 C-193.39925069 133.8357183 -192.37000692 133.83078033 -191.30957395 133.82569271 C-187.85640263 133.81031913 -184.40324991 133.80195742 -180.95005512 133.7935524 C-178.47644099 133.78397377 -176.00282849 133.7739637 -173.52921772 133.76355362 C-168.20144092 133.74210414 -162.87366666 133.72366018 -157.54587078 133.70794868 C-149.8427924 133.68522736 -142.13974129 133.65708768 -134.43668608 133.62762941 C-121.93871307 133.57998122 -109.4407289 133.53670953 -96.9427309 133.49618912 C-84.80274811 133.45682007 -72.66277523 133.41539047 -60.52280903 133.37118912 C-59.77438676 133.36846485 -59.02596448 133.36574057 -58.25486275 133.36293375 C-54.50021391 133.34925404 -50.74556522 133.33553381 -46.99091661 133.32179344 C-15.84686411 133.20787224 15.29720919 133.10112616 46.4413023 132.99887466 C47.58047677 128.84485264 47.58047677 128.84485264 46.27756882 124.93455696 C45.68554389 124.33138208 45.09351896 123.72820721 44.48355389 123.1067543 C43.83161619 122.42664165 43.1796785 121.74652901 42.50798512 121.04580688 C41.82597979 120.37031925 41.14397446 119.69483162 40.4413023 118.99887466 C39.83191248 118.37183765 39.22252266 117.74480064 38.59466648 117.09876251 C36.67235242 115.13480408 34.72276379 113.20168214 32.76527691 111.27280045 C32.03262112 110.5464238 31.29996532 109.82004715 30.54510784 109.07165909 C28.96767789 107.50798687 27.3891747 105.94539672 25.80969334 104.38379669 C23.30460184 101.90556153 20.80409496 99.42278755 18.30496502 96.93854141 C11.20384395 89.87995729 4.10011325 82.82407355 -3.01987934 75.7845192 C-7.38736204 71.46572048 -11.74487982 67.13708007 -16.09617138 62.80197144 C-17.74822054 61.1597765 -19.40390785 59.52123266 -21.06338406 57.88654327 C-23.38903207 55.59487762 -25.70173938 53.29083436 -28.01206684 50.98373795 C-28.690154 50.32160294 -29.36824116 49.65946793 -30.06687641 48.97726822 C-38.03295876 40.96054266 -43.42479494 32.09009005 -43.9336977 20.62387466 C-43.76290681 12.32343748 -40.36085627 5.80103323 -34.5586977 -0.00112534 C-24.09159625 -7.35638581 -10.70768105 -6.87736357 0 0 Z " fill="#F66069" transform="translate(364.5586977005005,94.00112533569336)"/>
</svg>
