<?xml version="1.0" encoding="UTF-8"?>
<svg version="1.1" xmlns="http://www.w3.org/2000/svg" width="512" height="512">
<path d="M0 0 C1.09899561 -0.00551503 1.09899561 -0.00551503 2.22019315 -0.01114148 C4.68206046 -0.02217896 7.14388557 -0.02602226 9.60577393 -0.02983093 C11.36823664 -0.03609552 13.13069802 -0.04274232 14.89315796 -0.04974365 C20.68700236 -0.0707864 26.48084703 -0.08114599 32.27471924 -0.09111023 C34.26903548 -0.09515766 36.26335158 -0.09927457 38.25766754 -0.10346031 C47.62664369 -0.12251217 56.99561196 -0.13674341 66.36460376 -0.14507228 C77.18059297 -0.15484618 87.9963776 -0.18116973 98.81229472 -0.22157317 C107.17163287 -0.25172872 115.53091236 -0.26654061 123.89030385 -0.26985329 C128.88334936 -0.27220436 133.87617633 -0.28117231 138.86916351 -0.30631447 C143.56745254 -0.32959042 148.26537905 -0.33383033 152.96371078 -0.32355309 C154.68622162 -0.3230575 156.40875028 -0.32938456 158.13120651 -0.34310913 C160.48715549 -0.36082806 162.8418034 -0.35372296 165.19775391 -0.34057617 C166.5147868 -0.34296453 167.83181969 -0.34535288 169.18876266 -0.34781361 C174.7222991 0.39971764 178.39080816 2.56971104 182.22784424 6.70967102 C184.86857858 10.67077253 184.96539121 13.68030235 184.91534424 18.33467102 C184.9063208 19.42135071 184.89729736 20.5080304 184.88800049 21.62763977 C184.87059814 22.87480774 184.87059814 22.87480774 184.85284424 24.14717102 C186.68105713 24.11575012 186.68105713 24.11575012 188.54620361 24.08369446 C193.14585225 24.01031164 197.74545128 23.96502058 202.34552002 23.92744446 C204.32184602 23.90754964 206.29811493 23.88042379 208.27423096 23.84541321 C229.78786722 23.47430025 248.43763093 26.49241344 264.74078369 41.8195343 C277.30499498 54.28867421 282.99479182 70.79539509 283.1248332 88.20726212 C283.12984077 90.33568614 283.12514279 92.46396933 283.12026978 94.59239197 C283.12401128 96.14879621 283.12861479 97.70519857 283.13400042 99.26159799 C283.14618418 103.51793134 283.14597543 107.77418581 283.14361167 112.0305326 C283.14320232 116.62921838 283.1542539 121.22787927 283.16372681 125.82655334 C283.18031274 134.828956 283.18583528 143.83133247 283.18695156 152.83374913 C283.18790325 160.15507843 283.19201955 167.47639911 283.19835281 174.79772568 C283.21595921 195.5751837 283.22519271 216.35262108 283.22369187 237.13008662 C283.22361195 238.24931334 283.22353204 239.36854006 283.22344971 240.52168274 C283.22336795 241.64228314 283.22328618 242.76288354 283.22320195 243.91744153 C283.22238938 262.07050524 283.24152133 280.2234859 283.26972644 298.3765256 C283.29848811 317.03569011 283.31226491 335.69481417 283.31053889 354.3540014 C283.30987609 364.82173125 283.31532005 375.28937407 283.33689499 385.75708389 C283.35515009 394.67091522 283.35941871 403.58462006 283.34587614 412.49846204 C283.33936811 417.04125002 283.3391505 421.58379563 283.35658264 426.12656021 C283.372415 430.29553196 283.36934731 434.46407123 283.35201438 438.63303308 C283.34896665 440.13099208 283.35249153 441.62898418 283.36373453 443.12690409 C283.50111384 462.74973875 278.64063859 480.25869222 264.64581299 494.45185852 C251.51126141 507.12716005 236.56488327 512.63326319 218.38694763 512.53485107 C217.17869538 512.54023661 215.97044313 512.54562215 214.72557718 512.55117089 C211.40241685 512.56292892 208.07976334 512.56141422 204.7566241 512.55400407 C201.16071923 512.54924837 197.56486665 512.56180343 193.96897888 512.57202148 C186.93588919 512.58916863 179.902889 512.59005792 172.86978384 512.58480858 C167.14933332 512.58075763 161.42890913 512.5822214 155.70845985 512.58755684 C154.89248544 512.58830526 154.07651102 512.58905368 153.2358101 512.58982478 C151.57783521 512.59135636 149.91986032 512.59289471 148.26188544 512.59443975 C132.73280543 512.60815029 117.20377587 512.60273753 101.67469702 512.59125454 C87.49077847 512.58132606 73.30699044 512.59425872 59.12309202 512.61818873 C44.53420252 512.64261519 29.94537373 512.65217875 15.35646421 512.64553601 C7.1758843 512.64205135 -1.00459531 512.64422576 -9.18515968 512.66178703 C-16.14984444 512.67655357 -23.11435828 512.67708674 -30.07903985 512.65971612 C-33.62719959 512.65123971 -37.17505458 512.64897325 -40.72319794 512.66436768 C-62.89275183 512.75359432 -81.04236156 511.44664322 -97.86981201 495.41670227 C-98.62133545 494.66775696 -99.37285889 493.91881165 -100.14715576 493.14717102 C-101.10428467 492.2248468 -101.10428467 492.2248468 -102.08074951 491.28388977 C-115.33132744 477.50210827 -117.61549852 459.4597666 -117.53483582 441.22093201 C-117.53901855 439.6610739 -117.54450118 438.10121884 -117.55115563 436.54136932 C-117.5655057 432.29403336 -117.56139852 428.04689316 -117.55398881 423.79954696 C-117.54923338 419.20365224 -117.56178786 414.60779845 -117.57200623 410.01191711 C-117.58915312 401.02341609 -117.59004281 392.0349851 -117.58479332 383.04647197 C-117.58074279 375.73667658 -117.58220565 368.4269018 -117.58754158 361.11710739 C-117.58829 360.07453727 -117.58903842 359.03196714 -117.58980953 357.95780399 C-117.59134109 355.83945116 -117.59287944 353.72109834 -117.59442449 351.60274552 C-117.60813461 331.76248263 -117.60272227 311.92225924 -117.59123928 292.08199726 C-117.58130802 273.95505037 -117.5942484 255.82820556 -117.61817347 237.70127441 C-117.64259078 219.06005876 -117.6521659 200.41889061 -117.64552075 181.7776593 C-117.64203444 171.32340836 -117.64422171 160.8692359 -117.66177177 150.4149971 C-117.67652667 141.51589504 -117.67708629 132.61692675 -117.65970086 123.71782722 C-117.65121562 119.1831173 -117.6489804 114.64864601 -117.66435242 110.11394882 C-117.67828372 105.95253045 -117.67332926 101.79155324 -117.65411318 97.63015984 C-117.65037855 96.1350154 -117.65320079 94.6398349 -117.66372483 93.14472283 C-117.78977018 73.84614327 -112.92970743 56.57095624 -99.47479248 42.25923157 C-88.41842213 31.11856154 -72.78781902 24.24521705 -57.06463623 23.92012024 C-55.29784026 23.92043053 -53.53102016 23.93134393 -51.76434326 23.95185852 C-50.35392258 23.95610336 -50.35392258 23.95610336 -48.91500854 23.96043396 C-45.95058749 23.97151124 -42.98648345 23.99659151 -40.02215576 24.02217102 C-37.9961185 24.03221695 -35.97007644 24.04133996 -33.94403076 24.04951477 C-29.01161941 24.07140958 -24.07944108 24.10585145 -19.14715576 24.14717102 C-19.16020752 23.32080139 -19.17325928 22.49443176 -19.18670654 21.64302063 C-19.19685791 20.5602887 -19.20700928 19.47755676 -19.21746826 18.36201477 C-19.23052002 17.28814514 -19.24357178 16.21427551 -19.25701904 15.10786438 C-19.09130386 10.64202436 -17.86834122 7.86835648 -14.71746826 4.71748352 C-9.82429721 0.4085717 -6.34899998 0.02062472 0 0 Z " fill="#FEFEFE" transform="translate(173.14715576171875,-0.1471710205078125)"/>
<path d="M0 0 C1.41042068 0.00424484 1.41042068 0.00424484 2.84933472 0.00857544 C5.81375577 0.01965272 8.77785981 0.04473299 11.7421875 0.0703125 C13.76822476 0.08035843 15.79426682 0.08948144 17.8203125 0.09765625 C22.75282064 0.11783836 27.68465477 0.15700983 32.6171875 0.1953125 C32.6171875 11.7453125 32.6171875 23.2953125 32.6171875 35.1953125 C22.2421875 35.5078125 22.2421875 35.5078125 19.03759766 35.58325195 C5.65281268 36.0936571 -6.67762379 40.93297389 -16.5390625 50.16796875 C-27.05032974 61.72590878 -29.9975128 75.13791276 -29.8974762 90.36885071 C-29.90281493 91.75048296 -29.90988818 93.1321094 -29.91852325 94.51372498 C-29.93700247 98.27311823 -29.93089711 102.0321136 -29.92037022 105.79152238 C-29.91333583 109.86051991 -29.92940819 113.92943913 -29.94236755 117.99841309 C-29.96394325 125.95568615 -29.96389706 133.91281585 -29.95574201 141.87010852 C-29.94942616 148.34231056 -29.95059354 154.81447098 -29.95701408 161.28667259 C-29.95791574 162.21003767 -29.95881739 163.13340275 -29.95974637 164.08474859 C-29.9615977 165.96095196 -29.96346026 167.83715532 -29.96533393 169.71335866 C-29.98189042 187.28409829 -29.97321198 204.85475748 -29.95634835 222.42549225 C-29.94165792 238.47354567 -29.95627437 254.52141176 -29.98511852 270.56944106 C-30.01456622 287.07717142 -30.02546886 303.58481549 -30.01593632 320.09257096 C-30.01491384 321.962549 -30.01391923 323.83252705 -30.0129528 325.70250511 C-30.01247641 326.62239582 -30.01200002 327.54228652 -30.0115092 328.4900527 C-30.00935191 334.94685061 -30.01911268 341.40356618 -30.03372383 347.86034584 C-30.05130774 355.74026048 -30.05104358 363.61993656 -30.02837218 371.49984208 C-30.01728389 375.51411385 -30.01394303 379.52796627 -30.03267288 383.54221916 C-30.32458559 413.84218193 -30.32458559 413.84218193 -15.28515625 439.40234375 C-5.37118783 448.82673348 5.46364239 452.51256924 18.89610291 452.44927979 C19.91732744 452.45239977 20.93855198 452.45551975 21.99072272 452.45873427 C25.40525119 452.46669769 28.81960113 452.46039697 32.23413086 452.45410156 C34.68520715 452.45681217 37.13628263 452.4603735 39.58735657 452.46472168 C45.54949315 452.47289341 51.51155993 452.47169893 57.47369378 452.4658964 C62.3209073 452.46137478 67.16810671 452.46076917 72.01532173 452.46294403 C72.70590383 452.4632505 73.39648593 452.46355696 74.10799475 452.46387272 C75.51102817 452.46451219 76.91406158 452.46516061 78.31709499 452.4658179 C91.46627306 452.4715178 104.61542322 452.46496886 117.76459671 452.45421717 C129.03863509 452.44528395 140.31263228 452.44683246 151.58666992 452.45605469 C164.68809788 452.46676676 177.78950137 452.47096642 190.8909331 452.46483016 C192.28903456 452.46419308 193.68713603 452.46356434 195.0852375 452.46294403 C195.77307446 452.46263548 196.46091141 452.46232693 197.16959191 452.46200903 C202.00850832 452.46028475 206.84740917 452.46319147 211.68632317 452.46790314 C218.20424472 452.47411031 224.72210064 452.46966711 231.24001884 452.45811462 C233.63131074 452.45547159 236.02260918 452.45622704 238.41389847 452.46063995 C241.67978325 452.46611086 244.94541947 452.45924225 248.21128845 452.44927979 C249.62827771 452.45597195 249.62827771 452.45597195 251.07389301 452.46279931 C263.49729251 452.38937486 275.98221336 448.04347067 285.1171875 439.3828125 C296.06044399 427.15348954 299.24152008 412.96017308 299.11839294 396.86114502 C299.12229684 395.47437528 299.12794593 394.08760956 299.13516384 392.70085311 C299.14977976 388.93211696 299.13982118 385.16380455 299.12542713 381.39508271 C299.11424175 377.31464327 299.12628457 373.23425963 299.13526917 369.15382385 C299.149151 361.17796563 299.14168372 353.2022665 299.12659358 345.22641596 C299.10967684 335.92908801 299.11295073 326.63179906 299.11668766 317.33446047 C299.12255664 300.74328666 299.10843076 284.15218892 299.08374023 267.56103516 C299.05980679 251.47669628 299.05274325 235.39245896 299.06323242 219.30810547 C299.07464944 201.76967208 299.07656319 184.23128557 299.06213433 166.69285274 C299.06060856 164.82187446 299.0590882 162.95089619 299.05757332 161.07991791 C299.0568155 160.15947792 299.05605769 159.23903793 299.05527691 158.29070581 C299.05054137 151.81557462 299.05238023 145.34046442 299.05663872 138.86533356 C299.06157224 130.9736036 299.05554997 123.0819695 299.03574442 115.19026145 C299.02589419 111.16669986 299.0207428 107.14328404 299.02863693 103.11971474 C299.03572331 99.43236337 299.02882064 95.74530539 299.0110333 92.05799255 C299.00510998 90.10161644 299.01378354 88.14521267 299.02307981 86.18884969 C298.92193054 72.06842985 294.63128779 59.62285439 284.84375 49.23046875 C278.13390633 43.0974362 270.15609736 39.96584066 261.6171875 37.1953125 C260.6271875 36.8653125 259.6371875 36.5353125 258.6171875 36.1953125 C256.91851562 36.04753314 255.21541261 35.94784184 253.51171875 35.87890625 C252.62589111 35.84079834 251.74006348 35.80269043 250.82739258 35.76342773 C249.7061499 35.72032471 248.58490723 35.67722168 247.4296875 35.6328125 C243.8615625 35.4884375 240.2934375 35.3440625 236.6171875 35.1953125 C236.6171875 23.6453125 236.6171875 12.0953125 236.6171875 0.1953125 C242.44890853 0.10258195 248.27798734 0.0232242 254.10986328 -0.02441406 C256.08618929 -0.04430889 258.0624582 -0.07143473 260.03857422 -0.10644531 C281.55221049 -0.47755827 300.20197419 2.54055492 316.50512695 17.86767578 C329.06933824 30.33681569 334.75913508 46.84353657 334.88917647 64.2554036 C334.89418403 66.38382762 334.88948605 68.51211081 334.88461304 70.64053345 C334.88835454 72.19693769 334.89295805 73.75334005 334.89834368 75.30973947 C334.91052744 79.56607282 334.91031869 83.82232729 334.90795493 88.07867408 C334.90754559 92.67735986 334.91859716 97.27602075 334.92807007 101.87469482 C334.94465601 110.87709748 334.95017854 119.87947395 334.95129482 128.88189061 C334.95224651 136.2032199 334.95636281 143.52454059 334.96269608 150.84586716 C334.98030247 171.62332517 334.98953597 192.40076256 334.98803513 213.1782281 C334.98795522 214.29745482 334.9878753 215.41668154 334.98779297 216.56982422 C334.98771121 217.69042462 334.98762945 218.81102502 334.98754521 219.96558301 C334.98673264 238.11864672 335.0058646 256.27162738 335.0340697 274.42466708 C335.06283138 293.08383159 335.07660817 311.74295565 335.07488215 330.40214288 C335.07421935 340.86987273 335.07966331 351.33751554 335.10123825 361.80522537 C335.11949335 370.7190567 335.12376197 379.63276154 335.1102194 388.54660352 C335.10371137 393.0893915 335.10349376 397.63193711 335.1209259 402.17470169 C335.13675826 406.34367344 335.13369057 410.51221271 335.11635764 414.68117456 C335.11330991 416.17913356 335.11683479 417.67712566 335.12807779 419.17504556 C335.2654571 438.79788023 330.40498185 456.3068337 316.41015625 470.5 C303.27560467 483.17530153 288.32922653 488.68140467 270.15129089 488.58299255 C268.94303864 488.58837809 267.73478639 488.59376363 266.48992044 488.59931237 C263.16676011 488.6110704 259.8441066 488.60955569 256.52096736 488.60214555 C252.9250625 488.59738985 249.32920991 488.60994491 245.73332214 488.62016296 C238.70023245 488.63731011 231.66723226 488.6381994 224.6341271 488.63295006 C218.91367658 488.62889911 213.19325239 488.63036288 207.47280312 488.63569832 C206.24884149 488.63682095 206.24884149 488.63682095 205.00015337 488.63796626 C203.34217847 488.63949784 201.68420358 488.64103619 200.0262287 488.64258123 C184.49714869 488.65629177 168.96811913 488.65087901 153.43904028 488.63939602 C139.25512173 488.62946754 125.0713337 488.6424002 110.88743528 488.66633021 C96.29854579 488.69075667 81.70971699 488.70032023 67.12080747 488.69367748 C58.94022756 488.69019283 50.75974795 488.69236724 42.57918358 488.70992851 C35.61449882 488.72469505 28.64998498 488.72522822 21.68530341 488.7078576 C18.13714367 488.69938119 14.58928868 488.69711473 11.04114532 488.71250916 C-11.12840856 488.8017358 -29.2780183 487.4947847 -46.10546875 471.46484375 C-46.85699219 470.71589844 -47.60851562 469.96695312 -48.3828125 469.1953125 C-49.33994141 468.27298828 -49.33994141 468.27298828 -50.31640625 467.33203125 C-63.56698418 453.55024975 -65.85115526 435.50790808 -65.77049255 417.26907349 C-65.77467529 415.70921538 -65.78015792 414.14936032 -65.78681237 412.5895108 C-65.80116244 408.34217484 -65.79705526 404.09503464 -65.78964555 399.84768844 C-65.78489012 395.25179372 -65.7974446 390.65593993 -65.80766296 386.06005859 C-65.82480985 377.07155757 -65.82569955 368.08312658 -65.82045006 359.09461345 C-65.81639953 351.78481806 -65.81786239 344.47504328 -65.82319832 337.16524887 C-65.82394674 336.12267875 -65.82469516 335.08010862 -65.82546626 334.00594547 C-65.82699783 331.88759264 -65.82853618 329.76923982 -65.83008123 327.650887 C-65.84379135 307.81062411 -65.83837901 287.97040072 -65.82689602 268.13013874 C-65.81696475 250.00319185 -65.82990514 231.87634704 -65.85383021 213.74941589 C-65.87824752 195.10820024 -65.88782264 176.46703209 -65.88117748 157.82580078 C-65.87769118 147.37154984 -65.87987845 136.91737738 -65.89742851 126.46313858 C-65.91218341 117.56403652 -65.91274303 108.66506823 -65.8953576 99.7659687 C-65.88687236 95.23125878 -65.88463714 90.69678749 -65.90000916 86.1620903 C-65.91394046 82.00067193 -65.908986 77.83969472 -65.88976992 73.67830132 C-65.88603529 72.18315688 -65.88885753 70.68797638 -65.89938157 69.19286431 C-66.02542692 49.89428475 -61.16536417 32.61909772 -47.71044922 18.30737305 C-34.88882196 5.38798686 -17.87032311 -0.20750961 0 0 Z " fill="#E63E39" transform="translate(121.3828125,23.8046875)"/>
<path d="M0 0 C1.09899561 -0.00551503 1.09899561 -0.00551503 2.22019315 -0.01114148 C4.68206046 -0.02217896 7.14388557 -0.02602226 9.60577393 -0.02983093 C11.36823664 -0.03609552 13.13069802 -0.04274232 14.89315796 -0.04974365 C20.68700236 -0.0707864 26.48084703 -0.08114599 32.27471924 -0.09111023 C34.26903548 -0.09515766 36.26335158 -0.09927457 38.25766754 -0.10346031 C47.62664369 -0.12251217 56.99561196 -0.13674341 66.36460376 -0.14507228 C77.18059297 -0.15484618 87.9963776 -0.18116973 98.81229472 -0.22157317 C107.17163287 -0.25172872 115.53091236 -0.26654061 123.89030385 -0.26985329 C128.88334936 -0.27220436 133.87617633 -0.28117231 138.86916351 -0.30631447 C143.56745254 -0.32959042 148.26537905 -0.33383033 152.96371078 -0.32355309 C154.68622162 -0.3230575 156.40875028 -0.32938456 158.13120651 -0.34310913 C160.48715549 -0.36082806 162.8418034 -0.35372296 165.19775391 -0.34057617 C167.17330324 -0.3441587 167.17330324 -0.3441587 169.18876266 -0.34781361 C174.7222991 0.39971764 178.39080816 2.56971104 182.22784424 6.70967102 C184.95968711 10.80743532 184.99529128 14.05367468 185.04571533 18.87837219 C185.05798157 19.89850906 185.05798157 19.89850906 185.07049561 20.93925476 C185.09530149 23.18954094 185.11185584 25.43976409 185.12628174 27.69013977 C185.13160542 28.46071527 185.13692909 29.23129078 185.14241409 30.02521706 C185.16912863 34.10630421 185.18850632 38.187361 185.20294189 42.26850891 C185.2162636 45.63727579 185.24408483 49.00543441 185.28497314 52.37397766 C185.33443646 56.44942148 185.35907974 60.52431502 185.36616898 64.60004616 C185.37285905 66.1481305 185.38802252 67.69620365 185.41205978 69.24411583 C185.64134463 84.90655098 185.64134463 84.90655098 179.85284424 91.14717102 C175.01845417 95.82561302 169.02171844 96.39755596 162.54147339 96.41459656 C161.47031786 96.42139323 161.47031786 96.42139323 160.37752283 96.4283272 C157.99634582 96.4409381 155.6153985 96.43935301 153.23419189 96.43769836 C151.52216804 96.44368565 149.81014689 96.45049165 148.09812927 96.45805359 C143.45551902 96.47569943 138.81298252 96.48040834 134.17034197 96.48168516 C131.26796613 96.483108 128.36560896 96.4873801 125.46323776 96.4926796 C115.33267783 96.51117445 105.20217049 96.5193508 95.07159424 96.51777649 C85.63643429 96.5165749 76.20150302 96.53768203 66.76640093 96.56926382 C58.65835548 96.59543408 50.55038469 96.60614349 42.44229734 96.60486567 C37.60297627 96.6043563 32.76385853 96.6100257 27.92457962 96.63122177 C23.37232479 96.65061704 18.82046703 96.65071985 14.26819801 96.63618851 C12.60093797 96.63410098 10.93365298 96.63879798 9.26643562 96.65090942 C-6.43807734 96.75757352 -6.43807734 96.75757352 -13.14715576 92.14717102 C-17.98027301 87.05967918 -19.39575258 83.25259459 -19.42181396 76.27070618 C-19.4269249 75.58725632 -19.43203583 74.90380646 -19.43730164 74.199646 C-19.45117722 71.94508554 -19.45024224 69.69083155 -19.44793701 67.43623352 C-19.4518255 65.86448554 -19.45616049 64.29273862 -19.46092224 62.72099304 C-19.46838039 59.42747084 -19.46809646 56.13405584 -19.46282959 52.8405304 C-19.45704012 48.62833653 -19.47395498 44.41658313 -19.49717426 40.20446205 C-19.51193698 36.95814973 -19.51277979 33.71194282 -19.50966454 30.46560287 C-19.51017663 28.91312667 -19.5153933 27.36064438 -19.52547646 25.80820084 C-19.53787114 23.63265494 -19.5310316 21.45795815 -19.51947021 19.28242493 C-19.52009964 18.04650604 -19.52072906 16.81058716 -19.52137756 15.53721619 C-19.03710721 11.15025004 -17.63476748 7.77812033 -14.64715576 4.50263977 C-9.55276731 0.53591543 -6.37242421 0.02070082 0 0 Z " fill="#80D261" transform="translate(173.14715576171875,-0.1471710205078125)"/>
<path d="M0 0 C2.71818 0.97575692 3.72076698 1.57215388 5.4375 3.875 C5.80664349 6.6804533 5.80664349 6.6804533 5.79826355 10.15812683 C5.80238754 11.47485886 5.80651154 12.79159088 5.8107605 14.14822388 C5.80014295 15.61078085 5.78923852 17.07333576 5.77807617 18.53588867 C5.77723012 20.07325728 5.77770462 21.6106271 5.77940369 23.147995 C5.78026591 27.32547585 5.76260354 31.5026993 5.74168181 35.68012023 C5.72295278 40.04432741 5.72116756 44.40854021 5.71760559 48.77278137 C5.70827401 57.03882526 5.68364521 65.3047504 5.65355712 73.57074195 C5.6200477 82.9805311 5.60353581 92.39032587 5.58847082 101.80015981 C5.5570966 121.15850912 5.5037116 140.51674067 5.4375 159.875 C13.3575 159.875 21.2775 159.875 29.4375 159.875 C29.39109375 155.95109375 29.3446875 152.0271875 29.296875 147.984375 C29.26568927 144.18832696 29.24139573 140.39229314 29.21777344 136.59619141 C29.19764525 133.95582706 29.17034013 131.31550735 29.13574219 128.67529297 C29.0872795 124.88237499 29.0645428 121.09004584 29.046875 117.296875 C29.02622986 116.11446228 29.00558472 114.93204956 28.98431396 113.71380615 C28.98401184 112.61296692 28.98370972 111.51212769 28.98339844 110.37792969 C28.97451599 109.40974304 28.96563354 108.4415564 28.95648193 107.44403076 C29.58180399 104.10429842 30.77815078 102.92961744 33.4375 100.875 C36.0701394 100.47657085 38.27762168 100.31284305 40.90625 100.34375 C41.623573 100.3399231 42.340896 100.33609619 43.07995605 100.33215332 C44.59286914 100.32943773 46.10582945 100.33677445 47.61865234 100.35351562 C49.93042976 100.37493449 52.23910013 100.35370649 54.55078125 100.328125 C56.02344434 100.33076834 57.4961055 100.33589347 58.96875 100.34375 C60.00171204 100.33160461 60.00171204 100.33160461 61.05554199 100.31921387 C64.22740075 100.38098154 66.0796225 100.59944282 68.62286377 102.55767822 C70.87188856 105.42972169 70.92416645 106.85502418 70.89160156 110.46972656 C70.89129944 111.59058655 70.89099731 112.71144653 70.89068604 113.86627197 C70.87004089 115.07055847 70.84939575 116.27484497 70.828125 117.515625 C70.82246521 118.75294373 70.81680542 119.99026245 70.81097412 121.26507568 C70.79238251 124.54677936 70.75647498 127.82769281 70.7121582 131.10913086 C70.67116165 134.46070067 70.65329501 137.81230444 70.6328125 141.1640625 C70.58869904 147.73468391 70.52175077 154.30477732 70.4375 160.875 C72.0875 160.875 73.7375 160.875 75.4375 160.875 C75.42861755 159.79616043 75.41973511 158.71732086 75.4105835 157.60578918 C75.32949534 147.43854979 75.26953344 137.271376 75.23025131 127.1038866 C75.20937699 121.87665644 75.18106192 116.64968734 75.13574219 111.42260742 C75.09227929 106.37811912 75.06836173 101.33388191 75.05799103 96.28922081 C75.05060048 94.36467219 75.03616846 92.4401373 75.01457977 90.51569557 C74.98553986 87.81981337 74.98154423 85.12496853 74.98339844 82.42895508 C74.96901733 81.63341721 74.95463623 80.83787933 74.93981934 80.01823425 C74.96743456 76.30732457 75.31249866 74.08114206 77.25312805 70.8808136 C80.27256178 68.10819915 82.96403012 68.15325151 86.87109375 68.2109375 C87.94352074 68.20376205 87.94352074 68.20376205 89.03761292 68.19644165 C90.54633795 68.19304675 92.05513694 68.20222104 93.5637207 68.22314453 C95.86512589 68.24988527 98.16163819 68.22341254 100.46289062 68.19140625 C101.93230237 68.1947112 103.40171109 68.20111922 104.87109375 68.2109375 C105.89631386 68.19575577 105.89631386 68.19575577 106.94224548 68.18026733 C110.46272599 68.26597309 112.28517455 68.76122158 115.12286377 70.8808136 C118.09797238 74.72937935 118.1105765 77.76232527 118.00512695 82.42895508 C118.00585709 83.27824585 118.00658722 84.12753662 118.00733948 85.00256348 C118.00386516 87.80054324 117.96501237 90.59684352 117.92578125 93.39453125 C117.91645255 95.33793732 117.90933671 97.28135518 117.90434265 99.22477722 C117.88527738 104.33292259 117.83618039 109.44035396 117.78082275 114.54821777 C117.72962026 119.76316672 117.70682645 124.97823136 117.68164062 130.19335938 C117.62806141 140.42088614 117.54275408 150.64788363 117.4375 160.875 C119.0875 160.875 120.7375 160.875 122.4375 160.875 C122.43473462 160.26962497 122.43196924 159.66424994 122.42912006 159.0405302 C122.36290164 144.31857779 122.31323963 129.59663418 122.28206348 114.87456799 C122.26658665 107.7551101 122.24548168 100.63575155 122.21118164 93.51635742 C122.1781161 86.64993151 122.16066277 79.78360903 122.15286827 72.91710854 C122.14731127 70.29315882 122.13646031 67.66921496 122.12030983 65.04530907 C122.09863579 61.37928269 122.09552892 57.71368722 122.09692383 54.04760742 C122.086138 52.9550061 122.07535217 51.86240479 122.0642395 50.73669434 C122.06836349 49.73970016 122.07248749 48.74270599 122.07673645 47.71549988 C122.07397107 46.84809268 122.07120569 45.98068548 122.06835651 45.08699322 C122.52335568 42.36053288 123.21027602 41.47886503 125.4375 39.875 C128.13081011 39.5767853 130.58825794 39.45448339 133.28125 39.4765625 C134.42950256 39.47225723 134.42950256 39.47225723 135.60095215 39.46786499 C137.21818787 39.465825 138.8354483 39.47135037 140.45263672 39.48388672 C142.92862091 39.49994242 145.40297285 39.48403703 147.87890625 39.46484375 C149.45052444 39.46682619 151.02214161 39.4706699 152.59375 39.4765625 C153.33443726 39.47048981 154.07512451 39.46441711 154.83825684 39.4581604 C159.95593406 39.52821549 159.95593406 39.52821549 162.13406849 41.09673023 C163.84520934 43.43123728 163.80744994 44.83403509 163.79826355 47.71549988 C163.80444954 49.21099113 163.80444954 49.21099113 163.8107605 50.73669434 C163.79997467 51.82929565 163.78918884 52.92189697 163.77807617 54.04760742 C163.77851425 55.19896683 163.77895233 56.35032623 163.77940369 57.53657532 C163.77730965 61.35137753 163.75394888 65.16574308 163.73046875 68.98046875 C163.724875 71.62176778 163.72060386 74.26306992 163.71760559 76.90437317 C163.70827833 83.15172544 163.68365548 89.39892037 163.65355712 95.64620334 C163.62003418 102.75857002 163.60353243 109.87094418 163.58847082 116.98337018 C163.55710643 131.61399465 163.50433277 146.24449513 163.4375 160.875 C164.91343628 160.85143433 164.91343628 160.85143433 166.41918945 160.82739258 C170.06998508 160.77309022 173.72074501 160.73864915 177.37182617 160.71020508 C178.95196536 160.69511906 180.53206269 160.6746475 182.11206055 160.64868164 C184.38340585 160.61228874 186.65419759 160.59527238 188.92578125 160.58203125 C189.98530754 160.55880547 189.98530754 160.55880547 191.0662384 160.53511047 C193.96402744 160.53411629 195.94818888 160.53970963 198.37963867 162.20581055 C200.06264974 164.8614179 199.88293459 166.82059135 199.4375 169.875 C196.99309716 172.53445431 195.48803869 172.86966046 191.86424255 173.25252342 C190.39843831 173.26901822 188.93239236 173.26892616 187.46655273 173.25595093 C186.65741393 173.2606309 185.84827513 173.26531087 185.01461697 173.27013266 C182.29994311 173.28211063 179.58577147 173.27261456 176.87109375 173.26318359 C174.9262767 173.26724805 172.98146196 173.27258922 171.03665161 173.27911377 C165.75160706 173.29280812 160.4667379 173.28747995 155.18169022 173.27797651 C149.65554576 173.27039091 144.12941651 173.27742247 138.60327148 173.28213501 C129.32240091 173.28759576 120.0416019 173.28039254 110.76074219 173.26611328 C100.02477628 173.24978618 89.28898128 173.25507446 78.55301952 173.2715925 C69.34189737 173.28519823 60.13082672 173.28713149 50.91969776 173.27927649 C45.41542064 173.27459496 39.91122389 173.27398832 34.4069519 173.28388596 C29.23263406 173.29254005 24.05853696 173.28656217 18.88424301 173.26920319 C16.9831059 173.26523002 15.08195026 173.26638653 13.18082047 173.27299118 C10.58977699 173.281164 7.99944515 173.27093698 5.40844727 173.25595093 C4.65241935 173.26264309 3.89639143 173.26933526 3.11745358 173.27623022 C0.10525702 173.24233376 -2.26649227 173.00776883 -5.02893829 171.76872444 C-7.31308664 168.94813527 -7.06600299 166.79370444 -7.07043457 163.19445801 C-7.07667453 162.51205819 -7.0829145 161.82965837 -7.08934355 161.12657976 C-7.105328 158.83468846 -7.09264913 156.54385274 -7.08007812 154.25195312 C-7.08549687 152.61107257 -7.09261813 150.97019688 -7.10131836 149.32933044 C-7.11958432 144.86858424 -7.1124708 140.40820727 -7.09980202 135.94745445 C-7.08969123 131.28433597 -7.09906234 126.62124958 -7.10534668 121.95812988 C-7.1126287 114.12648834 -7.10302086 106.29499757 -7.08398438 98.46337891 C-7.06221454 89.40249121 -7.06926552 80.34196351 -7.09129 71.28108454 C-7.10942822 63.50861096 -7.11201006 55.73624589 -7.10153532 47.96375799 C-7.09529169 43.31851645 -7.09448856 38.67344424 -7.10768127 34.0282135 C-7.11921628 29.66146514 -7.11125743 25.29518194 -7.08810425 20.92848396 C-7.08280452 19.32364233 -7.08435248 17.71876171 -7.09315491 16.11393547 C-7.10404502 13.92727166 -7.09042886 11.74210943 -7.07043457 9.55554199 C-7.06892647 8.3306884 -7.06741837 7.10583481 -7.06586456 5.84386444 C-6.5625 2.875 -6.5625 2.875 -4.69091034 0.94965363 C-2.5625 -0.125 -2.5625 -0.125 0 0 Z " fill="#D0D1CE" transform="translate(159.5625,114.125)"/>
<path d="M0 0 C1.14825256 -0.00430527 1.14825256 -0.00430527 2.31970215 -0.00869751 C3.93693787 -0.0107375 5.5541983 -0.00521213 7.17138672 0.00732422 C9.64737091 0.02337992 12.12172285 0.00747453 14.59765625 -0.01171875 C16.16927444 -0.00973631 17.74089161 -0.0058926 19.3125 0 C20.05318726 -0.00607269 20.79387451 -0.01214539 21.55700684 -0.0184021 C26.67468406 0.05165299 26.67468406 0.05165299 28.85281849 1.62016773 C30.56395934 3.95467478 30.52619994 5.35747259 30.51701355 8.23893738 C30.52113754 9.23593155 30.52526154 10.23292572 30.5295105 11.26013184 C30.51872467 12.35273315 30.50793884 13.44533447 30.49682617 14.57104492 C30.49748329 16.29808403 30.49748329 16.29808403 30.49815369 18.06001282 C30.49605965 21.87481503 30.47269888 25.68918058 30.44921875 29.50390625 C30.443625 32.14520528 30.43935386 34.78650742 30.43635559 37.42781067 C30.42702833 43.67516294 30.40240548 49.92235787 30.37230712 56.16964084 C30.33878418 63.28200752 30.32228243 70.39438168 30.30722082 77.50680768 C30.2758564 92.13744369 30.2208359 106.76790934 30.15625 121.3984375 C16.62625 121.3984375 3.09625 121.3984375 -10.84375 121.3984375 C-10.91143898 106.06497493 -10.96671541 90.7315796 -10.99918652 75.39800549 C-11.01466335 68.2785476 -11.03576832 61.15918905 -11.07006836 54.03979492 C-11.1031339 47.17336901 -11.12058723 40.30704653 -11.12838173 33.44054604 C-11.13393873 30.81659632 -11.14478969 28.19265246 -11.16094017 25.56874657 C-11.18261421 21.90272019 -11.18572108 18.23712472 -11.18432617 14.57104492 C-11.195112 13.4784436 -11.20589783 12.38584229 -11.2170105 11.26013184 C-11.21288651 10.26313766 -11.20876251 9.26614349 -11.20451355 8.23893738 C-11.20727893 7.37153018 -11.21004431 6.50412298 -11.21289349 5.61043072 C-10.18725665 -0.5354226 -5.16853803 -0.04237543 0 0 Z " fill="#E63F3A" transform="translate(292.84375,153.6015625)"/>
<path d="M0 0 C0.71873795 -0.00287018 1.43747589 -0.00574036 2.17799377 -0.00869751 C3.69687692 -0.01073726 5.21578638 -0.00521351 6.73461914 0.00732422 C9.05480013 0.0233573 11.37323311 0.00748637 13.69335938 -0.01171875 C15.17057675 -0.00973584 16.64779304 -0.00589117 18.125 0 C18.81677841 -0.00607269 19.50855682 -0.01214539 20.22129822 -0.0184021 C23.00260079 0.02201799 25.26936638 0.23524753 27.81526184 1.39079285 C30.6372828 4.51467714 30.15300111 7.91100936 30.08300781 11.90893555 C30.08359192 12.77744141 30.08417603 13.64594727 30.08477783 14.54077148 C30.0819889 17.41430494 30.05085897 20.2868038 30.01953125 23.16015625 C30.01207173 25.15126478 30.00637744 27.14238065 30.00238037 29.13349915 C29.98710129 34.37635537 29.94779976 39.61876896 29.90356445 44.8614502 C29.85547037 51.15058494 29.83708858 57.43986763 29.81375122 63.72913361 C29.77495026 73.28587617 29.69831203 82.84164736 29.62890625 92.3984375 C16.42890625 92.3984375 3.22890625 92.3984375 -10.37109375 92.3984375 C-10.49142018 70.30739663 -10.49142018 70.30739663 -10.51757812 60.90820312 C-10.53552831 54.48861272 -10.55678859 48.06915038 -10.59741211 41.6496582 C-10.62995087 36.47551378 -10.64793522 31.30150666 -10.65572548 26.12726784 C-10.66127885 24.15084483 -10.67212292 22.17442954 -10.68828392 20.1980648 C-10.70998531 17.43485509 -10.71306374 14.67221644 -10.71166992 11.90893555 C-10.72245575 11.08750565 -10.73324158 10.26607574 -10.74435425 9.41975403 C-10.71381471 3.84366038 -10.71381471 3.84366038 -9.05519581 1.68897724 C-6.33354965 -0.39664014 -3.29050704 -0.02880104 0 0 Z " fill="#80D261" transform="translate(246.37109375,182.6015625)"/>
<path d="M0 0 C1.22653667 0.00669217 1.22653667 0.00669217 2.47785187 0.01351953 C3.34386269 0.01039954 4.2098735 0.00727956 5.10212708 0.00406504 C8.02105651 -0.00394972 10.93978005 0.00242216 13.85871124 0.00869775 C15.94440585 0.00598943 18.0300995 0.0024294 20.11579132 -0.00192237 C25.79333576 -0.01106756 31.47080781 -0.00749336 37.14835358 -0.0011642 C43.07850089 0.0038848 49.00864183 -0.00079257 54.93878937 -0.00393653 C64.8990872 -0.0075794 74.85935541 -0.00276868 84.81964874 0.00674462 C96.34969456 0.01762977 107.87966965 0.01410442 119.40971375 0.00309181 C129.29336148 -0.00597195 139.17698788 -0.00727081 149.06063843 -0.00203085 C154.97063609 0.00109388 160.88060046 0.00148446 166.79059601 -0.00510383 C172.34567337 -0.01086343 177.90065919 -0.00690588 183.45572662 0.00468469 C185.49960935 0.00733871 187.54349973 0.00655362 189.58737946 0.00215936 C192.36738202 -0.00326836 195.14708724 0.00350407 197.92707062 0.01351953 C198.74476173 0.00905808 199.56245285 0.00459664 200.40492249 0 C205.97416118 0.03918674 205.97416118 0.03918674 208.20246124 2.26748681 C208.57746124 5.70498681 208.57746124 5.70498681 208.20246124 9.26748681 C205.75348765 12.03828887 204.18034358 12.26972574 200.47303009 12.64501023 C198.93273318 12.66151625 197.39220608 12.66140498 195.85187531 12.64843774 C194.57691381 12.6554577 194.57691381 12.6554577 193.27619553 12.66261947 C190.42333449 12.6746014 187.57095099 12.66509976 184.71808624 12.6556704 C182.67474842 12.65973468 180.6314128 12.66507575 178.58808136 12.67160058 C173.03445312 12.68529704 167.48099176 12.67996588 161.92736053 12.67046332 C156.12094415 12.66287882 150.31454224 12.66990897 144.50812531 12.67462182 C134.75647155 12.68008289 125.00488591 12.67287851 115.25324249 12.65860009 C103.97196367 12.64227294 92.69084748 12.6475612 81.4095726 12.66407931 C71.73136374 12.67768413 62.05320389 12.67961874 52.37498856 12.6717633 C46.59125603 12.66708127 40.80760001 12.66647651 35.02387238 12.67637277 C29.58691019 12.68502552 24.15015812 12.6790514 18.71321869 12.66169 C16.71532795 12.65771611 14.7174196 12.65887454 12.71953583 12.66547799 C9.99713252 12.67364794 7.27540703 12.66342709 4.55304718 12.64843774 C3.75810978 12.6551299 2.96317238 12.66182207 2.14414597 12.66871703 C-1.06335079 12.63434508 -3.42678689 12.46056665 -6.29601288 10.96633363 C-7.79753876 9.26748681 -7.79753876 9.26748681 -8.17253876 5.70498681 C-7.54039483 -0.08966582 -5.30631242 0.03733672 0 0 Z " fill="#D0D0D0" transform="translate(155.79753875732422,434.7325131893158)"/>
<path d="M0 0 C1.27496149 -0.00701996 1.27496149 -0.00701996 2.57567978 -0.01418173 C5.42854081 -0.02616366 8.28092432 -0.01666202 11.13378906 -0.00723267 C13.17712688 -0.01129694 15.2204625 -0.01663801 17.26379395 -0.02316284 C22.81742218 -0.0368593 28.37088355 -0.03152814 33.92451477 -0.02202559 C39.73093116 -0.01444108 45.53733306 -0.02147123 51.34375 -0.02618408 C61.09540375 -0.03164516 70.84698939 -0.02444077 80.59863281 -0.01016235 C91.87991164 0.0061648 103.16102782 0.00087654 114.4423027 -0.01564157 C124.12051157 -0.02924639 133.79867141 -0.03118101 143.47688675 -0.02332556 C149.26061927 -0.01864353 155.04427529 -0.01803877 160.82800293 -0.02793503 C166.26496511 -0.03658778 171.70171718 -0.03061366 177.13865662 -0.01325226 C179.13654735 -0.00927838 181.1344557 -0.0104368 183.13233948 -0.01704025 C185.85474279 -0.0252102 188.57646827 -0.01498936 191.29882812 0 C192.09376553 -0.00669217 192.88870293 -0.01338433 193.70772934 -0.02027929 C196.91522609 0.01409266 199.27866219 0.18787109 202.14788818 1.68210411 C203.64941406 3.38095093 203.64941406 3.38095093 204.02441406 6.94345093 C203.64941406 10.38095093 203.64941406 10.38095093 201.64941406 12.38095093 C198.85832171 12.57875184 196.16634109 12.65015351 193.37402344 12.63491821 C192.50801262 12.63803819 191.6420018 12.64115818 190.74974823 12.6443727 C187.8308188 12.65238746 184.91209526 12.64601558 181.99316406 12.63973999 C179.90746946 12.64244831 177.82177581 12.64600834 175.73608398 12.65036011 C170.05853954 12.6595053 164.3810675 12.6559311 158.70352173 12.64960194 C152.77337442 12.64455294 146.84323348 12.64923031 140.91308594 12.65237427 C130.95278811 12.65601713 120.9925199 12.65120642 111.03222656 12.64169312 C99.50218075 12.63080796 87.97220566 12.63433331 76.44216156 12.64534593 C66.55851382 12.65440969 56.67488743 12.65570855 46.79123688 12.65046859 C40.88123922 12.64734386 34.97127484 12.64695328 29.0612793 12.65354156 C23.50620193 12.65930117 17.95121611 12.65534362 12.39614868 12.64375305 C10.35226595 12.64109903 8.30837558 12.64188412 6.26449585 12.64627838 C3.48449328 12.6517061 0.70478807 12.64493367 -2.07519531 12.63491821 C-3.30173199 12.64161038 -3.30173199 12.64161038 -4.55304718 12.64843774 C-10.12228587 12.60925099 -10.12228587 12.60925099 -12.35058594 10.38095093 C-12.72558594 6.94345093 -12.72558594 6.94345093 -12.35058594 3.38095093 C-8.95846251 -0.45694369 -4.76237361 -0.04009195 0 0 Z " fill="#D0D0D0" transform="translate(160.3505859375,393.6190490722656)"/>
<path d="M0 0 C0.85320345 -0.00467997 1.70640691 -0.00935994 2.58546501 -0.01418173 C5.4552501 -0.02618392 8.32456225 -0.01665413 11.1943512 -0.00723267 C13.24739359 -0.01129608 15.3004338 -0.01663665 17.35346985 -0.02316284 C22.93814768 -0.0368705 28.52265974 -0.03152332 34.10734057 -0.02202559 C39.94445931 -0.01444582 45.78156358 -0.02147 51.61868286 -0.02618408 C61.42339127 -0.03164698 71.22803197 -0.02443646 81.0327301 -0.01016235 C92.37590383 0.0061606 103.71891577 0.00088032 115.06208557 -0.01564157 C124.79122919 -0.02924663 134.52032405 -0.03118075 144.24947411 -0.02332556 C150.06452052 -0.01864308 155.87949084 -0.01803991 161.69453239 -0.02793503 C167.1618496 -0.03658798 172.62895786 -0.03061329 178.09625244 -0.01325226 C180.10543025 -0.00927829 182.11462558 -0.01043695 184.12379646 -0.01704025 C186.86157866 -0.02520996 189.5986868 -0.01498958 192.33642578 0 C193.13593625 -0.00669217 193.93544672 -0.01338433 194.75918478 -0.02027929 C197.97545596 0.0139942 200.35193165 0.1830849 203.2290659 1.68210411 C204.73170471 3.38095093 204.73170471 3.38095093 205.16920471 6.94345093 C205.02482971 8.07782593 204.88045471 9.21220093 204.73170471 10.38095093 C200.91398343 12.92609845 197.84218617 12.65939386 193.41871643 12.63491821 C192.56072386 12.63803819 191.70273129 12.64115818 190.81873894 12.6443727 C187.93288759 12.65237406 185.04724527 12.64602074 182.16139221 12.63973999 C180.09687679 12.6424489 178.03236234 12.64600927 175.96784973 12.65036011 C170.35227857 12.65949824 164.73678068 12.65593398 159.12120819 12.64960194 C153.25292763 12.64454931 147.38465348 12.64923133 141.51637268 12.65237427 C131.66040415 12.65601607 121.80446557 12.65120921 111.94850159 12.64169312 C100.5428547 12.63080817 89.1372793 12.63433359 77.73163414 12.64534593 C67.95070978 12.65441271 58.16980698 12.65570706 48.38887978 12.65046859 C42.54202222 12.64734553 36.69519831 12.64694873 30.8483429 12.65354156 C25.35234469 12.65930555 19.85643893 12.65533552 14.36045074 12.64375305 C12.33956303 12.64110138 10.31866757 12.64188014 8.2977829 12.64627838 C5.54664674 12.65171531 2.7958099 12.6449223 0.04469299 12.63491821 C-1.16477839 12.64161038 -1.16477839 12.64161038 -2.39868355 12.64843774 C-6.22312249 12.62132333 -8.00815489 12.55437786 -11.26829529 10.38095093 C-11.91320344 4.46929288 -11.91320344 4.46929288 -10.26162624 1.68210411 C-7.07672632 -0.39684954 -3.68089469 -0.03072457 0 0 Z " fill="#D0D0D0" transform="translate(159.26829528808594,353.6190490722656)"/>
<path d="M0 0 C0.85799257 -0.00467997 1.71598515 -0.00935994 2.59997749 -0.01418173 C5.48591521 -0.02618414 8.37138266 -0.01665408 11.25732422 -0.00723267 C13.32184121 -0.01129604 15.38635603 -0.01663659 17.4508667 -0.02316284 C23.06646784 -0.03687011 28.68190412 -0.03152371 34.29750824 -0.02202559 C40.16579137 -0.01444664 46.03406009 -0.02146967 51.90234375 -0.02618408 C61.75832665 -0.03164679 71.61424217 -0.0244365 81.47021484 -0.01016235 C92.87589225 0.00616511 104.28140879 0.00087697 115.68708229 -0.01564157 C125.46801445 -0.02924176 135.2488981 -0.03118328 145.02983665 -0.02332556 C150.87670912 -0.01864097 156.72350589 -0.01804575 162.57037354 -0.02793503 C168.06641444 -0.03658107 173.56224733 -0.03062606 179.05826569 -0.01325226 C181.07915145 -0.00927476 183.10005462 -0.01044292 185.12093353 -0.01704025 C187.8722024 -0.02519604 190.62279788 -0.01500672 193.37402344 0 C194.58349483 -0.01003825 194.58349483 -0.01003825 195.81739998 -0.02027929 C201.17274343 0.03667298 201.17274343 0.03667298 203.68313599 1.71726036 C205.27093108 4.34866148 205.06123609 6.38715594 204.68701172 9.38095093 C203.68313599 11.04464149 203.68313599 11.04464149 201.68701172 12.38095093 C198.84340687 12.67584272 196.21869269 12.78551175 193.37402344 12.76190186 C192.51603086 12.76658183 191.65803829 12.7712618 190.77404594 12.77608359 C187.88810823 12.78808599 185.00264078 12.77855593 182.11669922 12.76913452 C180.05218223 12.77319789 177.98766741 12.77853845 175.92315674 12.7850647 C170.3075556 12.79877197 164.69211932 12.79342556 159.0765152 12.78392744 C153.20823207 12.7763485 147.33996335 12.78337153 141.47167969 12.78808594 C131.61569679 12.79354864 121.75978127 12.78633836 111.90380859 12.77206421 C100.49813119 12.75573674 89.09261465 12.76102489 77.68694115 12.77754343 C67.90600899 12.79114361 58.12512534 12.79308514 48.34418678 12.78522742 C42.49731432 12.78054283 36.65051755 12.77994761 30.8036499 12.78983688 C25.30760899 12.79848292 19.81177611 12.79252791 14.31575775 12.77515411 C12.29487199 12.77117662 10.27396881 12.77234477 8.2530899 12.77894211 C5.50182104 12.78709789 2.75122555 12.77690858 0 12.76190186 C-1.20947139 12.7719401 -1.20947139 12.7719401 -2.44337654 12.78218114 C-7.79872 12.72522887 -7.79872 12.72522887 -10.30911255 11.04464149 C-11.89690765 8.41324037 -11.68721266 6.37474592 -11.31298828 3.38095093 C-8.77742965 -0.82114784 -4.36612602 -0.03623753 0 0 Z " fill="#CFCFCF" transform="translate(159.31298828125,313.6190490722656)"/>
<path d="M0 0 C0.717323 -0.0038269 1.434646 -0.00765381 2.17370605 -0.01159668 C3.68661914 -0.01431227 5.19957945 -0.00697555 6.71240234 0.00976562 C9.02417976 0.03118449 11.33285013 0.00995649 13.64453125 -0.015625 C15.11719434 -0.01298166 16.5898555 -0.00785653 18.0625 0 C18.75114136 -0.00809692 19.43978271 -0.01619385 20.14929199 -0.02453613 C23.32115075 0.03723154 25.1733725 0.25569282 27.71661377 2.21392822 C29.96563856 5.08597169 30.01791645 6.51127418 29.98535156 10.12597656 C29.98504944 11.24683655 29.98474731 12.36769653 29.98443604 13.52252197 C29.96379089 14.72680847 29.94314575 15.93109497 29.921875 17.171875 C29.91621521 18.40919373 29.91055542 19.64651245 29.90472412 20.92132568 C29.88613251 24.20302936 29.85022498 27.48394281 29.8059082 30.76538086 C29.76491165 34.11695067 29.74704501 37.46855444 29.7265625 40.8203125 C29.68585035 47.39125431 29.60755851 53.96023902 29.53125 60.53125 C16.00125 60.53125 2.47125 60.53125 -11.46875 60.53125 C-11.5605221 52.62865291 -11.64018333 44.72790051 -11.68847656 36.82519531 C-11.706349 34.13620534 -11.73419475 31.44759174 -11.77050781 28.75878906 C-11.81896615 24.89637439 -11.84170626 21.03453792 -11.859375 17.171875 C-11.88002014 15.9675885 -11.90066528 14.763302 -11.92193604 13.52252197 C-11.92223816 12.40166199 -11.92254028 11.280802 -11.92285156 10.12597656 C-11.93173401 9.14002502 -11.94061646 8.15407349 -11.94976807 7.13824463 C-10.72733282 0.51295891 -5.84398447 -0.06871254 0 0 Z " fill="#F9B504" transform="translate(200.46875,214.46875)"/>
<path d="M0 0 C0.64356445 0.04253906 1.28712891 0.08507812 1.95019531 0.12890625 C4.07492318 0.28386537 6.19234778 0.4794805 8.3125 0.6875 C8.99401123 0.74059326 9.67552246 0.79368652 10.37768555 0.84838867 C14.06355868 1.26759839 16.04975295 2.03710714 19.04296875 4.26953125 C21 7 21 7 21.0859375 9.26953125 C19.51515995 13.21907624 17.63200151 16.94342598 15.625 20.6875 C15.22539062 21.45900391 14.82578125 22.23050781 14.4140625 23.02539062 C14.0221875 23.76337891 13.6303125 24.50136719 13.2265625 25.26171875 C12.87158691 25.93162842 12.51661133 26.60153809 12.15087891 27.29174805 C11 29 11 29 8 31 C4.9375 30.8125 4.9375 30.8125 2 30 C0.25372522 27.38058783 -0.38722388 25.96175123 -1 23 C-1.73186523 23.35602295 -2.46373047 23.7120459 -3.21777344 24.07885742 C-16.72109875 30.64058366 -30.24016771 37.15257947 -43.875 43.4375 C-55.46507657 48.78046657 -66.96497871 54.2933696 -78.43505859 59.88842773 C-81.95149748 61.60314111 -85.47492472 63.30310382 -89 65 C-90.04526855 65.51046875 -91.09053711 66.0209375 -92.16748047 66.546875 C-93.61405029 67.23523438 -93.61405029 67.23523438 -95.08984375 67.9375 C-95.92249756 68.33839844 -96.75515137 68.73929687 -97.61303711 69.15234375 C-100.25488543 70.0905147 -102.21653894 70.24042598 -105 70 C-106.8125 68.875 -106.8125 68.875 -108 67 C-108.375 64 -108.375 64 -108 61 C-105.7462584 58.12042374 -103.03322918 56.909521 -99.7421875 55.42578125 C-98.65873047 54.93142578 -97.57527344 54.43707031 -96.45898438 53.92773438 C-94.68491211 53.12819336 -94.68491211 53.12819336 -92.875 52.3125 C-90.31810438 51.14672266 -87.76418588 49.97452239 -85.2109375 48.80078125 C-84.54378723 48.49447784 -83.87663696 48.18817444 -83.18927002 47.87258911 C-75.57083967 44.36238502 -68.03657155 40.68177692 -60.5 37 C-48.69728834 31.23808856 -36.84058333 25.61482604 -24.89257812 20.16015625 C-19.43760052 17.6576319 -14.14399243 15.095239 -9 12 C-9.99 11.1646875 -9.99 11.1646875 -11 10.3125 C-13 8 -13 8 -13.4375 5.4375 C-12.1425107 -1.77744038 -5.78502631 -0.39995244 0 0 Z " fill="#CFCFCF" transform="translate(285,121)"/>
</svg>
