<?xml version="1.0" encoding="UTF-8"?>
<svg version="1.1" xmlns="http://www.w3.org/2000/svg" width="512" height="512">
<path d="M0 0 C2.63020783 4.52980238 1.01032561 10.13963743 -0.24804688 14.94726562 C-0.43431641 15.62466797 -0.62058594 16.30207031 -0.8125 17 C-8.97158531 47.47403946 -3.12476324 78.76846426 12.125 105.9375 C17.42533675 114.98500106 23.89194035 122.43734066 31.125 129.9375 C31.78113281 130.65679687 32.43726563 131.37609375 33.11328125 132.1171875 C43.16985435 142.84132755 55.85106253 149.97389698 69.125 155.9375 C70.19234375 156.42089844 71.2596875 156.90429688 72.359375 157.40234375 C89.05355453 164.37237556 105.16321839 165.3753389 123.00292969 164.96606445 C123.70678299 164.95258469 124.41063629 164.93910492 125.13581848 164.92521667 C127.07182582 164.88512693 129.00750453 164.82998672 130.94311523 164.77392578 C134.00792428 164.93148138 135.6552203 165.15383216 138.125 166.9375 C139.19496127 170.27298795 139.3731251 172.21793722 138.2265625 175.54296875 C134.17321733 182.63096123 129.48064436 188.78477813 124.125 194.9375 C123.43664062 195.77152344 122.74828125 196.60554687 122.0390625 197.46484375 C103.7306789 219.00612036 74.4202852 234.16668902 46.28466797 236.79248047 C31.42327327 237.79040817 16.60687962 237.61589742 2.125 233.9375 C1.13113281 233.68806641 1.13113281 233.68806641 0.1171875 233.43359375 C-29.696155 225.66370719 -55.03046268 206.51243776 -71.875 180.9375 C-72.514375 179.97070312 -73.15375 179.00390625 -73.8125 178.0078125 C-84.07503557 161.46863687 -90.19001613 141.40245831 -90.875 121.9375 C-90.9265625 120.93460937 -90.978125 119.93171875 -91.03125 118.8984375 C-91.95870991 85.8963222 -79.65457242 54.29618645 -57.17431641 30.26611328 C-46.98307241 19.72259677 -15.73068889 -8.91405704 0 0 Z " fill="#000000" transform="translate(231.875,138.0625)"/>
<path d="M0 0 C0.74330566 0.17660156 1.48661133 0.35320312 2.25244141 0.53515625 C46.86218558 11.35935839 84.8203299 41.47663529 108.84326172 80.05712891 C112.28636079 85.84019823 115.17811202 91.89601532 118 98 C118.81791016 99.74410156 118.81791016 99.74410156 119.65234375 101.5234375 C123.67008377 110.45856416 126.66159634 119.50353727 129 129 C129.19899902 129.7935791 129.39799805 130.5871582 129.60302734 131.40478516 C135.84835282 157.48579629 135.20510833 186.99299383 129 213 C128.82339844 213.76038574 128.64679688 214.52077148 128.46484375 215.30419922 C117.90131751 259.2113004 87.92401563 297.27675311 50.12109375 321.18847656 C32.91781358 331.70649847 14.59380747 338.45367621 -5 343 C-5.74024414 343.17934082 -6.48048828 343.35868164 -7.24316406 343.54345703 C-36.84729622 350.44743134 -71.67268789 347.39173054 -100 337 C-101.85431641 336.32130859 -101.85431641 336.32130859 -103.74609375 335.62890625 C-123.47885824 328.16661324 -141.042505 317.82492655 -157 304 C-157.82886719 303.29359375 -158.65773437 302.5871875 -159.51171875 301.859375 C-192.27006881 273.26652942 -213.78517913 231.12647908 -217.1824646 187.66577148 C-217.46843236 182.21500242 -217.47999062 176.76925188 -217.4375 171.3125 C-217.43479095 170.48916168 -217.43208191 169.66582336 -217.42929077 168.8175354 C-217.36174865 155.21888996 -216.29880261 142.23647988 -213 129 C-212.74307373 127.90099365 -212.74307373 127.90099365 -212.48095703 126.77978516 C-201.98239586 82.67776016 -171.86693211 44.40985689 -133.80322266 20.62744141 C-117.09017364 10.50272476 -99.01927428 3.4018594 -80 -1 C-79.33436035 -1.16371094 -78.6687207 -1.32742187 -77.98291016 -1.49609375 C-53.55675866 -7.28422463 -24.183062 -6.04952141 0 0 Z M-152 57 C-152.88429687 57.81984375 -153.76859375 58.6396875 -154.6796875 59.484375 C-175.9244184 79.8263553 -190.2382603 107.53124129 -197 136 C-197.16371094 136.68336426 -197.32742187 137.36672852 -197.49609375 138.07080078 C-202.24791463 159.076009 -202.23555939 184.12832254 -197 205 C-196.80132324 205.81936035 -196.60264648 206.6387207 -196.39794922 207.48291016 C-189.40529889 235.69969468 -176.00580169 259.86804391 -156 281 C-155.18015625 281.88429688 -154.3603125 282.76859375 -153.515625 283.6796875 C-132.93269977 305.17605615 -105.59264894 318.75488365 -77 326 C-76.31131836 326.17934082 -75.62263672 326.35868164 -74.91308594 326.54345703 C-37.40870201 335.84107264 5.81495359 327.24038772 38.671875 307.87890625 C42.20778682 305.71588047 45.62372016 303.40342044 49 301 C49.56251465 300.59974609 50.1250293 300.19949219 50.70458984 299.78710938 C82.76625738 276.57917676 103.10934864 244.05502349 113 206 C113.18224121 205.30551758 113.36448242 204.61103516 113.55224609 203.89550781 C118.68920225 183.15345002 118.39661084 156.64371989 113 136 C112.79600586 135.20529297 112.59201172 134.41058594 112.38183594 133.59179688 C105.02239796 105.67520972 91.82955151 81.96457634 72 61 C71.19304687 60.12859375 70.38609375 59.2571875 69.5546875 58.359375 C48.93139897 36.81265564 21.74682389 23.12648218 -7 16 C-8.27875 15.67902344 -9.5575 15.35804687 -10.875 15.02734375 C-61.54223635 3.8886188 -114.99196388 21.96417897 -152 57 Z " fill="#000000" transform="translate(298,85)"/>
<path d="M0 0 C2.68485012 1.85874239 3.69740135 3.15630131 4.79296875 6.2109375 C5.07797349 10.05043535 3.63568712 12.64305506 1.875 15.9375 C1.5246167 16.61192139 1.1742334 17.28634277 0.81323242 17.98120117 C-2.543831 24.33637882 -6.09586335 30.58764325 -9.6875 36.8125 C-10.2335791 37.77341553 -10.7796582 38.73433105 -11.34228516 39.72436523 C-11.87257324 40.62614502 -12.40286133 41.5279248 -12.94921875 42.45703125 C-13.41674561 43.26116455 -13.88427246 44.06529785 -14.3659668 44.89379883 C-16.32350784 47.41698822 -18.12529423 48.63031493 -21 50 C-24.44947304 49.88105265 -26.93335319 49.67554298 -29.875 47.8125 C-31.50592767 45.18489431 -31.76139828 43.08346834 -32 40 C-30.91796875 36.94921875 -30.91796875 36.94921875 -29.1875 33.6875 C-28.87707764 33.09573975 -28.56665527 32.50397949 -28.24682617 31.89428711 C-24.45516637 24.77444377 -20.30690372 17.84465723 -16.14306641 10.93798828 C-15.01249329 9.0211815 -13.95051917 7.07551778 -12.88671875 5.12109375 C-9.67306392 -0.19507645 -5.90231436 -0.96388601 0 0 Z " fill="#000000" transform="translate(384,33)"/>
<path d="M0 0 C4.95230709 4.06221451 7.98679815 10.12103762 10.9375 15.6875 C11.79815436 17.28066431 12.66013855 18.87311093 13.5234375 20.46484375 C13.94077148 21.23683105 14.35810547 22.00881836 14.78808594 22.80419922 C16.96877773 26.75527536 19.34113169 30.58902136 21.72265625 34.421875 C23.16745441 37.33798138 23.72436545 39.76351687 24 43 C22.77798287 45.82993441 21.66886714 47.47446153 19.25 49.375 C15.61016323 50.38606577 13.61852786 50.18537982 10 49 C8.60595703 47.37670898 8.60595703 47.37670898 7.2578125 45.24609375 C6.74202637 44.43342041 6.22624023 43.62074707 5.69482422 42.78344727 C2.48644981 37.51426308 -0.65855411 32.21366589 -3.75 26.875 C-4.42831348 25.72261391 -5.10669854 24.57026994 -5.78515625 23.41796875 C-6.42839844 22.30808594 -7.07164062 21.19820312 -7.734375 20.0546875 C-8.31413086 19.05937012 -8.89388672 18.06405273 -9.49121094 17.03857422 C-11.14148223 13.71506669 -12.21869439 10.62749033 -13 7 C-10.56155664 0.41620292 -7.01570739 -1.58206224 0 0 Z " fill="#000000" transform="translate(136,33)"/>
<path d="M0 0 C0.72654785 0.43771729 1.4530957 0.87543457 2.20166016 1.32641602 C3.67824773 2.21809628 5.15240969 3.11380659 6.62402344 4.01367188 C8.62066721 5.2334864 10.62511501 6.43911922 12.6328125 7.640625 C22.78174466 13.76226883 22.78174466 13.76226883 24.75 16.3125 C25.5 23.0625 25.5 23.0625 23.25 26.8125 C19.68858997 28.94934602 16.73878236 29.05708326 12.75 28.3125 C8.44219111 26.46885636 4.46670509 24.13275939 0.4375 21.75 C-1.15868164 20.83637695 -1.15868164 20.83637695 -2.78710938 19.90429688 C-5.96242138 18.0735038 -9.10959049 16.20245643 -12.25 14.3125 C-13.82080322 13.37881592 -13.82080322 13.37881592 -15.42333984 12.42626953 C-16.41156738 11.82282715 -17.39979492 11.21938477 -18.41796875 10.59765625 C-19.30121826 10.06148682 -20.18446777 9.52531738 -21.09448242 8.97290039 C-23.40647742 7.19196507 -24.31659757 6.05625818 -25.25 3.3125 C-24.93292683 -2.71189024 -24.93292683 -2.71189024 -22.9375 -5.5625 C-15.5270075 -10.50282833 -6.51533686 -4.00359392 0 0 Z " fill="#000000" transform="translate(454.25,359.6875)"/>
<path d="M0 0 C4.30780889 1.84364364 8.28329491 4.17974061 12.3125 6.5625 C13.37662109 7.17158203 14.44074219 7.78066406 15.53710938 8.40820312 C18.71242138 10.2389962 21.85959049 12.11004357 25 14 C26.57080322 14.93368408 26.57080322 14.93368408 28.17333984 15.88623047 C29.16156738 16.48967285 30.14979492 17.09311523 31.16796875 17.71484375 C32.05121826 18.25101318 32.93446777 18.78718262 33.84448242 19.33959961 C36.15647742 21.12053493 37.06659757 22.25624182 38 25 C37.82025445 28.41516549 37.67028381 30.99457428 35.75 33.875 C33.33086634 35.43015736 31.90827206 35.87074346 29 36 C23.13525291 34.08051454 18.07337807 31.50612356 12.8125 28.3125 C12.08144043 27.87478271 11.35038086 27.43706543 10.59716797 26.98608398 C8.39414903 25.66384075 6.19704004 24.33214646 4 23 C2.70463812 22.22360613 1.40907728 21.44754406 0.11328125 20.671875 C-10.03676328 14.54372864 -10.03676328 14.54372864 -12 12 C-12.75 5.25 -12.75 5.25 -10.5 1.5 C-6.93858997 -0.63684602 -3.98878236 -0.74458326 0 0 Z " fill="#000000" transform="translate(45,124)"/>
<path d="M0 0 C2.5 1.5 2.5 1.5 4 4 C5.37249997 11.89657519 1.41881707 17.55570678 -2.50634766 24.12695312 C-3.6168675 25.98638312 -4.70294943 27.85835299 -5.78515625 29.734375 C-14.20240117 44.20240117 -14.20240117 44.20240117 -19 49 C-26.15309446 49.58631922 -26.15309446 49.58631922 -29.4375 47.3125 C-31.24225908 44.64145656 -31.76122671 43.21668165 -32 40 C-31.07597913 37.51480662 -30.11445701 35.38247155 -28.875 33.0625 C-28.52606689 32.38880371 -28.17713379 31.71510742 -27.81762695 31.02099609 C-24.44717083 24.62650575 -20.82989321 18.36742789 -17.1875 12.125 C-16.62466309 11.15570557 -16.06182617 10.18641113 -15.48193359 9.18774414 C-14.9452002 8.2827417 -14.4084668 7.37773926 -13.85546875 6.4453125 C-13.37746826 5.63594238 -12.89946777 4.82657227 -12.40698242 3.99267578 C-9.21435718 -0.52896351 -5.1293499 -0.80500864 0 0 Z " fill="#000000" transform="translate(155,430)"/>
<path d="M0 0 C2.5 1.5 2.5 1.5 4 4 C4.86882934 8.89703808 4.86882934 8.89703808 4 12 C-1.67477912 17.78746977 -8.55243843 21.34353817 -15.625 25.1875 C-17.84663107 26.40965304 -20.06799519 27.63229147 -22.2890625 28.85546875 C-23.26568848 29.38809326 -24.24231445 29.92071777 -25.24853516 30.46948242 C-27.09672474 31.49754812 -28.92296264 32.56601211 -30.72583008 33.67163086 C-34.38019011 35.80618512 -36.81328361 35.39873489 -41 35 C-43.4375 33.9375 -43.4375 33.9375 -45 32 C-46.03237592 28.28344668 -46.48086035 26.05341105 -44.85791016 22.49804688 C-42.64378949 19.52105835 -40.56566185 18.21903329 -37.3359375 16.40625 C-35.65177734 15.44912109 -35.65177734 15.44912109 -33.93359375 14.47265625 C-32.74754782 13.81483006 -31.56134897 13.15727952 -30.375 12.5 C-29.21159932 11.84358139 -28.04883238 11.18603825 -26.88671875 10.52734375 C-24.63386674 9.25577962 -22.37671815 7.99179268 -20.11499023 6.73608398 C-18.17069846 5.65246781 -16.23385521 4.55524263 -14.30883789 3.43774414 C-13.13309204 2.75893188 -13.13309204 2.75893188 -11.93359375 2.06640625 C-11.26900146 1.67654541 -10.60440918 1.28668457 -9.91967773 0.88500977 C-6.38702259 -0.74361479 -3.83492447 -0.58498848 0 0 Z " fill="#000000" transform="translate(475,124)"/>
<path d="M0 0 C7.35482683 2.20507844 10.74228399 11.66847523 14.09765625 17.81640625 C14.7009375 18.90244141 15.30421875 19.98847656 15.92578125 21.10742188 C17.6729008 24.26932846 19.39147778 27.44474815 21.09765625 30.62890625 C21.87399414 32.05904053 21.87399414 32.05904053 22.66601562 33.51806641 C23.12814453 34.39640137 23.59027344 35.27473633 24.06640625 36.1796875 C24.67645508 37.32884644 24.67645508 37.32884644 25.29882812 38.5012207 C26.20324303 40.91013754 26.208743 42.15001128 25.59765625 44.62890625 C24.09765625 47.62890625 24.09765625 47.62890625 21.09765625 49.62890625 C17.94283798 50.09437124 16.10474824 50.35140347 13.09765625 49.62890625 C7.30078327 43.96890388 3.75169121 37.07200259 -0.08984375 30.00390625 C-1.31199679 27.78227518 -2.53463522 25.56091106 -3.7578125 23.33984375 C-4.29043701 22.36321777 -4.82306152 21.3865918 -5.37182617 20.38037109 C-6.39971223 18.53250447 -7.46740827 16.70627604 -8.57177734 14.90307617 C-10.72893537 11.21611709 -10.37183382 8.85431686 -9.90234375 4.62890625 C-7.4168839 0.48647317 -4.70555012 0.1590345 0 0 Z " fill="#000000" transform="translate(362.90234375,429.37109375)"/>
<path d="M0 0 C2.4375 1.0625 2.4375 1.0625 4 3 C5.03237592 6.71655332 5.48086035 8.94658895 3.85791016 12.50195312 C1.64378949 15.47894165 -0.43433815 16.78096671 -3.6640625 18.59375 C-4.78683594 19.23183594 -5.90960938 19.86992187 -7.06640625 20.52734375 C-8.25245218 21.18516994 -9.43865103 21.84272048 -10.625 22.5 C-11.78840068 23.15641861 -12.95116762 23.81396175 -14.11328125 24.47265625 C-16.36616788 25.74423992 -18.62331713 27.00830602 -20.88500977 28.26416016 C-22.82901531 29.34746444 -24.76581014 30.44393784 -26.69116211 31.56005859 C-27.47499268 32.01203613 -28.25882324 32.46401367 -29.06640625 32.9296875 C-30.06329468 33.51339111 -30.06329468 33.51339111 -31.08032227 34.10888672 C-34.65367726 35.76763602 -37.11721195 35.65809967 -41 35 C-43.99993115 32.45005852 -44.85480459 30.87117244 -45.5 27 C-44.86785158 23.20710946 -43.6045169 21.81396447 -41 19 C-38.05493164 17.01123047 -38.05493164 17.01123047 -34.66015625 15.1171875 C-34.05618515 14.77624054 -33.45221405 14.43529358 -32.8299408 14.08401489 C-30.9127803 13.00451249 -28.98802114 11.93950398 -27.0625 10.875 C-25.77354451 10.15331455 -24.48512739 9.43066667 -23.19726562 8.70703125 C-20.82626543 7.37521928 -18.45192236 6.05031682 -16.07446289 4.72998047 C-14.10481485 3.6216722 -12.1530809 2.48051652 -10.2265625 1.29882812 C-6.60501226 -0.81374285 -4.14608475 -0.39486521 0 0 Z " fill="#000000" transform="translate(78,353)"/>
<path d="M0 0 C2.09495403 3.14243105 2.25626893 3.91169603 2.29052734 7.49975586 C2.3096669 8.8614817 2.3096669 8.8614817 2.32919312 10.25071716 C2.33141876 11.22887894 2.33364441 12.20704071 2.3359375 13.21484375 C2.3425943 14.22213028 2.3492511 15.22941681 2.35610962 16.26722717 C2.36623725 18.39810356 2.37092661 20.52901168 2.37060547 22.65991211 C2.37497867 25.921592 2.41129789 29.18191897 2.44921875 32.44335938 C2.45508682 34.5130162 2.45905628 36.58267946 2.4609375 38.65234375 C2.47530853 39.62848129 2.48967957 40.60461884 2.50448608 41.6103363 C2.4588262 48.37012895 2.4588262 48.37012895 0.09619141 51.61352539 C-2.16372442 53.10829152 -3.31357074 53.54197546 -6 53.5 C-6.99 53.51546875 -6.99 53.51546875 -8 53.53125 C-11.11282299 52.70440639 -12.08244684 51.62412341 -14 49 C-14.61254779 45.56755178 -14.56020096 42.16651229 -14.53125 38.6875 C-14.5350769 37.68162842 -14.53890381 36.67575684 -14.54284668 35.6394043 C-14.54556651 33.51447549 -14.53820041 31.38951324 -14.52148438 29.26464844 C-14.50007641 26.01161068 -14.52128432 22.76078155 -14.546875 19.5078125 C-14.54423174 17.44270346 -14.53910679 15.37759579 -14.53125 13.3125 C-14.53934692 12.33949951 -14.54744385 11.36649902 -14.55578613 10.36401367 C-14.46248587 3.64699081 -14.46248587 3.64699081 -12.15429688 0.41796875 C-7.59546553 -2.58267636 -4.97254847 -1.80819944 0 0 Z " fill="#000000" transform="translate(262,459)"/>
<path d="M0 0 C0.90789276 -0.01283524 1.81578552 -0.02567047 2.75119019 -0.03889465 C3.73451324 -0.04628159 4.7178363 -0.05366852 5.73095703 -0.0612793 C6.73965851 -0.06935104 7.74835999 -0.07742279 8.78762817 -0.08573914 C10.924482 -0.09958397 13.06135797 -0.11030433 15.19824219 -0.11816406 C18.46868648 -0.13539225 21.73812406 -0.17927702 25.00830078 -0.22338867 C27.08251208 -0.23351406 29.15673199 -0.24203064 31.23095703 -0.2487793 C32.69986893 -0.27504143 32.69986893 -0.27504143 34.19845581 -0.30183411 C40.98499001 -0.28011618 40.98499001 -0.28011618 44.22949219 2.07861328 C45.72095435 4.33948052 46.15573041 5.49150551 46.11376953 8.17700195 C46.12408203 8.83700195 46.13439453 9.49700195 46.14501953 10.17700195 C45.31817592 13.28982495 44.23789294 14.2594488 41.61376953 16.17700195 C38.18132131 16.78954974 34.78028182 16.73720291 31.30126953 16.70825195 C30.29539795 16.71207886 29.28952637 16.71590576 28.25317383 16.71984863 C26.12824502 16.72256846 24.00328277 16.71520236 21.87841797 16.69848633 C18.62538021 16.67707836 15.37455108 16.69828627 12.12158203 16.72387695 C10.05647299 16.72123369 7.99136532 16.71610875 5.92626953 16.70825195 C4.95326904 16.71634888 3.98026855 16.7244458 2.9777832 16.73278809 C-3.75193216 16.63931152 -3.75193216 16.63931152 -6.97216797 14.29223633 C-8.67767806 11.74103822 -9.31281379 10.26050256 -9.38623047 7.17700195 C-7.14315872 1.62272906 -5.89047387 0.07242234 0 0 Z " fill="#000000" transform="translate(466.38623046875,247.822998046875)"/>
<path d="M0 0 C1.00587158 -0.0038269 2.01174316 -0.00765381 3.0480957 -0.01159668 C5.17302451 -0.01431651 7.29798676 -0.00695041 9.42285156 0.00976562 C12.67588932 0.03117359 15.92671845 0.00996568 19.1796875 -0.015625 C21.24479654 -0.01298174 23.30990421 -0.00785679 25.375 0 C26.34800049 -0.00809692 27.32100098 -0.01619385 28.32348633 -0.02453613 C35.05320169 0.06894043 35.05320169 0.06894043 38.2734375 2.41601562 C39.9789476 4.96721374 40.61408332 6.44774939 40.6875 9.53125 C38.41039157 15.16980422 38.41039157 15.16980422 35.6875 16.53125 C34.22834115 16.64081812 32.76442574 16.6902627 31.30126953 16.70825195 C30.39337677 16.72108719 29.48548401 16.73392242 28.55007935 16.74714661 C27.07509476 16.75822701 27.07509476 16.75822701 25.5703125 16.76953125 C24.56161102 16.777603 23.55290955 16.78567474 22.51364136 16.79399109 C20.37678754 16.80783592 18.23991156 16.81855629 16.10302734 16.82641602 C12.83258305 16.84364421 9.56314547 16.88752897 6.29296875 16.93164062 C4.21875745 16.94176601 2.14453754 16.95028259 0.0703125 16.95703125 C-0.9089621 16.97453934 -1.88823669 16.99204742 -2.89718628 17.01008606 C-9.68372048 16.98836813 -9.68372048 16.98836813 -12.92822266 14.62963867 C-14.41968482 12.36877143 -14.85446088 11.21674645 -14.8125 8.53125 C-14.82796875 7.54125 -14.82796875 7.54125 -14.84375 6.53125 C-12.87797613 -0.86931045 -6.27408528 -0.05221045 0 0 Z " fill="#000000" transform="translate(14.3125,247.46875)"/>
<path d="M0 0 C0.66 -0.0103125 1.32 -0.020625 2 -0.03125 C5.11282299 0.79559361 6.08244684 1.87587659 8 4.5 C8.61254779 7.93244822 8.56020096 11.33348771 8.53125 14.8125 C8.5350769 15.81837158 8.53890381 16.82424316 8.54284668 17.8605957 C8.54556651 19.98552451 8.53820041 22.11048676 8.52148438 24.23535156 C8.50007641 27.48838932 8.52128432 30.73921845 8.546875 33.9921875 C8.54423174 36.05729654 8.53910679 38.12240421 8.53125 40.1875 C8.53934692 41.16050049 8.54744385 42.13350098 8.55578613 43.13598633 C8.46230957 49.86570169 8.46230957 49.86570169 6.11523438 53.0859375 C3.56403626 54.7914476 2.08350061 55.42658332 -1 55.5 C-6.63855422 53.22289157 -6.63855422 53.22289157 -8 50.5 C-8.10956812 49.04084115 -8.1590127 47.57692574 -8.17700195 46.11376953 C-8.18983719 45.20587677 -8.20267242 44.29798401 -8.21589661 43.36257935 C-8.22328354 42.37925629 -8.23067047 41.39593323 -8.23828125 40.3828125 C-8.246353 39.37411102 -8.25442474 38.36540955 -8.26274109 37.32614136 C-8.27658592 35.18928754 -8.28730629 33.05241156 -8.29516602 30.91552734 C-8.31239421 27.64508305 -8.35627897 24.37564547 -8.40039062 21.10546875 C-8.41051601 19.03125745 -8.41903259 16.95703754 -8.42578125 14.8828125 C-8.44328934 13.9035379 -8.46079742 12.92426331 -8.47883606 11.91531372 C-8.45711813 5.12877952 -8.45711813 5.12877952 -6.09838867 1.88427734 C-3.83752143 0.39281518 -2.68549645 -0.04196088 0 0 Z " fill="#000000" transform="translate(256,-0.5)"/>
</svg>
