<?xml version="1.0" encoding="UTF-8"?>
<svg version="1.1" xmlns="http://www.w3.org/2000/svg" width="512" height="512">
<path d="M0 0 C1.7619873 0.00040787 1.7619873 0.00040787 3.55957031 0.00082397 C35.96225139 0.03482155 68.31007564 1.23686967 100.625 3.625 C101.39730957 3.68039948 102.16961914 3.73579895 102.96533203 3.7928772 C111.31020865 4.40423463 119.57685467 5.29412056 127.84375 6.59765625 C128.58459839 6.7094371 129.32544678 6.82121796 130.08874512 6.93638611 C142.12622831 8.95480337 148.10033356 16.87046364 155.125 26.1875 C157.61574627 29.88038659 159.91802575 33.66788106 162.1875 37.5 C163.14740845 39.11310059 163.14740845 39.11310059 164.12670898 40.75878906 C177.11120497 62.86019383 188.12437376 86.05515026 199.125 109.1875 C203.97996696 107.4673627 205.71170061 105.84172025 208.125 101.1875 C208.48058233 99.11838473 208.48058233 99.11838473 208.625 97 C209.125 93.1875 209.125 93.1875 210.82568359 91.47412109 C213.56615553 89.94064402 215.28572176 89.80055772 218.4140625 89.7890625 C219.95126953 89.78326172 219.95126953 89.78326172 221.51953125 89.77734375 C223.11861328 89.79474609 223.11861328 89.79474609 224.75 89.8125 C225.79285156 89.80089844 226.83570313 89.78929687 227.91015625 89.77734375 C237.67490288 89.81391583 246.04639872 91.10889872 253.125 98.1875 C255.01612656 101.96975312 254.87549082 106.08818039 254.125 110.1875 C248.67992944 118.2782945 237.12285883 120.73202104 228.22241211 122.48120117 C223.88727036 123.26641589 219.53304933 123.78267403 215.15625 124.2734375 C214.37926758 124.36262451 213.60228516 124.45181152 212.80175781 124.54370117 C210.90976199 124.760553 209.01741634 124.97434909 207.125 125.1875 C207.5876123 126.05737549 208.05022461 126.92725098 208.52685547 127.82348633 C208.83527374 128.40350906 209.14369202 128.9835318 209.4614563 129.58113098 C210.1590377 130.89300741 210.85669196 132.20484509 211.55441284 133.51664734 C213.49004113 137.15669306 215.42333361 140.79795195 217.35253906 144.44140625 C222.27576027 153.73938143 222.27576027 153.73938143 227.3046875 162.98046875 C250.33649272 204.94534081 244.37084182 259.83788127 232.6875 304.5625 C232.51887451 305.23869385 232.35024902 305.9148877 232.17651367 306.61157227 C231.08853518 310.41003841 229.60911777 312.89328717 227.06103516 315.80883789 C223.49067879 320.49214135 223.37375907 324.17369613 223.64453125 329.91015625 C223.66013596 330.81446884 223.67574066 331.71878143 223.69181824 332.65049744 C223.74488095 335.51852986 223.83827936 338.38322359 223.9375 341.25 C224.02072731 344.12001553 224.09484832 346.98953854 224.15104675 349.86021423 C224.18743064 351.63925641 224.23985467 353.41806842 224.31098938 355.19606018 C224.44288666 360.67937332 223.75052957 364.33902465 221.125 369.1875 C217.23361186 372.88431873 214.16344068 374.30061495 208.84057617 374.34863281 C207.97925583 374.35824036 207.11793549 374.3678479 206.23051453 374.37774658 C205.30237442 374.38199646 204.37423431 374.38624634 203.41796875 374.390625 C202.45981766 374.39632507 201.50166656 374.40202515 200.51448059 374.40789795 C198.48614607 374.41734545 196.45779622 374.42388094 194.42944336 374.42773438 C191.33484931 374.43742998 188.24092228 374.46845177 185.14648438 374.5 C183.1744831 374.5065313 181.20247709 374.51178127 179.23046875 374.515625 C178.30840134 374.5279718 177.38633392 374.5403186 176.43632507 374.55303955 C171.23605363 374.53511702 167.62424738 374.09640839 163.125 371.1875 C159.07223666 366.71548528 158.98506338 362.46208662 159.02734375 356.67578125 C159.02946617 355.58344429 159.02946617 355.58344429 159.03163147 354.46903992 C159.03722341 352.14598461 159.04977438 349.82302612 159.0625 347.5 C159.06751604 345.92382952 159.07207877 344.34765752 159.07617188 342.77148438 C159.0871902 338.91011902 159.10444926 335.04882592 159.125 331.1875 C158.40003515 331.19877898 157.6750703 331.21005796 156.92813683 331.22167873 C107.60208536 331.98427164 58.27844368 332.43899341 8.94735026 332.70490873 C2.57556327 332.73946397 -3.79620506 332.77658278 -10.16796875 332.81518555 C-60.07080653 333.11724009 -109.97125773 333.25218922 -159.875 333.1875 C-159.80468189 333.80319288 -159.73436378 334.41888577 -159.66191483 335.05323601 C-159.5705563 335.86210825 -159.47919777 336.67098049 -159.3850708 337.50436401 C-159.29412769 338.3056819 -159.20318459 339.10699978 -159.10948563 339.93260002 C-158.64623916 344.38734828 -158.64948436 348.83798406 -158.625 353.3125 C-158.604375 354.26253906 -158.58375 355.21257812 -158.5625 356.19140625 C-158.52407138 363.1181652 -159.2813103 368.10749348 -163.875 373.5625 C-166.93201157 376.0463219 -169.53981045 376.31725519 -173.34301758 376.36450195 C-174.24437943 376.37733719 -175.14574127 376.39017242 -176.07441711 376.40339661 C-177.53224861 376.41447701 -177.53224861 376.41447701 -179.01953125 376.42578125 C-180.02207443 376.433853 -181.02461761 376.44192474 -182.05754089 376.45024109 C-184.18002598 376.46407363 -186.30253324 376.4747995 -188.42504883 376.48266602 C-191.66465561 376.49987862 -194.90324175 376.54377275 -198.14257812 376.58789062 C-200.20572167 376.59801787 -202.26887388 376.60653387 -204.33203125 376.61328125 C-205.29784622 376.63078934 -206.26366119 376.64829742 -207.25874329 376.66633606 C-212.93277305 376.64811096 -216.53128982 376.2216941 -220.875 372.1875 C-224.33472305 367.21429032 -224.26162335 362.70577322 -224.17578125 356.87890625 C-224.18342191 355.06184531 -224.19191156 353.24478778 -224.20117188 351.42773438 C-224.19896187 348.58591079 -224.18744933 345.7447715 -224.15991211 342.90307617 C-224.13912649 340.14432304 -224.15525574 337.3876191 -224.17578125 334.62890625 C-224.15727615 333.78703262 -224.13877106 332.945159 -224.1197052 332.07777405 C-224.18943978 326.42707054 -225.46557328 323.79310443 -229.39476013 319.76170349 C-235.66631748 313.09203617 -237.23932763 301.58818473 -239 292.9375 C-239.37838013 291.12028442 -239.37838013 291.12028442 -239.7644043 289.26635742 C-243.23134955 272.09976623 -245.37252201 254.69885796 -245.875 237.1875 C-245.89691406 236.4852832 -245.91882813 235.78306641 -245.94140625 235.05957031 C-246.48852907 214.7339576 -245.06283199 194.62377664 -236.80078125 175.828125 C-236.49951324 175.14197617 -236.19824524 174.45582733 -235.8878479 173.74888611 C-232.22464194 165.54953974 -227.99811868 157.65705018 -223.75 149.75 C-222.95650688 148.26134709 -222.16353657 146.77241539 -221.37109375 145.28320312 C-217.60377795 138.21469505 -213.79641311 131.17202496 -209.875 124.1875 C-211.15375 124.249375 -212.4325 124.31125 -213.75 124.375 C-227.59027174 124.33573682 -246.42487331 121.95669957 -256.75390625 111.98828125 C-259.08741371 108.24003407 -258.83433036 104.37181325 -257.875 100.1875 C-255.99132087 96.24740261 -253.23489327 94.3738733 -249.375 92.375 C-242.47611142 90.03430566 -236.04083404 89.97185928 -228.8125 89.9375 C-227.72388672 89.916875 -226.63527344 89.89625 -225.51367188 89.875 C-224.46630859 89.86984375 -223.41894531 89.8646875 -222.33984375 89.859375 C-221.387146 89.8500293 -220.43444824 89.84068359 -219.45288086 89.83105469 C-216.42303715 90.24999321 -215.07153976 91.09150496 -212.875 93.1875 C-212.1875 95.4921875 -212.1875 95.4921875 -211.875 98.0625 C-211.14377554 102.46267528 -210.21473363 105.04422129 -206.875 108.1875 C-204.75839573 109.49915257 -204.75839573 109.49915257 -202.875 110.1875 C-202.6063916 109.32882324 -202.3377832 108.47014648 -202.06103516 107.58544922 C-200.8757369 104.18961118 -199.4687189 101.054832 -197.8984375 97.8203125 C-197.61221527 97.22841125 -197.32599304 96.63651001 -197.03109741 96.02667236 C-196.10782192 94.12009833 -195.17916645 92.21620912 -194.25 90.3125 C-193.60822198 88.99178495 -192.96662126 87.67098373 -192.32519531 86.35009766 C-190.51477541 82.62612611 -188.69617714 78.90622281 -186.875 75.1875 C-186.24223145 73.89489258 -186.24223145 73.89489258 -185.59667969 72.57617188 C-183.71336916 68.74100448 -181.80464129 64.92009842 -179.85986328 61.11572266 C-179.15429744 59.73432479 -178.45258929 58.35095392 -177.75341797 56.96630859 C-157.63275509 17.21011528 -157.63275509 17.21011528 -143.875 10.1875 C-122.08527406 3.5020159 -97.15271898 3.91303993 -74.5625 2.5625 C-73.51911469 2.50006104 -72.47572937 2.43762207 -71.40072632 2.37329102 C-47.59577889 0.96478895 -23.84997758 -0.02108168 0 0 Z " fill="#FD6F58" transform="translate(257.875,67.8125)"/>
<path d="M0 0 C0.94060461 0.00134005 1.88120922 0.00268009 2.850317 0.00406075 C25.86403268 0.04038914 48.86916613 0.49348179 71.87677002 0.9899292 C76.25633726 1.08284438 80.63601669 1.16972332 85.01570606 1.25665951 C89.30288703 1.34243163 93.58999174 1.43161855 97.87708092 1.52185249 C99.88820117 1.56385801 101.89934115 1.60493139 103.91050148 1.64497185 C138.51069774 2.34104078 138.51069774 2.34104078 142.84692383 5.39892578 C144.91236182 7.84554201 146.15689615 10.48822897 147.5625 13.36328125 C147.86612961 13.98276138 148.16975922 14.60224152 148.48258972 15.24049377 C151.82938403 22.1168589 154.97810039 29.08398848 158.11328125 36.05859375 C159.41068582 38.9358357 160.71056268 41.81195275 162.01171875 44.6875 C162.35007248 45.43547852 162.68842621 46.18345703 163.03703308 46.95410156 C165.74738687 52.9317974 168.5057645 58.88641851 171.27734375 64.8359375 C171.69140976 65.72629196 172.10547577 66.61664642 172.53208923 67.53398132 C174.99259941 72.82487614 174.99259941 72.82487614 177.46426392 78.11056519 C178.61134511 80.55710833 179.7515804 83.00673861 180.890625 85.45703125 C181.23674835 86.18989853 181.5828717 86.92276581 181.93948364 87.67784119 C183.32258486 90.66647817 184.30078125 92.78675581 184.30078125 96.12109375 C144.31768503 96.37760522 104.33457908 96.63254742 64.35145991 96.88545829 C59.60393544 96.91548979 54.85641106 96.94553394 50.10888672 96.97558594 C49.16395627 96.98156717 48.21902582 96.9875484 47.24546112 96.99371088 C32.05432861 97.08989786 16.8632028 97.18710432 1.67207931 97.28470457 C-13.97880774 97.38523537 -29.62970172 97.48463121 -45.28060234 97.58302784 C-54.04472022 97.63815864 -62.80883439 97.69377715 -71.57294083 97.7507019 C-108.28195229 97.98888376 -144.98917531 98.20491752 -181.69921875 98.12109375 C-180.57992978 95.39425895 -179.4598301 92.66776192 -178.33926392 89.94145203 C-178.02417153 89.17357975 -177.70907915 88.40570746 -177.38443851 87.61456633 C-175.19401414 82.28773549 -172.92976477 77.00418608 -170.53515625 71.765625 C-170.18057846 70.98232315 -169.82600067 70.1990213 -169.4606781 69.39198303 C-168.33454437 66.90462457 -167.20474313 64.41895935 -166.07421875 61.93359375 C-161.56895763 52.02092591 -157.0676186 42.1156068 -152.8828125 32.0625 C-152.59126282 31.36729752 -152.29971313 30.67209503 -151.99932861 29.95582581 C-150.65108872 26.74020031 -149.3210906 23.52083632 -148.02294922 20.28442383 C-144.94079175 12.90651598 -142.0934245 7.81819662 -134.69921875 4.12109375 C-133.04385665 3.97839646 -131.3832516 3.89470088 -129.72265625 3.83984375 C-128.67568069 3.80307022 -127.62870514 3.76629669 -126.55000305 3.72840881 C-124.82948982 3.67528786 -124.82948982 3.67528786 -123.07421875 3.62109375 C-121.88028 3.58080551 -120.68634125 3.54051727 -119.45622253 3.49900818 C-116.2104802 3.3907439 -112.96463586 3.28680067 -109.71868515 3.185009 C-107.02948994 3.09989712 -104.34042178 3.01108646 -101.65134335 2.92237377 C-83.39476517 2.32142272 -65.13642262 1.80809644 -46.87304688 1.46289062 C-46.07715652 1.44662125 -45.28126617 1.43035187 -44.46125793 1.41358948 C-42.37681407 1.37119661 -40.29229126 1.33273199 -38.20776367 1.29467773 C-34.59191012 1.19251133 -31.00536124 0.90803285 -27.40039062 0.61328125 C-18.26821555 -0.05794473 -9.15271741 -0.02729811 0 0 Z " fill="#2F4858" transform="translate(254.69921875,82.87890625)"/>
<path d="M0 0 C1.22217352 -0.0083016 1.22217352 -0.0083016 2.46903741 -0.0167709 C5.19690363 -0.03037505 7.92385454 -0.01540985 10.65170288 -0.00050354 C12.60814299 -0.00428675 14.56458043 -0.0097868 16.52101135 -0.01687622 C21.83284453 -0.03084601 27.14435436 -0.01965108 32.45616961 -0.00316501 C38.01080111 0.01067426 43.56541363 0.00422684 49.12005615 0.0007019 C58.4462506 -0.00200065 67.77231638 0.0114809 77.09848022 0.03465271 C87.8895926 0.06127827 98.68049003 0.06300475 109.47162402 0.05126435 C119.84442631 0.04049672 130.21715065 0.04666464 140.58994675 0.06081963 C145.00856742 0.06658668 149.42713119 0.06649114 153.84575272 0.06175423 C159.0447162 0.0569925 164.24344334 0.06705269 169.44236183 0.08870888 C171.3535908 0.09428733 173.26484244 0.0947324 175.17607307 0.08975601 C177.77837284 0.08382846 180.37994378 0.09625906 182.98217773 0.11352539 C183.74432732 0.10751535 184.50647691 0.1015053 185.29172194 0.09531313 C188.21784223 0.13079194 190.34092577 0.16041285 192.83246422 1.78337002 C194.72672976 4.93760336 194.28876757 8.64346105 194.26254272 12.21995544 C194.26684799 13.50138428 194.26684799 13.50138428 194.27124023 14.80870056 C194.27328103 16.6142493 194.26775005 18.41982014 194.25521851 20.22532654 C194.23916466 22.99096556 194.25506622 25.75514319 194.27426147 28.52073669 C194.27227905 30.27464617 194.26843537 32.02855474 194.26254272 33.78245544 C194.26861542 34.61063782 194.27468811 35.43882019 194.28094482 36.292099 C194.21041039 42.04211976 194.21041039 42.04211976 192.57019901 44.21649551 C189.60243748 46.45125701 185.96938415 45.97995213 182.39120483 46.00413513 C181.5011355 46.02145943 180.61106617 46.03878372 179.69402504 46.056633 C176.65570416 46.11080801 173.61759165 46.14230112 170.57894897 46.17308044 C168.37149576 46.20534345 166.16405266 46.23830475 163.95661926 46.27189636 C156.25935021 46.37945612 148.56188874 46.44536689 140.86410522 46.50120544 C140.14869977 46.50644352 139.43329432 46.51168159 138.69620991 46.5170784 C118.41563155 46.66318863 98.13513789 46.72752414 77.85405922 46.73860931 C76.15029525 46.7395428 74.44653129 46.74048633 72.74276733 46.74143982 C71.89695425 46.74190858 71.05114117 46.74237735 70.17969739 46.74286032 C63.19183991 46.74795595 56.2040772 46.7682326 49.21625859 46.79110074 C42.38977928 46.81265252 35.56334316 46.82279932 28.73683017 46.82414126 C24.697031 46.82518502 20.65737913 46.8310133 16.61761665 46.84896088 C12.86345757 46.86534892 9.10955917 46.86764309 5.3553772 46.85882187 C3.98107645 46.85804914 2.60676189 46.86242518 1.23249626 46.87228012 C-0.63797472 46.8849162 -2.50854998 46.87736166 -4.37904358 46.86869812 C-5.4248632 46.87016468 -6.47068281 46.87163124 -7.54819393 46.87314224 C-10.13589478 46.50120544 -10.13589478 46.50120544 -11.96945286 45.21931076 C-14.05954412 42.14072034 -13.60376573 38.41837107 -13.60464478 34.81761169 C-13.6122583 33.96569748 -13.61987183 33.11378326 -13.62771606 32.23605347 C-13.63851874 30.43473745 -13.64136947 28.63335879 -13.63687134 26.83201599 C-13.6358994 24.07680189 -13.67750707 21.32437635 -13.72183228 18.56956482 C-13.72703964 16.81891959 -13.72972746 15.06826467 -13.72964478 13.31761169 C-13.74604004 12.49459061 -13.7624353 11.67156952 -13.77932739 10.8236084 C-13.77002197 10.05278427 -13.76071655 9.28196014 -13.75112915 8.48777771 C-13.75318359 7.81287796 -13.75523804 7.13797821 -13.75735474 6.44262695 C-11.74473413 0.15526304 -5.63148272 -0.07138878 0 0 Z " fill="#3B5569" transform="translate(166.13589477539063,335.49879455566406)"/>
<path d="M0 0 C0.69193954 0.1640332 1.38387909 0.32806641 2.0967865 0.49707031 C4.32067367 1.02691348 6.54114215 1.56974686 8.76171875 2.11328125 C10.30487513 2.48405418 11.84817039 2.85424957 13.39160156 3.22387695 C21.90477469 5.27203095 30.39728062 7.39000536 38.84375 9.69970703 C42.96385879 10.81556983 47.09189657 11.80218266 51.265625 12.69921875 C52.26239258 12.91489502 53.25916016 13.13057129 54.28613281 13.3527832 C56.21142438 13.76396912 58.13908264 14.16428808 60.06933594 14.55151367 C60.94364258 14.73818604 61.81794922 14.9248584 62.71875 15.1171875 C63.48807861 15.27388916 64.25740723 15.43059082 65.05004883 15.59204102 C71.04917717 17.67680985 74.31510119 21.1025306 77.53515625 26.44140625 C77.88180328 27.01606628 78.22845032 27.59072632 78.58560181 28.18280029 C79.30972075 29.3924451 80.02704437 30.6061816 80.73779297 31.82373047 C81.82104842 33.67037674 82.93592473 35.49501444 84.0546875 37.3203125 C90.71160346 48.4245292 90.71160346 48.4245292 89.44921875 55.42578125 C87.57906781 57.85697748 86.1678353 59.06647298 83.44921875 60.42578125 C80.91810432 60.53951655 78.41385456 60.59359257 75.88183594 60.6027832 C75.10114243 60.6093544 74.32044891 60.6159256 73.51609802 60.62269592 C70.92609566 60.64244572 68.33615137 60.65409608 65.74609375 60.6640625 C64.86177925 60.66813803 63.97746475 60.67221355 63.06635284 60.67641258 C58.38456963 60.69728188 53.70281578 60.71157908 49.02099609 60.72094727 C44.18767215 60.73200518 39.35480943 60.76639535 34.52164841 60.80611897 C30.80353955 60.83228206 27.08554053 60.84063889 23.36734772 60.84422874 C21.58597961 60.8490966 19.80461648 60.86071628 18.02333832 60.87926674 C15.52658229 60.90364902 13.03101865 60.90269502 10.53417969 60.89575195 C9.43513557 60.91496704 9.43513557 60.91496704 8.31388855 60.93457031 C3.20561302 60.88293148 0.43012501 59.54645305 -3.55078125 56.42578125 C-4.52015625 55.74515625 -5.48953125 55.06453125 -6.48828125 54.36328125 C-14.87687948 47.1636182 -19.9262496 35.19020122 -21.55078125 24.42578125 C-21.76380984 21.27917141 -21.82687168 18.14134962 -21.86328125 14.98828125 C-21.89228516 14.15490234 -21.92128906 13.32152344 -21.95117188 12.46289062 C-22.0093613 6.80061214 -21.25683701 3.76441054 -17.55078125 -0.57421875 C-12.31644635 -3.1913862 -5.3897286 -1.29588915 0 0 Z " fill="#E1E4E7" transform="translate(56.55078125,238.57421875)"/>
<path d="M0 0 C2.69105198 2.17574416 4.45532928 3.91065856 6 7 C6.86488832 23.88195471 5.097513 39.11626138 -5.8125 52.875 C-6.85894095 53.9327982 -7.92372975 54.97256726 -9 56 C-9.80422394 56.78749382 -9.80422394 56.78749382 -10.62469482 57.59089661 C-18.25939697 63.81549111 -27.32388327 62.85113167 -36.640625 62.76171875 C-38.45424655 62.76322298 -40.26786742 62.76665743 -42.08148193 62.77192688 C-45.86747872 62.77624326 -49.65261919 62.75952824 -53.43847656 62.72729492 C-58.28657697 62.68740084 -63.13308321 62.69686813 -67.9812355 62.72152996 C-71.72000172 62.73571731 -75.45839604 62.72562498 -79.19713593 62.70801735 C-80.98487205 62.7021775 -82.77264636 62.7034552 -84.5603714 62.71204185 C-87.05705882 62.72004572 -89.55141247 62.6957688 -92.04785156 62.6628418 C-92.78249634 62.67139191 -93.51714111 62.67994202 -94.27404785 62.68875122 C-98.14946045 62.6006581 -99.86894382 62.10339788 -102.94769287 59.6743927 C-105.11147365 56.85473699 -105.88952626 55.0432932 -105.64941406 51.46679688 C-104.27078376 46.23007484 -101.30199166 41.66246388 -98.49365234 37.08056641 C-97.37687137 35.25306231 -96.2945518 33.40818912 -95.21484375 31.55859375 C-94.50717305 30.37642583 -93.79759935 29.19539457 -93.0859375 28.015625 C-92.1276001 26.42669434 -92.1276001 26.42669434 -91.14990234 24.80566406 C-87.22700169 19.68620298 -82.85626493 17.63348808 -76.66015625 16.2890625 C-75.44392578 16.01690918 -74.22769531 15.74475586 -72.97460938 15.46435547 C-72.33676514 15.32753357 -71.6989209 15.19071167 -71.04174805 15.04974365 C-67.65897385 14.3238054 -64.28530878 13.55731626 -60.91015625 12.796875 C-60.23336823 12.6456015 -59.5565802 12.494328 -58.85928345 12.33847046 C-52.86658182 10.99177253 -46.93195164 9.46487927 -41 7.875 C-33.37755645 5.85491779 -25.74112564 3.92089078 -18.0625 2.125 C-17.16853516 1.90956543 -16.27457031 1.69413086 -15.35351562 1.47216797 C-10.11200684 0.2694111 -5.38075396 -0.42572998 0 0 Z " fill="#E1E4E7" transform="translate(471,237)"/>
<path d="M0 0 C55.77 0 111.54 0 169 0 C169 6.93 169 13.86 169 21 C113.23 21 57.46 21 0 21 C0 14.07 0 7.14 0 0 Z " fill="#3A556A" transform="translate(169,278)"/>
<path d="M0 0 C0.56602576 11.15943872 1.09725739 22.32620415 1.25 33.5 C1.27126953 34.25708252 1.29253906 35.01416504 1.31445312 35.79418945 C1.34674497 40.93032209 0.40110701 44.43789669 -2 49 C-5.89138814 52.69681873 -8.96155932 54.11311495 -14.28442383 54.16113281 C-15.14574417 54.17074036 -16.00706451 54.1803479 -16.89448547 54.19024658 C-17.82262558 54.19449646 -18.75076569 54.19874634 -19.70703125 54.203125 C-21.14425789 54.21167511 -21.14425789 54.21167511 -22.61051941 54.22039795 C-24.63885393 54.22984545 -26.66720378 54.23638094 -28.69555664 54.24023438 C-31.79015069 54.24992998 -34.88407772 54.28095177 -37.97851562 54.3125 C-39.9505169 54.3190313 -41.92252291 54.32428127 -43.89453125 54.328125 C-44.81659866 54.3404718 -45.73866608 54.3528186 -46.68867493 54.36553955 C-51.88894637 54.34761702 -55.50075262 53.90890839 -60 51 C-64.10636168 46.46884229 -64.13917499 42.12756186 -64.09765625 36.26953125 C-64.0962413 35.51911057 -64.09482635 34.76868988 -64.09336853 33.99552917 C-64.0877756 31.6011454 -64.07522444 29.20685547 -64.0625 26.8125 C-64.05748408 25.18815239 -64.05292134 23.56380332 -64.04882812 21.93945312 C-64.03780848 17.95959931 -64.02054873 13.97981556 -64 10 C-63.44813522 9.99635437 -62.89627045 9.99270874 -62.3276825 9.98895264 C-56.53501677 9.94683742 -50.74312215 9.87729334 -44.95092773 9.79248047 C-42.79508207 9.76441754 -40.63913632 9.74313072 -38.4831543 9.72900391 C-35.36715999 9.70737006 -32.25235066 9.66061643 -29.13671875 9.609375 C-27.71258919 9.60753204 -27.71258919 9.60753204 -26.25968933 9.60565186 C-16.81192476 9.4031824 -6.86197981 0 0 0 Z " fill="#304858" transform="translate(481,388)"/>
<path d="M0 0 C0.90363281 0.42152344 1.80726562 0.84304688 2.73828125 1.27734375 C3.91777344 1.82519531 5.09726562 2.37304688 6.3125 2.9375 C8.07013672 3.75541016 8.07013672 3.75541016 9.86328125 4.58984375 C13.70581407 6.31730869 16.5753233 7.12868048 20.74682617 7.20532227 C22.18798042 7.2352401 22.18798042 7.2352401 23.6582489 7.26576233 C24.69270645 7.28247482 25.727164 7.29918732 26.79296875 7.31640625 C28.38471672 7.3475779 28.38471672 7.3475779 30.00862122 7.37937927 C33.40151437 7.44481238 36.7944855 7.50373093 40.1875 7.5625 C42.48633622 7.60569114 44.78516453 7.64930562 47.08398438 7.69335938 C52.7225736 7.8004874 58.36124056 7.90226551 64 8 C64.80203461 14.73632731 65.21286939 21.33938064 65.25 28.125 C65.270625 29.07503906 65.29125 30.02507812 65.3125 31.00390625 C65.35092862 37.9306652 64.5936897 42.91999348 60 48.375 C56.94298843 50.8588219 54.33518955 51.12975519 50.53198242 51.17700195 C49.63062057 51.18983719 48.72925873 51.20267242 47.80058289 51.21589661 C46.34275139 51.22697701 46.34275139 51.22697701 44.85546875 51.23828125 C43.85292557 51.246353 42.85038239 51.25442474 41.81745911 51.26274109 C39.69497402 51.27657363 37.57246676 51.2872995 35.44995117 51.29516602 C32.21034439 51.31237862 28.97175825 51.35627275 25.73242188 51.40039062 C23.66927833 51.41051787 21.60612612 51.41903387 19.54296875 51.42578125 C18.57715378 51.44328934 17.61133881 51.46079742 16.61625671 51.47883606 C10.94222695 51.46061096 7.34371018 51.0341941 3 47 C-0.51306292 41.98054679 -0.39835211 37.33835006 -0.29296875 31.4453125 C-0.28872391 30.54376434 -0.28447906 29.64221619 -0.28010559 28.71334839 C-0.26339058 25.85025435 -0.22575192 22.98787921 -0.1875 20.125 C-0.17244387 18.17709354 -0.15875709 16.22917598 -0.14648438 14.28125 C-0.11351058 9.52055878 -0.06177813 4.76040104 0 0 Z " fill="#2F4758" transform="translate(34,393)"/>
<path d="M0 0 C1.24431023 0.72459833 2.47539358 1.47272996 3.6875 2.25 C4.574375 2.78625 5.46125 3.3225 6.375 3.875 C11.07479026 8.70181162 13.95391375 14.53423973 14.25 21.3125 C13.87935237 27.8606082 11.5070999 33.0369731 7.375 38.0625 C1.40843854 42.91900351 -4.21189126 45.72113895 -12.03125 45.58984375 C-19.14196315 44.5305423 -24.77098735 40.51591563 -29.15625 34.99609375 C-33.43227614 28.53871643 -33.07842174 21.75129538 -32.3125 14.25 C-29.85717204 7.27391799 -24.35515751 2.94686669 -18.0625 -0.5625 C-11.79479451 -2.54727341 -6.03282751 -2.87982143 0 0 Z " fill="#EBEEF0" transform="translate(80.3125,333.75)"/>
<path d="M0 0 C4.30757797 2.42343927 6.86896719 4.78270886 9.625 8.875 C10.223125 9.761875 10.82125 10.64875 11.4375 11.5625 C13.70353352 17.88354086 13.5388514 24.34898637 11.125 30.625 C8.31860582 36.18785252 3.8261669 40.29031638 -1.734375 43.04296875 C-7.99927246 45.01696751 -15.74208199 45.02348354 -21.8125 42.375 C-27.56598181 38.95696958 -31.32642009 33.14124443 -33.375 26.875 C-34.23693607 19.78897823 -34.31472877 13.46031646 -29.93359375 7.58984375 C-21.644409 -1.53033697 -11.86392866 -5.51521945 0 0 Z " fill="#EBEEF1" transform="translate(454.375,332.125)"/>
<path d="M0 0 C1.02480469 -0.00386719 2.04960937 -0.00773438 3.10546875 -0.01171875 C4.70455078 0.00568359 4.70455078 0.00568359 6.3359375 0.0234375 C7.37878906 0.01183594 8.42164063 0.00023437 9.49609375 -0.01171875 C19.26084038 0.02485333 27.63233622 1.31983622 34.7109375 8.3984375 C36.60206406 12.18069062 36.46142832 16.29911789 35.7109375 20.3984375 C30.0817753 28.76277256 18.14304312 31.00348843 9 32.8046875 C1.51232402 34.15638198 -5.68015615 34.52432014 -13.2890625 34.3984375 C-14.32479146 32.65721201 -15.3421877 30.90507155 -16.3515625 29.1484375 C-16.92003906 28.17390625 -17.48851562 27.199375 -18.07421875 26.1953125 C-19.2890625 23.3984375 -19.2890625 23.3984375 -19.12109375 21.12890625 C-17.88326674 18.55445853 -15.70998284 17.83946151 -13.2890625 16.3984375 C-10.8709389 13.375783 -10.16249978 11.0392334 -9.8515625 7.2734375 C-9.2890625 3.3984375 -9.2890625 3.3984375 -7.58447266 1.68115234 C-4.84662468 0.15119561 -3.12454154 0.01148126 0 0 Z " fill="#2E4758" transform="translate(476.2890625,157.6015625)"/>
<path d="M0 0 C1.08861328 -0.020625 2.17722656 -0.04125 3.29882812 -0.0625 C4.34619141 -0.06765625 5.39355469 -0.0728125 6.47265625 -0.078125 C7.90170288 -0.09214355 7.90170288 -0.09214355 9.35961914 -0.10644531 C12.38946285 0.31249321 13.74096024 1.15400496 15.9375 3.25 C16.625 5.5546875 16.625 5.5546875 16.9375 8.125 C17.66872446 12.52517528 18.59776637 15.10672129 21.9375 18.25 C23.25602905 18.94548785 24.58765369 19.61743604 25.9375 20.25 C25.00761587 23.27706962 23.99110797 26.26394518 22.9375 29.25 C22.6075 30.260625 22.2775 31.27125 21.9375 32.3125 C19.50278501 34.67113015 18.69732851 34.62319357 15.375 34.75 C1.34231094 34.0623053 -17.39092792 32.2329137 -27.94140625 22.05078125 C-30.27491371 18.30253407 -30.02183036 14.43431325 -29.0625 10.25 C-27.17882087 6.30990261 -24.42239327 4.4363733 -20.5625 2.4375 C-13.66361142 0.09680566 -7.22833404 0.03435928 0 0 Z " fill="#2E4758" transform="translate(29.0625,157.75)"/>
<path d="M0 0 C4.9692734 2.30058954 8.76575759 5.96818056 11 11 C11.99812355 16.94166 11.4146832 21.93684905 8 27 C3.72483021 32.0839857 0.11793961 33.59582264 -6.375 34.4375 C-11.19016217 33.85635974 -14.30178925 32.08720201 -18 29 C-22.14950335 23.68012391 -23.45667163 19.73590657 -23 13 C-21.0205148 7.79082842 -17.97269097 3.82053451 -13.17578125 0.8828125 C-8.94132174 -0.83529854 -4.47738888 -0.51411878 0 0 Z " fill="#BDBEC1" transform="translate(446,252)"/>
<path d="M0 0 C4.41854291 3.11306432 8.02390999 6.75922996 9.75 11.9375 C10.33801981 17.93530203 9.04839282 22.02203797 5.75 26.9375 C1.67223343 30.91070845 -2.02804843 32.7355044 -7.6875 33.25 C-13.47165066 32.74261836 -16.77308009 30.70510861 -20.5625 26.4375 C-24.25843608 22.01401745 -24.59664754 18.05742006 -24.53125 12.44140625 C-23.9747527 7.48703445 -21.22706409 4.79824694 -17.625 1.625 C-12.24342122 -2.19875334 -6.19049534 -2.02381578 0 0 Z " fill="#BDBEC1" transform="translate(79.25,253.0625)"/>
<path d="M0 0 C3.42484369 2.28322912 4.97163392 4.19326784 6.8125 7.875 C7.4190099 12.12056929 7.13882523 14.23490051 5.1875 18.0625 C1.65062594 22.25090349 -1.18053329 24.58829047 -6.6875 25.375 C-11.82749354 24.64071521 -14.76625265 22.58049682 -18.0625 18.625 C-19.55501074 14.97664042 -19.86646674 11.72247819 -19.1875 7.875 C-14.96933115 -0.40510922 -8.89434708 -3.13918132 0 0 Z " fill="#BDBFC2" transform="translate(114.1875,269.125)"/>
<path d="M0 0 C3.45211024 2.30140683 4.9826251 4.1448704 6.8125 7.875 C7.67172126 12.26754949 7.16075042 15.16510492 5.1875 19.1875 C1.80909554 23.01043137 -1.1487224 24.57767827 -6.1875 25.3125 C-11.33594085 24.56168571 -14.20156539 21.9620561 -17.625 18.1875 C-19.71330249 13.76029872 -19.53663831 10.53253482 -18.1875 5.875 C-13.76774441 -1.28805217 -7.95729255 -2.80845619 0 0 Z " fill="#BDBEC1" transform="translate(410.1875,269.125)"/>
</svg>
